<svg xmlns="http://www.w3.org/2000/svg" viewBox="0 0 121.79 151.7"><defs><style>.cls-1{fill:#e8a828;}</style></defs><title>beard4</title><g id="Calque_2" data-name="Calque 2"><g id="Gros_bouc" data-name="Gros bouc"><path class="cls-1" d="M13.34,62.81c.16-5.6,1.89-11,3.61-16.37l1.26-3.92c1.15-3.57,2.33-7.21,4.51-10.27A27.27,27.27,0,0,1,30,25.61,54.78,54.78,0,0,1,61.1,16.47c5.75.1,11.7,1.22,16.29,4.68,4.34,3.27,7,8.27,9.49,13.1,3.83,7.37,7.69,14.81,9.89,22.83,1.71-2.32,6.27,0,5.37,2.77l4.59-13.52c1-2.81,1.91-5.73,1.59-8.68s-1.88-5.55-3.41-8.07c-4.25-7-8.68-14.27-15.36-19.08C82.09,5.14,72.69,3.42,63.63,1.84a12.27,12.27,0,0,0-4.43-.22c-2,.4-3.69,1.77-5.66,2.24-2.83.68-5.71-.55-8.58-1-5.27-.89-10.67.79-15.4,3.29A45.44,45.44,0,0,0,13.25,20.79C5.47,32.31,3.43,46.67,2,60.5c-.13,1.32-.19,2.86.79,3.75a4.36,4.36,0,0,0,2.7.82l5.77.39"/><path d="M14.84,62.81c.34-5.76,2-11.16,3.76-16.62C20.17,41.32,21.45,36,24.79,32c6.81-8.15,19.13-12.54,29.4-13.71C65,17.07,75.62,18.91,82,28.56A110.49,110.49,0,0,1,95.32,57.47a1.52,1.52,0,0,0,2.51.67l2.81,1.71c-.17,1.77,2.43,1.92,3,.4,2.23-6.59,6.51-14.63,6.25-21.72-.22-6.31-5-12.37-8.49-17.4-3.69-5.39-8-10.36-13.76-13.67C81.61,4,74.77,2.37,68,1.12c-2.8-.53-6-1.46-8.84-1A14,14,0,0,0,57,.78C53.62,1.93,51.53,2.64,47.94,2A27.36,27.36,0,0,0,28.81,4.82C17,11,9.1,22,5.15,34.57,2.75,42.17,1.64,50.11.78,58c-.25,2.3-1,5.46,1,7.3,2.17,2.07,6.88,1.47,9.53,1.65,1.92.14,1.92-2.86,0-3-2.79-.19-5.1.4-6.76-1.93C3.13,60.1,3.71,58.59,4,56.34c.46-4,1-8.08,1.82-12.07a65.06,65.06,0,0,1,7-19.91A44.08,44.08,0,0,1,28.94,8.18C32.74,6,37,4.22,41.44,4.1,45.26,4,48.88,5.87,52.68,5.46S59.15,2.7,63.23,3.29c3.22.46,6.46,1.13,9.62,1.88,7.48,1.77,14.46,4.59,20,10.13a69.79,69.79,0,0,1,12.56,18.12c3.8,7.83-2.09,18.38-4.68,26l2.94.4c.43-4.4-4.76-6.58-7.93-3.84l2.5.67A103.94,103.94,0,0,0,91,39c-2.55-5.1-5-10.47-8.58-14.95-7.19-9-19.25-10-30-8.57C42,17,29.76,21.61,22.67,29.89c-3.32,3.87-4.8,8.78-6.33,13.54-2.05,6.37-4.1,12.66-4.5,19.38-.11,1.93,2.89,1.92,3,0Z"/><path class="cls-1" d="M4.35,74.07,19,74.19c1.75,0,3.69,0,4.95-1.25,1-1,1.35-2.45,2.3-3.46,3.4-3.64,11.18,1.22,13.93-2.94.69-1.05.83-2.49,1.83-3.26,1.64-1.28,4.15.24,6.07-.55s2.22-3.15,2.64-5.1,1.85-4.25,3.79-3.76c1.62.4,2.11,2.38,2.7,3.94,1.76,4.62,6.47,7.3,10.85,9.6a13.68,13.68,0,0,0,5.42,2A23.93,23.93,0,0,0,78,68.83c4.82-.65,9.63.9,14.46,1.52s10.41,0,13.38-3.91c1.61-2.09,3.33-5.37,5.8-4.42a4.49,4.49,0,0,1,2.17,2.73,86,86,0,0,1,2.3,59.26,3.74,3.74,0,0,1-1.29,2.11,5.53,5.53,0,0,1-2.67.45c-3.92.27-6.56,4-8.9,7.1-5.29,7.1-12.31,13.45-21,15.38a49.91,49.91,0,0,1-10.37.84L61.37,150c-5.47.06-11.13.09-16.13-2.12-6-2.64-10.31-8.18-16.29-10.83-5.47-2.42-13.22-3.47-14.28-9.36-.39-2.12.33-4.38-.36-6.41-1.11-3.31-5.2-4.45-7.52-7.06C1.72,108.53,7,99.22,4.5,92c-.67-1.92-1.88-3.62-2.5-5.56C.73,82.52,2,78.27,3.32,74.34"/><path d="M4.35,75.57l11,.09c2.51,0,5.56.48,8-.57,1.51-.66,1.77-1.31,2.79-2.49,3.34-3.84,5.32-2.69,9.66-2.76a7.57,7.57,0,0,0,4.14-1c1.83-1.19,2.16-3.92,4.42-4.59,2-.6,3.55.71,5.48-.88,1.42-1.17,1.38-2.59,2.12-4.14,1.23-2.57,2.34-4.46,3.86-1a17.24,17.24,0,0,0,1.54,2.91,18.69,18.69,0,0,0,4.8,4.54c3.9,2.74,8.42,5.4,13.29,5.09a47,47,0,0,1,11.25.12A58.24,58.24,0,0,0,95.13,72c4.51.06,8.69-1.14,11.75-4.54.7-.78,1.37-2.39,2.18-2.92,3.42-2.19,3.81,1.82,4.55,3.79a82.15,82.15,0,0,1,2.56,8.26,85.3,85.3,0,0,1,2.57,23.6,83.72,83.72,0,0,1-3.08,20.07c-.74,2.61-.62,3.59-3.53,4.77-.88.35-1.91.31-2.83.69a13.49,13.49,0,0,0-4.65,3.67c-3.73,4.16-6.68,8.77-11.09,12.32-7,5.66-14.68,6.56-23.41,6.66-6.5.08-13.43.79-19.85-.51-6.8-1.38-11.14-6.19-16.67-9.9-4.58-3.06-12-3.6-15.79-7.56-2.81-2.94-.89-6.55-2.23-9.9-.77-1.92-2.26-3.1-3.85-4.33-4-3.07-5.93-5.2-5.74-10.45.11-2.8.65-5.58.69-8.38a18.55,18.55,0,0,0-1.5-7.53C4.23,87.45,3,85.76,3,83s.94-5.63,1.79-8.28c.59-1.84-2.3-2.63-2.89-.8-1,3.21-2.1,6.54-1.84,9.94s2.23,6,3.19,9.18c1.71,5.75-1.25,11.83.16,17.64a10.71,10.71,0,0,0,3.28,5.52A27.55,27.55,0,0,0,9.14,118c3.06,2.27,3.59,4.26,3.91,8.06.37,4.6,2.77,7.25,6.91,9.14,2.23,1,4.61,1.68,6.89,2.59,3.93,1.57,7.07,4.08,10.38,6.66,4.88,3.81,9.67,6.23,15.9,6.82,7.3.7,14.94.31,22.26,0a32.49,32.49,0,0,0,18.12-5.81c5.49-3.89,8.85-9.1,13.26-14a10.31,10.31,0,0,1,4.5-3.33c1.26-.35,2.73,0,3.93-.65,1.83-1,2.27-2.94,2.86-4.82a86.67,86.67,0,0,0,2-42.7,84.8,84.8,0,0,0-2.94-10.85c-.8-2.31-1.58-5.83-3.44-7.59-3.17-3-6.07.08-8.06,2.62-5.74,7.34-14.08,4.07-22,3.16-3.63-.42-7.66,1-11.16.29s-8.32-3.76-10.87-6.22-4.55-12-9.89-8.33c-2,1.33-1.76,3.44-2.69,5.31-2,4-5.09,1.52-7.91,3.66-1.25.94-1.52,2.52-2.67,3.57-1.58,1.44-2.93,1.17-5,1-2.24-.15-4.65-.47-6.72.61a6.18,6.18,0,0,0-2.18,2A7.17,7.17,0,0,1,19,72.69c-4.71.57-9.87-.08-14.63-.12a1.5,1.5,0,0,0,0,3Z"/></g></g></svg>