<svg xmlns="http://www.w3.org/2000/svg" viewBox="0 0 229.17 95.92"><defs><style>.cls-1{fill:#e8a828;}</style></defs><title>beard3</title><g id="Calque_2" data-name="Calque 2"><g id="Rouflaquettes"><path class="cls-1" d="M218.47,9.49l7.25,3.36a3.19,3.19,0,0,1,1.76,1.44,3.72,3.72,0,0,1,0,2.24c-1.1,5.23-2.21,10.46-2.93,15.77-1.56,11.5-1.32,23.28-3.75,34.6s-8.25,22.64-18,27.2a2.62,2.62,0,0,1-1.75.34c-1-.27-1.43-1.46-1.73-2.5a120.07,120.07,0,0,1-3.46-16.23,13,13,0,0,1,0-4.93c.55-2.28,2.2-4,3.61-5.8,9.62-12.1,10.29-29.63,15.84-44.47,1.41-3.76,3.19-7.76,2.27-11.7"/><path d="M217.71,10.79c1.92.88,5.81,1.85,7.25,3.36s.73,3.52.33,5.47c-.84,4.07-1.63,8.16-2.19,12.28-1,7.41-1.29,14.89-2,22.34-.75,8-2,16.07-5.41,23.43-1.6,3.47-11.21,19-15.21,13-1.78-2.7-2.09-8.48-2.64-11.69-1-5.77-.74-8.4,2.85-13.23a55.43,55.43,0,0,0,8.28-17c2.06-6.66,3.4-13.53,5.27-20.25S219.94,15.43,219,8.41c-.27-1.9-3.16-1.09-2.9.8.62,4.43-1.4,8.36-2.81,12.39-1.23,3.54-2.21,7.17-3.12,10.8-1.69,6.72-3.1,13.56-5.56,20.05a46.42,46.42,0,0,1-4.66,9.29c-1.61,2.41-4,4.58-5.11,7.33-2.24,5.72.65,14.09,2.08,19.72.81,3.17,1.53,8,5.85,6.92,4.56-1.19,8.8-5.87,11.45-9.5,8.1-11.07,9.47-25.12,10.45-38.37a210.89,210.89,0,0,1,3.56-27.43c.4-2,1.59-4.86.58-6.87-1.43-2.87-6.92-4.13-9.54-5.34-1.75-.81-3.27,1.77-1.52,2.59Z"/><path class="cls-1" d="M5.23,8.05l6.5-6.56a49.57,49.57,0,0,0,4.4,20.7c2.16,4.73,5.06,9,6.82,14S25.23,46.32,27.25,51c3.74,8.65,12.28,14.8,13,24.41a20,20,0,0,1-.05,3.28,27.21,27.21,0,0,1-6.65,15.74C19.05,78.56,11.84,56.17,5.08,34.61,2.32,25.8-.41,15.89,3,7.39"/><path d="M6.29,9.11l6.5-6.56L10.23,1.49a53.67,53.67,0,0,0,5.35,23C17.8,29.07,20.5,33.3,22,38.17,23.24,42,23.8,46,25.18,49.82c2.37,6.51,7.26,11.36,10.67,17.27,5,8.59,2.86,18.89-3.4,26.28h2.12C24.39,81.94,18,67.93,12.92,53.64c-2.49-7-4.76-14-6.91-21.09C3.56,24.43,1.52,16.06,4.46,7.79,5.11,6,2.21,5.18,1.57,7c-2.7,7.58-1.52,15.39.56,23,2.26,8.24,5,16.43,7.9,24.48,5.28,14.79,11.88,29.22,22.42,41.05a1.51,1.51,0,0,0,2.12,0c4.8-5.67,7.85-13.25,7.06-20.78C40.88,67.5,36,62.09,32.05,56.36,27,48.91,26.61,40.18,22.92,32.18c-2.25-4.88-5.16-9.38-7-14.46A50.35,50.35,0,0,1,13.23,1.49,1.51,1.51,0,0,0,10.67.43L4.16,7A1.5,1.5,0,0,0,6.29,9.11Z"/></g></g></svg>