<svg xmlns="http://www.w3.org/2000/svg" viewBox="0 0 118.93 32.52"><defs><style>.cls-1{fill:#e8a828;}</style></defs><title>beard1</title><g id="Calque_2" data-name="Calque 2"><g id="Moustache_italiano" data-name="Moustache italiano"><path class="cls-1" d="M3.78,9.38C-.58,14.51,1.62,23.49,6.89,27.52s12.36,4.12,18.7,2.69S38,26,44.35,24.86a77.51,77.51,0,0,1,15-.75l1.66,0c7.89.12,15.87.26,23.51,2.37,8.26,2.28,17.07,6.82,24.84,3.06,5.13-2.48,8.51-8.61,8.06-14.63S112.73,3.45,107.3,1.88c-1.9-.55-4.11-.59-5.65.73S99.9,7,101.62,8a12.87,12.87,0,0,0,2.64.73c2.86,1,3.38,5.64,1.33,8s-5.57,2.58-8.4,1.5S92,15,89.57,13.1C84.84,9.38,79.51,6.28,73.7,5.42s-12.16.79-16.18,5.37C55.86,6.69,51.28,4.71,47.13,5s-8,2.35-11.69,4.38L24.07,15.61c-2.66,1.46-5.42,2.94-8.4,3.16S9.39,17.62,8.15,14.7c-1.36-3.17.52-7.42,3.67-8.28C10,3.13,4.38,3.93,3.36,7.62"/><path d="M2.48,8.62c-3.79,5.15-3,12.23.73,17.23,4.51,6.07,12.55,7.33,19.61,6.38,10.65-1.45,19.91-6.47,30.88-6.65C65,25.4,76.59,25.53,87.45,29c8,2.53,17.57,6.21,25.08.38a17,17,0,0,0,5.66-18.18C116.4,5.55,110.77-.55,104.34,0c-5.09.47-7,5.8-3.48,9.23.21.21,2.15.88,1.65.59,3.17,1.84,4.44,5.77-.6,7.31C98.26,18.28,94.44,15,91.84,13a50,50,0,0,0-11.6-7.29C72,2.38,62.81,3.19,56.46,9.73l2.35.3C55.12,2.62,46.68,2.52,39.89,5.45c-4.6,2-8.95,4.68-13.33,7.08-3,1.62-6.19,3.88-9.53,4.52-1.66.33-4.12.29-5.58-.75-3.79-2.69-2-7.24,1.13-8.59a1.5,1.5,0,0,0,.54-2C9.91,1.38,3.92,2.34,1.91,7.22,1.18,9,4.08,9.78,4.81,8Q7,4.23,10.53,7.17l.54-2c-9,3.8-4.16,15.55,4.6,15.15,10.61-.48,32.83-24.19,40.55-8.72a1.52,1.52,0,0,0,2.36.3c6.69-6.89,16.32-6,24.13-1.59,5.35,3,10.2,9.3,16.62,10,3.91.41,7.88-1.48,8.8-5.51a7.33,7.33,0,0,0-.5-4.79,5.74,5.74,0,0,0-1.45-1.83c-.2-.17-3-1.42-2.87-1.14l1.79-1.82c.67-1.8,1.61-2.26,2.83-1.4a6.65,6.65,0,0,1,2.15,1.1,13.47,13.47,0,0,1,4,4.34,13.92,13.92,0,0,1,.12,13.64c-5.47,9.89-16.58,6.27-25.11,3.52a80.43,80.43,0,0,0-22.6-3.59c-7.74-.24-15.76-.7-23.4.84-8.57,1.74-16.79,6.46-25.74,5.93C8.07,29-1.76,19.4,5.08,10.13c1.14-1.55-1.46-3.05-2.6-1.51Z"/></g></g></svg>