<svg xmlns="http://www.w3.org/2000/svg" viewBox="0 0 222.05 134.38"><defs><style>.cls-1{fill:#e5ae33;}</style></defs><title>beard5</title><g id="Calque_2" data-name="Calque 2"><g id="Calque_26" data-name="Calque 26"><path class="cls-1" d="M65.55,12.12C85.26,8,105.62,3.9,125.42,7.51c4.47.82,8.87,2,13.4,2.41,5,.43,10.37-.11,14.89,2.05,2.08,1,3.85,2.52,6,3.42,6.49,2.74,13.77-.93,20.24-3.71A83.48,83.48,0,0,1,211.14,5a5.75,5.75,0,0,1,3.7.79,5.09,5.09,0,0,1,1.37,1.9c5.51,11.14,5.42,24.3,1.78,36.13S207.41,66.3,199.63,76.12A213,213,0,0,1,149,122.2c-5.11,3.32-10.44,6.47-16.35,8.21-6.21,1.82-12.8,2-19.3,2-21.42.07-43.93-1.88-61.75-13.23-12.55-8-21.72-20-28.83-32.78a175.43,175.43,0,0,1-12.55-28.3C7.6,50.63,5.47,42.89,5.47,35c0-10.4,3.21-22.32-4-30.1A85.56,85.56,0,0,1,66,11.56"/><path d="M66,13.57C84.64,9.68,104,5.62,123.17,8.64c7.59,1.21,14.76,2.53,22.44,3.1,8.13.61,13.63,7.14,22,5.85,7.91-1.21,15.07-5.85,22.75-8A81.82,81.82,0,0,1,204,6.93a28.67,28.67,0,0,1,6.25-.42c4.29.55,5.5,3.27,6.72,7,5.5,17-.52,34.82-9.68,49.32-9,14.3-20.81,27.11-33.38,38.36a211.28,211.28,0,0,1-20,15.81c-7,4.86-14.29,9.92-22.58,12.16-8.53,2.3-17.79,1.9-26.55,1.66A150,150,0,0,1,79,128.18c-16.63-3.39-31.14-11.13-42.31-24-12.78-14.77-21.61-33.89-27-52.53C6.91,42.08,7.09,33.29,7.57,23.53c.36-7.18-.25-14-5-19.69L1.87,6.35a84.92,84.92,0,0,1,63.38,6.5c1.7.91,3.22-1.68,1.51-2.59A88,88,0,0,0,1.07,3.46,1.51,1.51,0,0,0,.41,6c6.15,7.3,4,17.3,3.63,26C3.66,41.16,5.78,49.9,8.73,58.52c5.69,16.57,13.53,33,24.79,46.51,11,13.22,25.51,21.69,42.22,25.51,16.15,3.7,34.81,5.06,51.24,2.6,16.82-2.52,31.89-15.18,44.51-25.85a199,199,0,0,0,36-39.35C217,54.05,223.9,37.59,221.6,20.47c-.62-4.64-2.09-14.9-7.48-16.69-3.47-1.16-8.39-.08-11.89.35a86.28,86.28,0,0,0-12.64,2.55c-10.52,3-21.42,11.6-32.15,5.74-8.76-4.78-18.64-3.71-28.28-5.69-21.51-4.42-42.83-.46-64,3.95-1.89.39-1.09,3.28.8,2.89Z"/></g></g></svg>