<svg xmlns="http://www.w3.org/2000/svg" viewBox="0 0 382.84 483.21"><defs><style>.cls-1{fill:none;stroke:#000;stroke-miterlimit:10;stroke-width:3px;}.cls-2{fill:#f2dae9;}</style></defs><title>base</title><g id="Calque_2" data-name="Calque 2"><g id="face"><path class="cls-1" d="M42.24,153a6.55,6.55,0,0,1,5-4c3.36-.29,5.61,3.71,7,3s.35-5.32,0-7c-1.44-6.86-.63-14-1-21-.53-10,.78-17.77,2-25,1.34-7.91,3.5-20.74,11-35,6.83-13,14.76-20.82,22-28s17.47-17.13,34-25c6.57-3.12,15.89-7.46,29-9a86.61,86.61,0,0,1,40,5c4.61,1.77,2.79,1.57,21,10,9.43,4.36,12.66,5.69,19,9,7.71,4,11.92,6.23,17,10,4,2.94,11.21,8.31,17,17,2.74,4.11,5.2,11.8,10,27,7,22.13,5.2,20.38,8,26,1.68,3.36,4.38,8.09,5,15,.24,2.63-.05,3,0,9,.08,8.05.17,14.58,2,15,1.39.32,2.05-3.24,6-5,2.37-1.05,5.77-1.41,8,0,2.68,1.69,3.24,5.65,3,13-.33,10.24-2,20.36-5,33-2.23,9.43-2.95,10.73-3,15s.61,7.05-1,11c-.27.66-1.23,2.9-5,7a58.14,58.14,0,0,1-9,8c-10.15,7.35-4,32.93-12,57a77.24,77.24,0,0,1-16,27c-9.82,11.28-21.68,18.34-45,32-9.31,5.46-14,8.18-16,9-30,12.07-70-1.47-94-25-4.61-4.52-17.31-17.23-24-37-.33-1-2.88-12-8-34-.82-3.53-4.11-17.73-8-28-1.18-3.13-1.79-4.75-3-8-2.28-6.12-3.43-9.21-4-11a101.26,101.26,0,0,1-3-13c-1.58-8.31-1.33-9.72-3-18-1.4-7-2-8-2-9a10.8,10.8,0,0,0-.33-1.11c-.79-2.41-2.1-5.37-2.67-6.89C42.15,158.09,41.2,155.53,42.24,153Z"/><path class="cls-1" d="M188.24,201c1.72,2.77,3,5.18,4,7,2.72,5.18,3,6.66,3,8a8.75,8.75,0,0,1-2,6,6.67,6.67,0,0,1-3,2,6.82,6.82,0,0,1-6-1c-1.73-1.31-1.14-2.4-3-4a9.13,9.13,0,0,0-5-2,11.29,11.29,0,0,0-6,1c-1.4.6-2.34,1-3,2-1,1.54-.11,2.6-1,4-1.28,2-4.51,2-5,2a7.79,7.79,0,0,1-5-2c-1.13-1.06-.82-1.49-2-3a11.34,11.34,0,0,0-6-4,8.2,8.2,0,0,0-5,0c-3.35,1.24-3.22,4.43-6,5a5.5,5.5,0,0,1-5-2c-1.55-1.89-1.23-4.35-1-6,1-7.27,7.47-12.95,10-15"/><path class="cls-1" d="M284.24,176c3.13,2,3.81,4.09,4,5,.52,2.4-.57,4.82-2,8-1.32,2.95-2.1,3.55-2,5,.17,2.25,2.27,3.94,4,5"/></g><g id="top"><path class="cls-1" d="M38.24,402c5.67-1.27,13.93-1.17,27-6,5.73-2.12,10.87-4,17-8,11.16-7.25,14.19-14,19-13,4.44.89,5.66,7.34,8,12,11.66,23.21,60.89,21.35,70,21,0,0,34.11-1.29,59-20,3.23-2.43,9.55-7.18,10-14,.31-4.58-2.17-8.09-1-9,1.74-1.34,8.73,5.22,12,8,11.78,10,20.94,9.34,42,16a244.17,244.17,0,0,1,45,20c16.51,9.57,36.62,21.23,35,30-2,11-36.85,11.09-79,15-94,8.72-94,24.16-164,27-22.15.9-126.64,5.14-136-27C-2.67,437.14,17.63,406.66,38.24,402Z"/></g><g id="mouth"><path class="cls-2" d="M138.17,264.54c2.76-.87,5.32-2.25,8-3.38a47.06,47.06,0,0,1,36.39,0,16.54,16.54,0,0,1,4.83,2.89c.25.23.5.59.33.88a.81.81,0,0,1-.42.27c-14.33,5.29-30,8.32-44.91,4.92-2.46-.57-5-1.37-6.74-3.21a146.37,146.37,0,0,1,36.89-2.66"/><path d="M138.57,266c7.57-2.66,14.19-6.23,22.37-6.85a45.18,45.18,0,0,1,12.28.76c1.85.36,10.25,1.88,11.1,3.83,1.12.53,1.11.86,0,1-.86.3-1.74.6-2.61.87q-2.64.85-5.31,1.57a88.44,88.44,0,0,1-14,2.61c-7.57.72-19.51,1.44-25.62-3.88l-.66,2.51a151.94,151.94,0,0,1,36.49-2.61c1.93.09,1.93-2.91,0-3a156,156,0,0,0-37.29,2.71,1.51,1.51,0,0,0-.66,2.51c7.27,6.34,20.65,5.61,29.56,4.56A96.59,96.59,0,0,0,180.69,269c1.94-.59,8.11-1.36,8.5-4.07.78-5.51-15.69-8.16-18.92-8.56a49.27,49.27,0,0,0-15.61.59c-6,1.2-11.16,4.09-16.88,6.11-1.81.64-1,3.53.79,2.89Z"/></g></g></svg>