<?xml version="1.0" encoding="utf-8"?>
<!-- Generator: Adobe Illustrator 23.0.1, SVG Export Plug-In . SVG Version: 6.00 Build 0)  -->
<svg version="1.1" id="Calque_1" xmlns="http://www.w3.org/2000/svg" xmlns:xlink="http://www.w3.org/1999/xlink" x="0px" y="0px"
	 viewBox="0 0 412.8 585.8" style="enable-background:new 0 0 412.8 585.8;" xml:space="preserve">
<style type="text/css">
	.st0{display:none;}
	.st1{display:inline;fill:none;stroke:#000000;stroke-width:3;stroke-miterlimit:10;}
	.st2{fill:none;stroke:#000000;stroke-width:3;stroke-miterlimit:10;}
	.st3{stroke:#000000;stroke-width:3;stroke-miterlimit:10;}
	.st4{fill:#D4145A;stroke:#000000;stroke-width:3;stroke-miterlimit:10;}
	.st5{fill:#E5AE33;}
	.st6{fill:#E8A828;}
	.st7{stroke:#000000;stroke-width:0.75;stroke-miterlimit:10;}
	.st8{fill:none;stroke:#000000;stroke-miterlimit:10;}
	.st9{fill:#F2F2F2;}
	.st10{fill:#F2DAE9;}
	.st11{fill:#FFFFFF;}
	.st12{fill:#1A1A1A;}
	.st13{fill:#754C24;}
	.st14{fill:#FCEE21;}
	.st15{fill:#EFB920;}
	.st16{fill:#D39B0D;}
	.st17{fill:#E52929;}
	.st18{fill:#AAAAAA;}
	.st19{fill:#1E1B89;}
</style>
<title>Fichier 33</title>
<g>
	<g id="entier_face" class="st0">
		<path class="st1" d="M147.6,372.6c2.2-2.3,5-0.7,11-2c6.7-1.5,6.4-4.2,15-8c4.2-1.9,10.9-4.9,19-4c1.4,0.2,0.4,0.1,11,3
			c10.3,2.8,11,2.7,13,4c4.7,3.1,4.9,6.2,9,7c3.3,0.7,4.3-1,7,0c2.3,0.9,2.8,2.7,6,8c4.6,7.6,5.7,7.4,6,10c0.4,3.6-1.3,6.5-4,11
			c-3.1,5.1-5.1,8.4-9,10c-6.7,2.7-15.6-0.8-16-4c-0.2-1.6,1.9-2.1,5-6c1.9-2.4,6-7.5,5-12c-1.2-5.5-9.2-7.9-13-9
			c-4.9-1.4-10-1.7-15-1c-5.5,0.6-5.9,1.8-11,2c-5.5,0.3-6-1-12-1c-5.8,0-9.9,0-13,3s-4.5,8-3,12c1.9,5.2,7.7,5.2,8,9
			c0.2,3.1-3.4,6.8-7,7c-4.6,0.3-7.8-4.9-9-7c-2.3-3.9-1.7-6-3-18C146.6,376.9,145.8,374.6,147.6,372.6z"/>
		<path class="st1" d="M162.6,369.6c1.2,1.2,2.5,2.2,4,3c2.8,1.5,5.8,2.5,9,3c2.3,0.5,4.6,0.8,7,1c10.8,1.3,21.8,0,32-4
			c2.8-1,5.2-2.1,7-3"/>
		<path class="st1" d="M174.6,364.6c1.3,0.5,2.6,0.8,4,1c1.3,0.1,2.7,0.1,4,0c2.3-0.1,4-0.1,7,0c4.9,0.1,6.2,0.7,9,0
			c1-0.2,2-0.6,3-1"/>
		<path class="st1" d="M84.6,251.6c-1.4,2.6,1.9,7.1,1,10c-0.1,0.2-0.2,0.7,0,1c0.5,0.6,2-0.5,3,0c1.6,0.8,1,5,1,5c0-0.3,0-0.7,0-1
			c0.1,0,0.5,2.5,1,5c0,0,0.4,2,1,5c1,4.7,1.8,8.7,4,13c1.2,2.6,2.9,5,5,7c2.1,1.8,4.4,3.1,7,4c3.4,1.3,6.8,1.8,14,2
			c7.3,0.2,14.7-0.2,22-1c7.3-0.8,9.4-1.4,11-2c4.1-1.6,7.8-4,11-7c1.9-1.8,3.5-3.8,5-6c2.9-4,5.2-8.4,7-13c1.7-4,2.5-6.1,3-9
			s0.2-3.8,1-5c2.4-3.6,10.3-4.1,13-1c0.6,0.6,0.4,0.9,2,5c0,0,0.6,1.5,2,5c1.9,5.1,4.6,9.8,8,14c2.9,3.2,6.2,5.9,10,8
			c6.5,3.6,12.2,4.3,18,5c9.8,1.1,16.9-0.1,27-2c8-1.5,11.2-2.8,14-5c3-2.4,5.4-5.5,7-9c2.4-5,3.8-10.4,4-16c0.1-3.7-0.3-11.3,2-13
			c0.8-0.5,1.5-1.2,2-2c0.4-0.6,0.8-1.3,1-2c0.7-1.9,1-4,1-6c0-2.5,0-4-1-5c-0.6-0.5-1.3-0.9-2-1c-6.9-1.3-14-2-21-2
			c-5.3,0-3.8,0-7,0c-11.4,0.1-22.8,1.1-34,3c-8.6,1.5-12.8,2.2-17,4c-3.2,1.6-6.6,2.9-10,4c-2.9,0.9-5.9,1.6-9,2
			c-3.7,0.4-7.3,0.4-11,0c-8.4-0.8-13.1-2-19-3c-7.3-1.2-14.6-1.9-22-2c-7.3-0.3-14.7,0.1-22,1c-17.4,2.3-17.8,6.2-29,8
			C87.5,249.8,85.4,250.1,84.6,251.6z"/>
		<path class="st1" d="M291.6,248.6c2,0.5,4,0.5,6,0c2.4-0.6,3.4-1.6,5-1c1.3,0.5,1.4,1.5,3,2c1,0.4,2,0.4,3,0c1.7-0.7,1.5-2.3,3-3
			s2.9,0.8,4,0c1.3-0.9,1.4-4,0-6c-0.8-1-1.8-1.7-3-2c-4.2-1.6-7.7-1.1-15-1c-1.8,0-3.2,0-4,0"/>
		<path class="st1" d="M170.6,301.6c-1.4,0.9-2.8,1.9-4,3c-1.8,1.6-6.2,5.8-7,12c-0.2,1.8-0.5,4.2,1,6c1,1.2,2.4,1.9,4,2
			c3.1,0,3.5-3.7,7-5c4-1.5,9.8,1,12,5c0.5,0.9,0.8,1.9,1,3"/>
		<path class="st1" d="M194.6,326.6c-0.1-1.4,0.3-2.8,1-4c1.3-2,3.4-2.6,5-3c2-0.5,4-0.5,6,0c1.6,0.4,3,0.7,4,2c0.6,0.9,1,1.9,1,3"
			/>
		<path class="st1" d="M218.6,326.6c2-1.5,3.4-3.6,4-6c0.6-2.8-0.3-5-2-9c-1.3-3.2-3-6.2-5-9"/>
		<path class="st1" d="M200.6,242.6c5-7.8,10.5-11.3,14-13c2.6-1.2,3.1-1,21-4c8.8-1.4,11.8-2,17-2c8,0.1,11.9,1.5,13,2
			c3.8,1.6,7.2,4,10,7"/>
		<path class="st1" d="M172.6,243.6c-3.1-3.1-6.9-5.5-11-7c-2.7-0.9-4.6-1.2-15-2c-8.8-0.7-13.2-1-15-1c-8,0.1-12.8,0.2-18,3
			c-3.1,1.7-5.9,4.1-8,7"/>
		<path class="st1" d="M311.6,277.6c4.1,3.4,5,6.1,5,8c0.1,4.6-4.5,6.9-4,11c0.4,2.9,3,4.8,5,6"/>
		<path class="st1" d="M317.6,267.6c2.5-6.1,5.9-11.9,10-17c2.8-3.5,4.1-4.3,5-4c1.9,0.7,1.6,6.6,1,12"/>
		<path class="st1" d="M86.6,273.6c-0.7,3-0.7,6,0,9c1.1,4.4,3.2,4.9,4,9c0.6,2.7-0.2,3.2-1,11c-0.7,6.4-0.5,9-1,9s-1.6-2.7-4-16"/>
		<path class="st1" d="M96.6,258.6c-2,4.5-1.4,8.6-1,12c0.4,3.2,1.3,5.5,3,10c2.4,6.5,3.7,9.7,6,12c3.1,3.1,6.7,3.9,12,5
			c10.5,2.2,19,0.7,28-1c6.4-1.2,9.7-1.8,13-4c5.3-3.5,8.2-8.7,10-12c1.7-3.2,3-6.5,4-10c1.7-5.3,2.6-8.1,2-11c-0.8-3.1-2.5-5.9-5-8
			c-3.6-3.2-7.8-3.8-16-5c-4.6-0.6-9.3-0.9-14-1c-1.3,0-6.3-0.2-13,0c-5.9,0.2-8.9,0.3-12,1c-3.6,0.6-7,2-10,4
			C100.6,252.6,98.1,255.4,96.6,258.6z"/>
		<path class="st1" d="M203.6,252.6c1.4-2.7,3.7-4,8-6c6.6-3.1,9.9-4.6,15-6c8.8-2.3,17.9-3.3,27-3c6.1,0.2,12.2,1.2,18,3
			c2.8,0.9,5.1,1.8,7,4c2,2.4,2.4,5,3,9c0.5,4,0.5,8,0,12c-0.6,4.9-1,8.1-3,12c-1.8,3.7-4.5,6.8-8,9c-1.1,0.7-2.9,1.6-10,3
			c-4.3,1-8.6,1.7-13,2c-4.9,0.3-20.6,1.2-31-7c-2.2-1.8-4.2-3.8-6-6c-2-2.5-3.7-5.1-5-8c-1.6-3.1-2.7-6.5-3-10
			C202.4,258,202.2,255.3,203.6,252.6z"/>
	</g>
	<g id="face">
		<path class="st2" d="M70.6,255.6c0.9-2.1,2.7-3.6,5-4c3.4-0.3,5.6,3.7,7,3s0.3-5.3,0-7c-1.4-6.9-0.6-14-1-21
			c-0.5-10,0.8-17.8,2-25c1.3-7.9,3.5-20.7,11-35c6.8-13,14.8-20.8,22-28s17.5-17.1,34-25c6.6-3.1,15.9-7.5,29-9
			c13.5-1.5,27.2,0.2,40,5c4.6,1.8,2.8,1.6,21,10c9.4,4.4,12.7,5.7,19,9c7.7,4,11.9,6.2,17,10c4,3,11.2,8.3,17,17
			c2.7,4.1,5.2,11.8,10,27c7,22.1,5.2,20.4,8,26c1.7,3.4,4.4,8.1,5,15c0.2,2.6,0,3,0,9c0.1,8.1,0.2,14.6,2,15c1.4,0.3,2-3.2,6-5
			c2.4-1,5.8-1.4,8,0c2.7,1.7,3.2,5.6,3,13c-0.3,10.2-2,20.4-5,33c-2.2,9.4-3,10.7-3,15s0.6,7.1-1,11c-0.3,0.7-1.2,2.9-5,7
			c-2.7,3-5.7,5.7-9,8c-10.2,7.4-4,32.9-12,57c-3.4,10-8.9,19.2-16,27c-9.8,11.3-21.7,18.4-45,32c-9.3,5.5-14,8.2-16,9
			c-30,12.1-70-1.5-94-25c-4.6-4.5-17.3-17.2-24-37c-0.3-1-2.9-12-8-34c-0.8-3.5-4.1-17.7-8-28c-1.2-3.1-1.8-4.8-3-8
			c-2.3-6.1-3.4-9.2-4-11c-1.3-4.3-2.3-8.6-3-13c-1.6-8.3-1.3-9.7-3-18c-1.4-7-2-8-2-9c-0.1-0.4-0.2-0.7-0.3-1.1
			c-0.8-2.4-2.1-5.4-2.7-6.9C70.5,260.7,69.6,258.1,70.6,255.6z"/>
		<path class="st2" d="M216.6,303.6c1.7,2.8,3,5.2,4,7c2.7,5.2,3,6.7,3,8c0.1,2.2-0.6,4.3-2,6c-0.8,0.9-1.8,1.6-3,2
			c-2,0.6-4.3,0.3-6-1c-1.7-1.3-1.1-2.4-3-4c-1.4-1.1-3.2-1.8-5-2c-2.1-0.2-4.1,0.1-6,1c-1.4,0.6-2.3,1-3,2c-1,1.5-0.1,2.6-1,4
			c-1.3,2-4.5,2-5,2c-1.9-0.1-3.6-0.8-5-2c-1.1-1.1-0.8-1.5-2-3c-1.5-1.9-3.6-3.3-6-4c-1.6-0.5-3.4-0.5-5,0c-3.4,1.2-3.2,4.4-6,5
			c-1.9,0.3-3.8-0.5-5-2c-1.6-1.9-1.2-4.4-1-6c1-7.3,7.5-12.9,10-15"/>
		<path class="st2" d="M312.6,278.6c3.1,2,3.8,4.1,4,5c0.5,2.4-0.6,4.8-2,8c-1.3,3-2.1,3.5-2,5c0.2,2.3,2.3,3.9,4,5"/>
	</g>
	<g id="glasses">
		<path class="st3" d="M88.6,262.6c3.4,4.2,1.9,7.6,3,16c0.1,1,1.5,10.6,8,17c4.7,4.6,10.3,5.8,16,7c7.2,1.5,13.8,0.7,27-1
			c9.9-1.2,13.1-2.3,16-4c4.8-2.7,7.6-6.1,10-9c3.3-4,9.5-11.5,11-22c0.4-3.1,0.3-5.1,2-7c3.1-3.4,10.1-3.9,13-1
			c0.8,0.8,0.6,1.2,2,5c1.1,3.1,2.5,6.1,4,9c1.2,2.4,2.5,4.8,4,7c2,2.9,4.4,5.6,7,8c8.1,7.3,22.1,8.5,28,9c1.7,0.1,16.7,1.3,30-4
			c3-1.1,5.7-2.8,8-5c3-3,4.2-6.2,6-11s3-7.8,3-12c0.1-5.4-1.7-7.5,0-11c1.2-2.4,2.2-1.8,4-5c1.6-2.7,2.3-5.9,2-9
			c-0.2-1.9-0.3-2.9-1-4c-1.4-2-4-2.8-15-3c-6-0.1-8,0-8,0c-18.4,1-16.6,0.1-27,1c-11.4,1-18,1.6-25,4c-8,2.8-11,4-11,4
			c-4.2,1.7-5.3,2.3-8,3c-1,0.3-3.3,0.8-10,1c-5.7,0.2-8.6,0.3-11,0c-6.2-0.8-6.8-2.5-15-4c-2.6-0.5-5.3-0.8-8-1
			c-3.7-0.3-7.3-0.3-11,0c-16.6,1-16.1-0.2-25,1c-9.4,1.3-14.1,2-17,4c-2.1,1.5-5.4,4.6-9,4c-1.3-0.3-2.7-0.3-4,0
			c-1.2,0.2-2.3,1-3,2c-0.5,1-0.6,2.2,0,4C85.4,258.2,86.8,260.6,88.6,262.6z"/>
		<path class="st3" d="M96.6,258.6c-1.3,2.1-1.9,4.5-2,7c0,1.7,0.4,3.4,1,5c2.2,7,1.6,7.1,3,11s3.5,9.4,8,13c3.7,3,7.5,3.3,15,4
			c10.5,1,17.9-0.7,28-3c3.9-0.9,6.9-1.8,10-4c2.9-2.1,5.3-4.9,7-8c0.6-1,1.4-3,3-7c1.1-2.6,2.1-5.3,3-8c0.7-2.8,1.6-6,1-9
			c-1.1-6.2-7.6-9.7-10-11c-4.6-2.5-8.7-3.1-24-3c-21.7,0.1-27.5,1.2-33,4C103.8,251.1,99.3,253.8,96.6,258.6z"/>
		<path class="st3" d="M253.6,237.6c-6-0.2-12,0.1-18,1c-8.7,1.4-28.3,4.5-32,15c-0.7,1.9-1,4-1,6c0,4.5,1.5,7.9,3,11
			c1.3,2.9,3,5.6,5,8c6.9,8.3,16.1,11.1,19,12c7.2,2.1,12.8,1.6,20,1c9.5-0.8,15-3.1,17-4c5.8-2.6,8.3-5.3,9-6c2.3-2.6,4-5.7,5-9
			c1.4-4.4,1.3-7.8,1-14s-0.4-9.5-2-12c-2.6-4.1-6.9-5.6-11-7C266.4,238.9,262.6,237.8,253.6,237.6z"/>
		<path class="st2" d="M293.6,237.6c5.7-0.2,10.4-0.1,14,0c3.2,0.1,5.5,0.3,7,2s2.1,4.8,1,6c-0.6,0.6-1.2,0.2-3,1
			c-1.1,0.6-2.1,1.2-3,2c-2.5,1.8-2.5,2-3,2c-1.6,0.1-2.5-1.9-4-3s-4.7-1.8-11,1"/>
	</g>
	<g id="E.J">
		<path class="st4" d="M73.6,245.6c-4,2.1-3.5,11.7-2,18c4.3,17.8,21.1,27.8,28,32c4.3,2.6,9,5.5,16,7c7.2,1.5,13.8,0.7,27-1
			c9.9-1.2,13.1-2.3,16-4c4.8-2.7,7.6-6.1,10-9c3.3-4,9.5-11.5,11-22c0.4-3.1,0.3-5.1,2-7c3.1-3.4,10.1-3.9,13-1
			c0.8,0.8,0.6,1.2,2,5c1.1,3.1,2.5,6.1,4,9c1.2,2.4,2.5,4.8,4,7c2,2.9,4.4,5.6,7,8c8.1,7.3,22.1,8.5,28,9c1.7,0.1,16.7,1.3,30-4
			c3.2-1.3,5.8-3.5,8-5c5.5-3.7,10.6-8.1,15-13c7.7-8.7,11.1-17,14-24c2.6-6.5,6.9-16.9,4-19c-2.6-1.8-7.4,5.2-17,6
			c-8.9,0.8-16-4.2-17-5c-11.6-8.5-12.4-25.3-14-25c-0.9,0.2,0,4.9-1,12c-0.3,2.3-2,14.3-6,15c-4.9,0.9-11.4-15.5-12-17
			c-2.2-8.3-3.4-10.1-4-10c-1.1,0.2-0.4,6-2,14c-0.4,1.9-3.1,15.8-7,16c-5.5,0.3-10.3-26.5-14-26s-0.8,26-11,30l0,0
			c-4.2,1.7-5.3,2.3-8,3c-1,0.3-3.3,0.8-10,1c-5.7,0.2-8.6,0.3-11,0c-1-0.1-2.9-0.7-6.8-1.7c-5.1-1.4-5.8-1.7-8.2-2.3
			c-5-1.1-6.2-0.4-8-1c-8.7-2.7-7.8-24.8-11-25c-3.5-0.3-6.6,25.4-11.2,25.4c-4.4,0-7.7-23.7-9.8-23.4s0.5,22.8-4,24
			s-13.2-19.1-16-18c-1.8,0.7,2.1,9-2,18c-0.7,1.6-3.2,6.5-8,8C84,252,78,243.4,73.6,245.6z"/>
	</g>
	<g id="Calque_26">
		<path class="st5" d="M152.9,341.4c19.7-4.1,40.1-8.2,59.9-4.6c4.5,0.8,8.9,2,13.4,2.4c5,0.4,10.4-0.1,14.9,2c2.1,1,3.9,2.5,6,3.4
			c6.5,2.7,13.8-0.9,20.3-3.7c9.9-4.2,20.5-6.5,31.2-6.7c1.3-0.2,2.6,0.1,3.7,0.8c0.6,0.5,1.1,1.2,1.4,1.9
			c5.5,11.1,5.4,24.3,1.8,36.1s-10.6,22.5-18.4,32.3c-14.3,18-31.4,33.6-50.7,46.1c-5.1,3.3-10.4,6.5-16.4,8.2
			c-6.2,1.8-12.8,2-19.3,2c-21.4,0.1-43.9-1.9-61.8-13.2c-12.6-8-21.7-20-28.8-32.8c-5-9-9.2-18.5-12.6-28.3
			c-2.6-7.5-4.7-15.2-4.7-23.1c0-10.4,3.2-22.3-4-30.1c21.6-6.3,44.7-3.9,64.5,6.7"/>
		<path d="M153.3,342.9c18.7-3.9,38.1-8,57.2-4.9c7.6,1.2,14.8,2.5,22.4,3.1c8.1,0.6,13.6,7.1,22,5.9c7.9-1.2,15.1-5.9,22.8-8
			c4.5-1.3,9-2.2,13.6-2.6c2.1-0.4,4.2-0.5,6.2-0.4c4.3,0.5,5.5,3.3,6.7,7c5.5,17-0.5,34.8-9.7,49.3c-9,14.3-20.8,27.1-33.4,38.4
			c-6.3,5.7-13,10.9-20,15.8c-7,4.9-14.3,9.9-22.6,12.2c-8.5,2.3-17.8,1.9-26.6,1.6c-8.7-0.1-17.3-1-25.8-2.7
			c-16.6-3.4-31.1-11.1-42.3-24c-12.8-14.8-21.6-33.9-27-52.5c-2.8-9.5-2.6-18.3-2.1-28.1c0.4-7.2-0.2-14-5-19.7l-0.7,2.5
			c21.2-6.1,43.9-3.8,63.4,6.5c1.7,0.9,3.2-1.7,1.5-2.6c-20.2-10.7-43.7-13.2-65.7-6.8c-0.8,0.2-1.3,1.1-1,1.9
			c0.1,0.2,0.2,0.4,0.4,0.6c6.2,7.3,4,17.3,3.6,26c-0.4,9.2,1.7,17.9,4.7,26.5c5.7,16.6,13.5,33,24.8,46.5
			c11,13.2,25.5,21.7,42.2,25.5c16.1,3.7,34.8,5,51.2,2.6c16.8-2.5,31.9-15.2,44.5-25.9c13.7-11.4,25.8-24.7,36-39.4
			c9.5-13.9,16.4-30.4,14.1-47.5c-0.6-4.6-2.1-14.9-7.5-16.7c-3.5-1.2-8.4-0.1-11.9,0.4c-4.3,0.5-8.5,1.4-12.6,2.6
			c-10.5,3-21.4,11.6-32.2,5.8c-8.8-4.8-18.6-3.7-28.3-5.7c-21.5-4.4-42.8-0.5-64,3.9C150.7,340.4,151.5,343.3,153.3,342.9
			L153.3,342.9z"/>
	</g>
	<g id="Gros_bouc">
		<path class="st6" d="M149,399.9c0.2-5.6,1.9-11,3.6-16.4l1.3-3.9c1.1-3.6,2.3-7.2,4.5-10.3c2-2.6,4.5-4.9,7.3-6.6
			c9.2-6.1,20.1-9.3,31.1-9.1c5.7,0.1,11.7,1.2,16.3,4.7c4.3,3.3,7,8.3,9.5,13.1c3.8,7.4,7.7,14.8,9.9,22.8c1.7-2.3,6.3,0,5.4,2.8
			l4.6-13.5c1-2.8,1.9-5.7,1.6-8.7s-1.9-5.5-3.4-8.1c-4.3-7-8.7-14.3-15.4-19.1c-7.5-5.4-16.9-7.1-25.9-8.7c-1.5-0.3-3-0.4-4.4-0.2
			c-2,0.4-3.7,1.8-5.7,2.2c-2.8,0.7-5.7-0.5-8.6-1c-5.3-0.9-10.7,0.8-15.4,3.3c-6.6,3.5-12.2,8.5-16.3,14.7
			c-7.8,11.5-9.8,25.9-11.2,39.7c-0.1,1.3-0.2,2.9,0.8,3.8c0.8,0.6,1.7,0.8,2.7,0.8l5.8,0.4"/>
		<path d="M150.5,399.9c0.3-5.8,2-11.2,3.8-16.6c1.6-4.9,2.8-10.2,6.2-14.2c6.8-8.2,19.1-12.5,29.4-13.7
			c10.9-1.2,21.4,0.6,27.8,10.2c5.8,8.9,10.4,18.7,13.4,28.9c0.2,0.8,1.1,1.3,1.9,1c0.2-0.1,0.5-0.2,0.6-0.4l2.8,1.7
			c-0.2,1.8,2.4,1.9,2.9,0.4c2.2-6.6,6.5-14.6,6.3-21.7c-0.2-6.3-5.1-12.4-8.5-17.4c-3.7-5.4-8-10.4-13.8-13.7
			c-6-3.5-12.8-5.1-19.6-6.3c-2.8-0.5-6-1.5-8.8-1c-0.8,0.2-1.5,0.4-2.2,0.6c-3.4,1.1-5.5,1.9-9,1.2c-6.6-1.4-13.4-0.4-19.2,2.9
			c-11.8,6.2-19.7,17.2-23.7,29.8c-2.4,7.6-3.5,15.5-4.4,23.4c-0.2,2.3-1,5.5,1,7.3c2.2,2.1,6.9,1.5,9.5,1.6c1.9,0.1,1.9-2.9,0-3
			c-2.8-0.2-5.1,0.4-6.8-1.9c-1.4-1.9-0.8-3.4-0.6-5.7c0.5-4,1-8.1,1.8-12.1c1.2-7,3.6-13.7,7-19.9c3.9-6.7,9.4-12.3,16.1-16.2
			c3.8-2.2,8.1-4,12.5-4.1c3.8-0.1,7.4,1.8,11.2,1.4s6.5-2.8,10.5-2.2c3.2,0.5,6.5,1.1,9.6,1.9c7.5,1.8,14.5,4.6,20,10.1
			c5.1,5.3,9.3,11.4,12.5,18.1c3.8,7.8-2.1,18.4-4.7,26l3,0.4c0.4-4.4-4.8-6.6-7.9-3.8l2.5,0.7c-1.9-6.1-4.3-12-7.2-17.6
			c-2.6-5.1-5-10.5-8.6-15c-7.2-9-19.3-10-30-8.6c-10.5,1.5-22.7,6.1-29.8,14.4c-3.3,3.9-4.8,8.8-6.3,13.5
			c-2.1,6.4-4.1,12.7-4.5,19.4C147.4,401.8,150.4,401.8,150.5,399.9L150.5,399.9z"/>
		<path class="st6" d="M140,411.2l14.6,0.1c1.8,0,3.7,0,5-1.2c1-1,1.3-2.4,2.3-3.5c3.4-3.6,11.2,1.2,13.9-2.9c0.7-1,0.8-2.5,1.8-3.3
			c1.6-1.3,4.2,0.2,6.1-0.5s2.2-3.1,2.6-5.1s1.9-4.2,3.8-3.8c1.6,0.4,2.1,2.4,2.7,3.9c1.8,4.6,6.5,7.3,10.9,9.6
			c1.7,1,3.5,1.7,5.4,1.9c1.5,0,3-0.2,4.5-0.5c4.8-0.6,9.6,0.9,14.5,1.5s10.4,0,13.4-3.9c1.6-2.1,3.3-5.4,5.8-4.4
			c1.1,0.6,1.8,1.6,2.2,2.7c7.8,18.9,8.6,39.9,2.3,59.2c-0.2,0.8-0.6,1.6-1.3,2.1c-0.8,0.4-1.8,0.5-2.7,0.5c-3.9,0.3-6.6,4-8.9,7.1
			c-5.3,7.1-12.3,13.5-20.9,15.4c-3.4,0.6-6.9,0.9-10.4,0.8l-10.6,0.1c-5.5,0.1-11.1,0.1-16.1-2.1c-6-2.6-10.3-8.2-16.3-10.8
			c-5.5-2.4-13.2-3.5-14.3-9.4c-0.4-2.1,0.3-4.4-0.4-6.4c-1.1-3.3-5.2-4.4-7.5-7c-5.1-5.7,0.2-15-2.3-22.2c-0.7-1.9-1.9-3.6-2.5-5.6
			c-1.3-3.9,0-8.2,1.3-12.1"/>
		<path d="M140,412.7l11,0.1c2.5,0,5.6,0.5,7.9-0.6c1.5-0.7,1.8-1.3,2.8-2.5c3.3-3.8,5.3-2.7,9.6-2.7c1.4,0.1,2.9-0.3,4.1-1
			c1.8-1.2,2.2-3.9,4.4-4.6c2-0.6,3.6,0.7,5.5-0.9c1.4-1.2,1.4-2.6,2.1-4.1c1.2-2.6,2.3-4.5,3.9-1c0.4,1,0.9,2,1.5,2.9
			c1.3,1.8,2.9,3.3,4.8,4.5c3.9,2.7,8.4,5.4,13.3,5.1c3.7-0.4,7.5-0.4,11.2,0.1c2.8,0.6,5.6,1,8.5,1.2c4.5,0.1,8.7-1.1,11.8-4.5
			c0.7-0.8,1.4-2.4,2.2-2.9c3.4-2.2,3.8,1.8,4.5,3.8c1,2.7,1.9,5.5,2.6,8.2c2,7.7,2.8,15.7,2.6,23.6c-0.2,6.8-1.2,13.5-3.1,20.1
			c-0.7,2.6-0.6,3.6-3.5,4.8c-0.9,0.4-1.9,0.3-2.8,0.7c-1.8,0.9-3.4,2.1-4.6,3.7c-3.7,4.2-6.7,8.8-11.1,12.3
			c-7,5.7-14.7,6.6-23.4,6.7c-6.5,0.1-13.4,0.8-19.9-0.5c-6.8-1.4-11.1-6.2-16.7-9.9c-4.6-3.1-12-3.6-15.8-7.6
			c-2.8-2.9-0.9-6.5-2.2-9.9c-0.8-1.9-2.2-3.1-3.9-4.3c-4-3.1-5.9-5.2-5.7-10.5c0.1-2.8,0.6-5.6,0.7-8.4c0-2.6-0.5-5.2-1.5-7.5
			c-1-2.4-2.2-4.1-2.2-6.8s0.9-5.6,1.8-8.3c0.6-1.8-2.3-2.6-2.9-0.8c-1,3.2-2.1,6.5-1.8,9.9s2.2,6,3.2,9.2
			c1.7,5.8-1.3,11.8,0.1,17.6c0.5,2.1,1.7,4.1,3.3,5.5c0.8,0.7,1.6,1.2,2.5,1.8c3.1,2.3,3.6,4.3,3.9,8c0.4,4.6,2.8,7.2,6.9,9.1
			c2.2,1,4.6,1.7,6.9,2.6c3.9,1.6,7.1,4.1,10.4,6.7c4.9,3.8,9.7,6.2,15.9,6.8c7.3,0.7,14.9,0.3,22.3,0c6.5-0.1,12.8-2.1,18.1-5.8
			c5.5-3.9,8.9-9.1,13.2-14c1.2-1.5,2.7-2.7,4.5-3.3c1.3-0.4,2.7,0,3.9-0.7c1.8-1,2.3-2.9,2.9-4.8c4.2-13.9,4.9-28.5,1.9-42.7
			c-0.7-3.7-1.7-7.3-2.9-10.8c-0.8-2.3-1.6-5.8-3.4-7.6c-3.2-3-6.1,0.1-8,2.6c-5.7,7.3-14.1,4.1-22,3.2c-3.6-0.4-7.6,1-11.2,0.3
			s-8.3-3.8-10.9-6.2s-4.6-12-9.9-8.3c-2,1.3-1.8,3.4-2.7,5.3c-2,4-5.1,1.5-7.9,3.7c-1.2,1-1.5,2.5-2.7,3.6c-1.6,1.4-2.9,1.2-5,1
			c-2.2-0.1-4.6-0.5-6.7,0.6c-0.9,0.5-1.6,1.2-2.2,2c-1.6,2.1-2.8,3.1-5.6,3.4c-4.7,0.6-9.9-0.1-14.6-0.1c-0.8,0-1.5,0.7-1.5,1.5
			S139.2,412.7,140,412.7L140,412.7z"/>
	</g>
	<g id="Rouflaquettes">
		<path class="st6" d="M300.9,326.1l7.2,3.4c0.7,0.2,1.4,0.8,1.8,1.4c0.2,0.7,0.2,1.5,0,2.2c-1.1,5.2-2.2,10.5-2.9,15.8
			c-1.6,11.5-1.3,23.3-3.8,34.6s-8.2,22.6-18,27.2c-0.5,0.3-1.1,0.4-1.8,0.3c-1-0.3-1.4-1.5-1.7-2.5c-1.5-5.3-2.7-10.7-3.5-16.2
			c-0.3-1.6-0.3-3.3,0-4.9c0.6-2.3,2.2-4,3.6-5.8c9.6-12.1,10.3-29.6,15.8-44.5c1.4-3.8,3.2-7.8,2.3-11.7"/>
		<path d="M300.1,327.4c1.9,0.9,5.8,1.9,7.2,3.4c1.6,1.7,0.7,3.5,0.3,5.5c-0.8,4.1-1.6,8.2-2.2,12.3c-1,7.4-1.3,14.9-2,22.3
			c-0.8,8-2,16.1-5.4,23.4c-1.6,3.5-11.2,19-15.2,13c-1.8-2.7-2.1-8.5-2.6-11.7c-1-5.8-0.7-8.4,2.9-13.2c3.7-5.2,6.5-10.9,8.3-17
			c2.1-6.7,3.4-13.5,5.3-20.3s5.7-13.1,4.7-20.1c-0.3-1.9-3.2-1.1-2.9,0.8c0.6,4.4-1.4,8.4-2.8,12.4c-1.2,3.5-2.2,7.2-3.1,10.8
			c-1.7,6.7-3.1,13.5-5.6,20c-1.2,3.3-2.8,6.4-4.7,9.3c-1.6,2.4-4,4.6-5.1,7.3c-2.2,5.7,0.6,14.1,2.1,19.7c0.8,3.2,1.5,8,5.9,6.9
			c4.6-1.2,8.8-5.9,11.4-9.5c8.1-11.1,9.5-25.1,10.5-38.4c0.6-9.2,1.8-18.4,3.6-27.4c0.4-2,1.6-4.9,0.6-6.9
			c-1.4-2.9-6.9-4.1-9.5-5.3C299.9,324,298.3,326.6,300.1,327.4L300.1,327.4z"/>
		<path class="st6" d="M87.6,324.7l6.5-6.6c0,7.1,1.4,14.2,4.4,20.7c2.2,4.7,5.1,9,6.8,14s2.3,10.2,4.3,14.9
			c3.7,8.6,12.3,14.8,13,24.4c0.1,1.1,0.1,2.2,0,3.3c-0.5,5.8-2.8,11.3-6.7,15.7c-14.5-15.9-21.7-38.2-28.4-59.8
			c-2.8-8.8-5.5-18.7-2.1-27.2"/>
		<path d="M88.7,325.8l6.5-6.6l-2.6-1.1c0,8,1.9,15.8,5.3,23c2.2,4.5,4.9,8.8,6.5,13.7c1.2,3.8,1.8,7.9,3.1,11.6
			c2.4,6.5,7.3,11.4,10.7,17.3c5,8.6,2.8,18.9-3.4,26.3h2.2c-10.2-11.4-16.6-25.4-21.7-39.7c-2.5-7-4.8-14-6.9-21.1
			c-2.5-8.1-4.5-16.5-1.6-24.8c0.7-1.8-2.2-2.6-2.9-0.8c-2.7,7.6-1.5,15.4,0.6,23c2.3,8.2,5,16.4,7.9,24.5
			c5.3,14.8,11.9,29.2,22.4,41c0.6,0.6,1.5,0.6,2.1,0c4.8-5.7,7.8-13.2,7.1-20.8c-0.8-7.2-5.7-12.6-9.6-18.4
			c-5.1-7.4-5.4-16.2-9.1-24.2c-2.2-4.9-5.2-9.4-7-14.5c-1.8-5.2-2.7-10.7-2.7-16.2c0-0.8-0.7-1.5-1.6-1.5c-0.4,0-0.7,0.2-1,0.4
			l-6.5,6.6c-0.6,0.6-0.6,1.5,0,2.1C87.2,326.3,88.1,326.3,88.7,325.8L88.7,325.8L88.7,325.8z"/>
	</g>
	<g id="Lunette_rondes">
		<circle class="st3" cx="233.6" cy="271.6" r="35"/>
		<circle class="st3" cx="147.6" cy="271.6" r="35"/>
		<path class="st7" d="M203.6,266.6c-9.5-3-19.7-2.6-29,1"/>
		<path class="st8" d="M260.6,259.6c7.9-5.3,22.6-13.5,42-14c4.7-0.1,9.4,0.2,14,1"/>
		<path class="st8" d="M114.6,259.6c-5-3.6-10.9-6-17-7c-4-0.6-8-0.6-12,0"/>
	</g>
	<g id="top">
		<path class="st2" d="M66.6,504.6c5.7-1.3,13.9-1.2,27-6c5.7-2.1,10.9-4,17-8c11.2-7.2,14.2-14,19-13c4.4,0.9,5.7,7.4,8,12
			c11.7,23.2,60.9,21.4,70,21c0,0,34.1-1.3,59-20c3.2-2.4,9.5-7.2,10-14c0.3-4.6-2.2-8.1-1-9c1.7-1.3,8.7,5.2,12,8
			c11.8,10,20.9,9.3,42,16c15.6,5.1,30.7,11.8,45,20c16.5,9.6,36.6,21.2,35,30c-2,11-36.9,11.1-79,15c-94,8.7-94,24.2-164,27
			c-22.1,0.9-126.6,5.2-136-27C25.7,539.8,46,509.3,66.6,504.6z"/>
	</g>
	<g id="Calque_17">
		<path class="st6" d="M128,145.5c4.6,12,18.1,18.3,30.8,20.1s25.9,0.4,38.5,3.1c8.7,1.8,17.2,5.6,26.1,4.9c6-0.4,11.9-2.8,17.8-1.8
			c6.4,1,11.5,5.6,16.3,10l31.9,29.8c2.4,2.4,5.1,4.6,7.8,6.6c2.8,1.9,5.8,3.3,8.2,5.6c1.9,2.1,3.5,4.5,4.7,7.2l8,15.4
			c2.7-31.1-2.6-62.5-15.4-91c-1.7-3.8-4.2-8-8.3-8.5c-1.7-0.2-3.6,0.2-5-0.8c-1.8-1.3-1.6-4-2.1-6.2c-0.9-3.5-4-5.9-7-8
			c-15.8-10.9-32.6-20.3-50.1-28.2c-10.4-4.7-21.4-9-32.9-9.2c-4.7,0-9.4,0.4-14,1.3c-18.6,3.2-36.6,9.1-53.4,17.8
			c-4.3,2.2-8.8,4.9-10.9,9.3c-3.6,7.9,2.2,16.7,7.7,23.5c-4-1.2-7.3-4.1-9.1-7.8c-2.2,5.5-1.1,11.9,2.8,16.4
			c1.5,1.7,3.3,3.1,4.3,5.1c2.2,4.8-1.5,10-4.7,14.1c-9.7,12.1-17.3,25.7-24.9,39.3c-2.9,5.2-5.9,10.5-7.6,16.3
			c-2.3,7.9-2.6,17.6-9.3,22.4c-5.8-19.7-7.7-40.3-5.6-60.7c0.7-6.4,1.8-13,5.2-18.4c2.7-4.3,6.7-7.7,9.7-11.9
			c5.5-7.8,7-17.9,12.8-25.5c2-2.6,4.5-4.9,7.7-5.4s6.9,1.4,7.4,4.6l-1.1-5.5"/>
		<path d="M126.6,145.9c11.4,27.4,46.5,19.6,69.4,24c7.1,1.4,14,4.1,21.2,5c8.4,1,17-3.4,25.1-1.4s14.1,9.4,19.8,14.8l18.9,17.6
			c6.1,5.9,12.7,11.3,19.6,16.2c8.1,5.4,11.8,16.6,16.1,25c0.7,1.4,2.7,0.6,2.8-0.8c2-24-0.6-48.3-7.8-71.3
			c-1.7-5.4-3.7-10.8-5.9-16c-1.7-4-3.3-8.9-6.8-11.7c-1.3-1-2.7-1.6-4.2-2c-0.5-0.2-1.2,0.1-1.7-0.1c-5-1.9-3.5-2.6-4.4-5.8
			c-1-3.6-3.7-5.9-6.5-8.1c-10-7.4-21.1-13.7-32-19.6c-10.6-5.7-21.6-11.2-33-15c-22.4-7.5-46.2-1.4-67.6,6.6
			c-6.1,2.3-12.1,4.8-17.9,7.7c-4.4,2.2-9.3,4.5-12.3,8.6c-6.9,9.3,0.4,20.2,6.4,27.7l1.5-2.5c-3.5-1.2-6.5-3.8-8.2-7.1
			c-0.4-0.7-1.4-0.9-2.1-0.5c-0.3,0.2-0.5,0.5-0.6,0.8c-1.5,3.9-1.5,8.2-0.2,12.2c1.6,4.4,7.5,8,7.8,12.6c0.4,5.6-5.9,11.2-9,15.4
			c-3.5,4.8-6.8,9.8-9.9,14.9c-6,9.8-12.4,20-17,30.6c-3.7,8.7-2.9,20.9-10.8,27.2l2.5,0.7c-3.4-11.5-5.4-23.3-6.2-35.2
			c-0.7-11.4-0.8-23.9,2.3-35c2.9-10.5,12.3-16.8,16.8-26.5c2-4.3,3.5-8.9,5.7-13.2c1.2-2.6,2.9-5.1,4.9-7.2c2.8-2.8,9.2-5,10.8,0.6
			c0.2,0.8,1.1,1.2,1.9,1c0.8-0.2,1.2-1,1-1.8l-1.1-5.5c-0.4-1.9-3.3-1.1-2.9,0.8l1.1,5.5l2.9-0.8c-1-3.6-4.5-6-8.2-5.7
			c-4.6,0.2-8.1,3.9-10.5,7.5c-3.6,5.3-5.4,11.5-8.1,17.3c-3,6.5-7.8,11.1-12,16.7c-7.7,10.4-7.7,25.6-7.7,38
			c0.1,15,2.3,30,6.5,44.4c0.2,0.8,1.1,1.3,1.9,1c0.2-0.1,0.4-0.2,0.6-0.4c7.5-6.1,7.3-16.4,10.2-24.9c3.9-11.8,11.6-23.1,18.1-33.6
			c3.1-5.1,6.4-10.1,9.9-14.9c3.1-4.2,7.4-8.4,8.9-13.6c1-3.3,0.2-6.9-2.1-9.5c-4.7-5.5-7.8-10.3-5.2-17.8l-2.7,0.4
			c2.1,4,5.7,7.1,10,8.5c1.6,0.6,2.3-1.5,1.5-2.5c-3.5-4.4-7.3-9.3-8.2-15c-1.1-6.9,3.5-11.3,9.1-14.4c9.6-5.2,19.7-9.5,30.1-12.7
			c10.2-3.4,20.7-5.7,31.4-6.9c11.2-1.1,21.7,1.4,32,5.6c20.2,8.2,39.4,18.7,57.2,31.3c2,1.4,4.1,2.9,5.4,5s0.8,4.2,1.7,6.3
			c1.1,2.9,2.9,3.3,5.8,3.7c6.7,1,8.6,6.8,10.9,12.4c2.1,5,3.9,10,5.5,15.2c7.1,22.8,9.7,46.7,7.7,70.5l2.8-0.8
			c-3.6-7-6.7-15.1-11.6-21.3c-4.2-5.3-11.2-8-16.2-12.6c-12.3-11.3-24.1-23.4-36.8-34.3c-4.2-3.6-8.9-6.7-14.6-7.3
			c-8-0.8-15.6,2.8-23.7,1.6c-7.9-1.1-15.4-4.2-23.4-5.3c-7.4-1.1-14.9-1.1-22.4-1.4c-15.3-0.6-34.6-3.9-41.3-20
			C128.7,143.3,125.8,144.1,126.6,145.9L126.6,145.9z"/>
	</g>
	<g id="beard">
		<path class="st6" d="M85.6,320.4"/>
		<path d="M85.6,321.9c0.8,0,1.5-0.7,1.5-1.5s-0.7-1.5-1.5-1.5s-1.5,0.7-1.5,1.5S84.8,321.9,85.6,321.9z"/>
		<path class="st6" d="M85,320.9c5-3.3,11.2,1.8,15,6.5c5.2,6.4,10.5,12.8,14.3,20.1c1.9,3.6,3.5,7.5,6.6,10.1s8.4,3.2,10.9,0
			c0.7-1.2,1.4-2.4,1.9-3.6c3.4-5.9,11.9-6.1,17.4-10.1c4.9-3.5,7.3-9.9,12.4-13.1c7.9-5,18.2-0.8,27.5-1.2
			c5.6-0.2,10.9-2.1,16.4-2.9s11.7-0.4,15.8,3.3c2.3,2.1,3.8,5,6.2,6.9s5.7,2.6,8.4,4.4c4.1,2.7,6.2,7.4,9.6,11s9.5,5.8,12.9,2.3
			c2.3-2.3,2.3-6.2,4.5-8.7s5.8-3.1,7.7-5.7s1.4-6.6,3-9.6c2.6-5,9.5-5.5,14.5-8c4-2,7-5.5,11.1-7.2s10.1-0.3,10.8,4
			c0.4,2.6-1.3,5.1-1.3,7.8c-0.1,9,16.4,9.3,18.2,18.1c0.3,1.9,0.1,3.9-0.5,5.8c-3.2,14-6.3,28-9.5,42.1c-0.9,3.9-1.8,7.9-3.7,11.4
			c-3.7,6.7-10.8,10.9-15.4,17.1c-5.2,7-6.9,16.3-12.7,22.8c-3,3.3-6.8,5.7-10.6,8l-22.3,13.5c-7.5,4.5-15.4,9.2-24.1,9.5
			c-2.6,0.1-5.6-0.1-7.4,1.9c-1.3,1.4-1.4,3.5-2.2,5.2c-2.1,4.6-8.2,5.5-13.3,5.6l-44.3,1.7c-1.6,0.1-3.4,0.1-4.8-0.8
			s-1.9-2.4-3-3.6c-2.5-3-7-3.3-10.2-5.5c-4.2-2.9-5.6-8.5-8.6-12.7c-10-14.1-35.9-9.9-43.8-25.2c-1.8-3.4-2.3-7.3-3.5-11
			c-4.5-13-17.9-22-20.3-35.5c-0.8-4.6-0.3-9.2,0.3-13.9l2.8-23.3c0.1-2.1,0.6-4.1,1.6-5.9c1.1-1.6,2.6-3,4.3-4l13.5-9.3
			c1.5-1,3.2-2.4,3.1-4.3c-0.2-1.2-0.8-2.3-1.6-3.1l-7.6-9.1"/>
		<path d="M85.7,322.2c7.7-4,15.9,9.3,19.6,14.2c4.3,5.7,7.1,11.9,10.9,17.9c2.4,3.9,6.1,7,10.9,6.9c6-0.2,6.1-5.5,9.9-8.8
			c4.2-3.7,10.5-4.1,15-7.3c4.9-3.5,7.2-9.8,12.3-13c6.5-4.1,14.9-1.7,22-1.1c7.9,0.6,14.9-2.2,22.7-3c3.7-0.4,7.8-0.2,11.1,1.6
			s5,5.4,7.8,7.9c2.3,2.1,5.2,2.8,7.9,4.3c3.6,2,5.7,5.2,8.1,8.4c5.8,7.8,15.9,11.4,20.3,0.5c1.7-4.2,4.4-5.2,7.7-7.8
			c1.6-1.2,2.8-2.9,3.4-4.9c1.2-4,0.8-7.6,5-10c2.8-1.6,6-2.2,9-3.5c5.3-2.3,10.2-9,16.4-8.3c7.9,0.8,2,9.8,4.3,14.7
			c4.2,8.6,19.2,7.1,17.1,19.2c-1.4,7.9-3.5,15.8-5.3,23.7c-1.8,8-3.3,16.2-5.5,24.1s-7.8,12.6-13.4,18.2
			c-4.6,4.6-7.4,9.9-10.1,15.8c-3.2,7.1-6.8,12.8-13.5,17.1s-13.5,8.3-20.3,12.4c-6.9,4.2-13.9,9-21.7,11.4
			c-4.5,1.4-12.2-0.2-15.7,3.6c-2.1,2.3-1.8,5.8-4.3,7.9c-2.7,2.2-6.7,2.4-10.1,2.6c-8.3,0.4-16.7,0.6-25,1l-11.6,0.5l-5.8,0.2
			c-3.4,0.1-5.2-0.1-7.6-2.7c-1.2-1.5-2.6-2.8-4.3-3.7c-2.8-1.5-6-2.1-8.4-4.4c-4.1-4-5.3-10.2-9.6-14.3c-3.3-2.9-7.1-5.1-11.2-6.5
			c-9-3.4-20.9-4.5-27.5-12.2c-4.4-5.1-4.5-12.3-7.4-18.2c-2.8-5.6-6.9-10.4-10.6-15.4c-3.9-5.2-7.4-10.8-8.1-17.4
			c-0.9-8.1,1.1-16.6,2-24.6c0.5-4,0.7-8.1,1.5-12c1.1-5.6,5.8-7.9,10.2-10.9c3.5-2.4,11.7-5.9,12.1-10.9c0.1-1.6-0.7-2.9-1.6-4.1
			c-2.5-3.4-5.4-6.4-8-9.6c-1.2-1.5-3.3,0.6-2.1,2.1c1.5,1.8,3,3.6,4.5,5.3c2,2.4,3.4,3,2.6,6.3s-2.4,3.8-5.1,5.7l-6,4.2
			c-5.1,3.5-8.6,6-9.5,12.5c-1.2,8.6-2.2,17.2-3.1,25.8c-0.8,6.8-0.7,13.2,2.2,19.5c2.7,5.9,6.9,10.8,10.8,15.9
			c4.5,6,6.9,11.8,9.1,19c3.1,10.4,11.3,14.8,21.1,17.9c5.3,1.7,10.7,3,15.7,5.4c6.1,2.9,9.2,7.3,12.4,13.1
			c2.9,5.4,6.3,7.4,11.7,9.9c3.1,1.4,4.2,4.2,6.7,6.1c2.2,1.6,5.1,1.3,7.8,1.2c9-0.3,18-0.7,27-1c7.1-0.3,14.7,0.3,21.7-1.3
			c2.1-0.4,4.1-1.3,5.8-2.6c0.9-0.7,1.6-1.6,2.2-2.6c1.3-2.3,1.1-3.5,3.6-5.2c3.2-2.3,6.7-1.6,10.5-2.4c3.5-0.8,6.9-2.1,10.1-3.8
			c7.3-3.6,14.2-8.2,21.1-12.5c6.5-4,13.9-7.5,19.5-12.7c5-4.6,7.4-10.8,10.2-16.8c3.3-7.1,7.9-11.8,13.4-17.2
			c11.3-11,12.2-28,15.5-42.7c0.9-4.1,1.9-8.3,2.8-12.4c0.8-3.6,2.3-7.7,2.2-11.4s-2.5-6.8-5.5-8.9c-3.6-2.5-8.7-3.8-11.5-7.3
			c-3.6-4.6,2.6-10.6-1.9-15.1c-2.8-2.8-7.5-3-11-1.6c-2.8,1.1-5.1,3.1-7.6,4.9c-3,2-6.2,3.5-9.7,4.6c-5,1.8-8.8,4-10.2,9.5
			c-0.3,1.4-0.3,3-0.9,4.3c-1.2,2.6-3.2,3.9-5.5,5.3c-2.1,1.2-3.7,3-4.7,5.2c-0.8,1.8-1.2,4.5-2.7,5.8c-2.2,1.9-5.6,1.2-7.9,0
			c-3.6-2-5.6-5.9-8.1-9c-4.4-5.5-11.5-6.6-16-12c-4-4.8-8.2-7.4-14.6-7.6c-8-0.2-15.4,3.4-23.4,3.3c-6.9,0-13.9-2.3-20.8-1
			c-5.8,1.1-9.3,4.8-12.7,9.3c-2.3,3-4.5,5.6-7.8,7.4c-2.9,1.5-6.1,2.3-9.1,3.7c-2.2,0.9-4.2,2.4-5.7,4.2c-2.5,3.1-3.7,7.6-8.8,6
			c-4.1-1.3-6.1-5.5-7.9-9.1c-1.8-3.6-3.8-7-6.1-10.3c-4.1-5.8-8.5-12.4-14.1-16.7c-3.7-2.9-7.8-4.3-12.2-2.1
			C82.4,320.5,84,323.1,85.7,322.2L85.7,322.2z"/>
	</g>
	<g id="mouth_beard">
		<path class="st9" d="M172.4,362.6c-2.2,5-8.5,6.5-13.9,7.2c-5.1,0.6-11.4,1.9-12.4,6.9c-0.5,2.1,0.3,4.3,0.7,6.4
			c0.9,4.3,0.4,8.8,0.8,13.1s1.7,9,5.2,11.7s9.5,2,11.2-2c2.8-6.5-7.3-13.1-5.2-19.9c1-3.3,4.6-5.1,8.1-5.4s6.8,0.5,10.3,0.7
			c8,0.4,15.8-2.9,23.7-4.4s17.3-0.7,22.2,5.7c1,1.3,1.7,2.8,1.9,4.5c0.6,7.2-9.7,10.4-11.8,17.3c-0.4,1-0.3,2.1,0.2,2.9
			c0.7,0.7,1.7,1.1,2.6,1.1c5.3,0.8,10.6,1.5,15.9,0.5s10.3-4.3,12.1-9.3c2.6-6.9-1.6-14.4-5.6-20.6c-1.7-2.6-3.5-5.3-6.3-6.5
			c-2.4-1-5.1-0.8-7.6-1.3c-4.2-1-7.6-4-11.1-6.5c-15.4-10.6-38.1-8.8-51.7,4c1.2,2.9,4.6,4.2,7.7,5c16.5,4,33.8,2.3,49.1-5"/>
		<path d="M171.1,361.8c-5.2,9.8-21.8,2.7-26.1,13.1c-0.9,2.2-0.5,4.6,0,6.9c0.9,4.5,0.7,8.9,1,13.4c0.3,5,1.6,10.6,5.9,13.8
			c6.7,4.9,16.3-0.3,13.6-8.8c-1.6-5-8.1-10.8-3.8-15.8c3-3.4,8.1-2.5,12.1-2.1c3.3,0.4,6.5,0.4,9.8-0.1c7.4-1,14.5-4.1,22-4.6
			c6.5-0.4,18.7,2,17.7,11c-0.4,4.1-19.4,16.5-9.2,20.7c5.2,2.1,13.5,2,18.8,0.6c5-1.2,9.8-4.3,12-9.1c2.4-5.3,1-10.9-1.4-15.9
			c-2.3-4.8-5.7-11.5-10.8-13.8c-3.4-1.6-7.3-0.9-10.7-2.6s-6.4-4.4-9.7-6.4c-5.2-3.1-11.1-5.1-17.1-5.7
			c-12.6-1.4-25.2,2.6-34.6,11.1c-0.5,0.5-0.6,1.2-0.2,1.8c4.3,7.9,18.4,7.8,26.1,7.9c11.3,0,22.4-2.5,32.7-7.3
			c1.8-0.8,0.2-3.4-1.5-2.6c-8.7,4-18.1,6.3-27.7,6.8c-4.5,0.2-9,0-13.4-0.7c-4.5-0.6-11.2-1.2-13.6-5.6l-0.2,1.8
			c8.5-7.6,19.7-11.4,31.1-10.4c5.3,0.4,10.5,1.9,15.2,4.4c4.6,2.5,8.4,6.7,13.5,8.4c2.5,0.9,5.2,0.6,7.6,1.3c4.1,1.2,6.2,5,8.2,8.5
			c4.2,6.9,7.8,15.9,0.3,22c-5.1,4.2-14.3,5.1-20.7,3.2c-1.2-0.4-3.3-0.7-3.6-2.5c-0.2-1.2,1.9-3.3,2.7-4.1c1.6-1.8,3.5-3.2,5.2-4.9
			c5.4-5.5,5.1-12.3-1.4-17.1c-7.9-5.8-18.5-3.8-27.3-1.5c-6,1.6-11.9,3.1-18.2,2.6c-4.8-0.4-9.9-1.5-14.2,1.2
			c-7.6,4.8-2.6,12.1,0.3,18c1.9,3.7,2.1,8.6-3.3,9c-5,0.4-7.7-4.1-8.7-8.4c-0.9-3.9-0.5-7.8-0.7-11.7c-0.2-3.4-2-7.8-1-10.9
			c1.9-6,10.6-5.1,15.6-6.3c4.4-1.1,8.2-3,10.4-7.1C174.6,361.6,172,360.1,171.1,361.8L171.1,361.8z"/>
	</g>
	<g id="mouth">
		<path class="st10" d="M166.5,367.1c2.8-0.9,5.3-2.2,8-3.4c11.6-4.9,24.7-4.9,36.4,0c1.8,0.7,3.4,1.7,4.8,2.9
			c0.2,0.2,0.5,0.6,0.3,0.9c-0.1,0.1-0.3,0.2-0.4,0.3c-14.3,5.3-30,8.3-44.9,4.9c-2.5-0.6-5-1.4-6.7-3.2c12.1-2.4,24.5-3.3,36.9-2.7
			"/>
		<path d="M166.9,368.6c7.6-2.7,14.2-6.2,22.4-6.9c4.1-0.3,8.2,0,12.3,0.8c1.8,0.4,10.2,1.9,11.1,3.8c1.1,0.5,1.1,0.9-0.1,1
			c-0.9,0.3-1.7,0.6-2.6,0.9c-1.8,0.6-3.5,1.1-5.3,1.6c-4.6,1.3-9.3,2.1-14,2.6c-7.6,0.7-19.5,1.5-25.6-3.9l-0.7,2.5
			c12-2.3,24.3-3.2,36.5-2.6c1.9,0.1,1.9-2.9,0-3c-12.5-0.6-25,0.3-37.3,2.7c-0.8,0.2-1.3,1.1-1,1.8c0.1,0.2,0.2,0.5,0.4,0.7
			c7.3,6.3,20.6,5.6,29.6,4.6c5.6-0.7,11.2-1.9,16.6-3.5c1.9-0.6,8.1-1.4,8.5-4.1c0.8-5.5-15.7-8.1-18.9-8.5
			c-5.2-0.6-10.5-0.4-15.6,0.6c-6,1.2-11.1,4.1-16.9,6.1C164.4,366.4,165.2,369.3,166.9,368.6L166.9,368.6z"/>
	</g>
	<g id="punk">
		<path class="st6" d="M152.3,143.2c-6.5-27.8-8.8-56.4-6.8-84.9l4.3,7.2l6.1-46.4c6.3,5.2,15.5,0.5,23.1-2.4
			c9.4-3.6,19.6-4.3,29.6-5c1.2-0.2,2.4-0.1,3.5,0.4c3.6,1.9,2.1,8.9,6,10c2.9,0.9,6.7-2.7,8.8-0.4c0.5,0.7,0.8,1.6,0.9,2.4
			c6,44.4,2.8,89.4-0.6,134.1c1.1-1.4-1.1-3.3-2.8-3s-3.1,1.6-4.8,2.3c-3.9,1.5-8.2-1.4-12.4-1.2c-3.1,0.1-5.9,2-8.9,2.8
			s-7.1,0-7.9-3c-0.4-1.5,0.1-3.2-0.6-4.6c-1.4-2.6-5.3-1.4-7.8,0.2l-16.7,10.3c-3.2-5.1-11.5-5.9-15.6-1.5
			c-1.1-6.9-1.5-13.8-1-20.8"/>
		<path d="M153.8,142.8c-6.4-27.7-8.7-56.2-6.8-84.5l-2.8,0.8l4.3,7.2c0.5,0.7,1.4,0.9,2.1,0.5c0.4-0.3,0.7-0.7,0.7-1.2l6.1-46.4
			l-2.3,1.3c6.2,4.4,13.4,2,19.9-0.5c8.5-3.3,17.4-5.4,26.5-6.2c4.7-0.4,10.2-2.1,11.9,3.5c0.6,2,1,4.3,2.8,5.6
			c2,1.4,3.6,0.4,5.8,0.4c4.1,0.1,4.5,3.3,4.9,6.7c0.3,2.3,0.5,4.5,0.7,6.8c4,40.4,1,81.1-2,121.5c-0.1,1.8,2.5,1.9,2.9,0.4
			c0.6-1.6,0-3.3-1.4-4.2c-2.1-1.4-3.9-0.3-6,0.5c-3.5,1.3-5.3,1.3-8.9,0.6c-1.2-0.3-2.4-0.5-3.6-0.7c-4.1-0.3-7.1,2-10.9,2.9
			c-4.4,1-5.2-1-6.2-4.7c-0.1-0.9-0.4-1.7-0.9-2.5c-1.1-1.4-2.8-2.2-4.6-1.9c-3.1,0.2-5.9,2.4-8.4,3.9l-13.4,8.2l2,0.5
			c-3.8-5.4-11.3-6.7-16.7-2.8c-0.4,0.3-0.9,0.7-1.3,1l2.5,0.7c-1-6.7-1.3-13.6-0.9-20.4c0.1-1.9-2.9-1.9-3,0
			c-0.4,7.1-0.1,14.2,1,21.2c0.2,1.2,1.8,1.4,2.5,0.7c3.5-3.4,9.2-3.3,12.6,0.2c0.3,0.3,0.6,0.6,0.8,1c0.4,0.7,1.3,0.9,2.1,0.5
			l10-6.2c1.8-1.1,7.4-5.9,9.6-5.4c3.2,0.8,2.7,4.2,4.1,6.3c1,1.3,2.4,2.3,4,2.6c5.8,1.4,10.4-3.6,16.2-2.6c2.7,0.5,5.3,1.7,8.2,1.3
			c0.7-0.1,1.4-0.3,2.1-0.5c0.1-0.1,6.2-3.2,5.5-1l2.9,0.4c2.5-33.7,5-67.4,3.5-101.2c-0.4-8.1-1-16.2-1.9-24.2
			c-0.4-3.5,0.3-12.1-4.4-13.3c-2.4-0.6-4.5,1.5-6.7,1.2c-2.8-0.4-2.8-4.4-3.6-6.4c-1.8-4.5-5.4-4.3-9.7-4c-8.1,0.6-16.2,1.3-24,3.7
			s-17.6,9.2-25.3,3.7c-1-0.7-2.1,0.3-2.2,1.3l-6.1,46.4l2.8-0.8l-4.3-7.2c-0.5-0.7-1.4-0.9-2.1-0.5c-0.4,0.3-0.7,0.7-0.7,1.2
			c-1.9,28.6,0.4,57.4,6.9,85.3C151.3,145.5,154.2,144.7,153.8,142.8L153.8,142.8z"/>
		<path class="st6" d="M238.3,121.7l-3.5-16.7c-0.6-2.3-0.8-4.7-0.5-7c0.5-1.8,1.1-3.6,1.9-5.3c1.8-5.1,1-10.7,0.3-16
			c-3.2-23.5-4.5-47.3-4.1-71l-28.6-3.8c-2.4-0.4-4.8-0.5-7.3-0.3c-2.4,0.5-4.8,1.3-7.1,2.2c-6.1,2-12.7,2-19,3.4s-12.7,5-14.8,11.1
			"/>
		<path d="M239.7,121.3c-1-4.9-2.1-9.9-3.1-14.8c-0.7-3.2-1.5-6.2-0.6-9.4c0.4-1.4,1.1-2.6,1.6-3.9c2.9-8.6,0-18.5-1-27.2
			c-2.2-20-3.1-40.1-2.8-60.2c0-0.8-0.7-1.5-1.5-1.5c-8.9-1.2-17.8-2.4-26.7-3.5c-3.2-0.4-6.4-1-9.6-0.5c-3.6,0.6-6.9,2.3-10.5,3.1
			C174.1,5.9,159.2,5,154.1,18c-0.7,1.8,2.2,2.6,2.9,0.8c5.1-12.9,23.3-10.2,34.1-14c7-2.4,13-1.4,20.2-0.4l21,2.8l-1.5-1.5
			c-0.4,20.8,0.6,41.5,3,62.2c0.6,4.7,1.4,9.5,1.8,14.2c0.4,5.3-1,9.2-2.4,14.2c-1.1,3.7-0.2,7.3,0.6,11c1,4.9,2.1,9.9,3.2,14.8
			C237.3,123.9,240.2,123.1,239.7,121.3L239.7,121.3z"/>
		<path class="st6" d="M153.8,18.6l56.5-7.9c7,8.8,4.2,21.5,5.9,32.6c1.4,9.4,6.2,17.9,10,26.6s6.6,18.5,3.9,27.7
			c-1.6,5.2-4.4,12,0.1,15.2"/>
		<path d="M154.1,20l56.5-7.9l-1.7-0.7c5.9,8,4.6,17.9,5.2,27.3c0.6,9.1,4,17.3,7.7,25.5c4.6,10,9.6,20.9,6.9,32.1
			c-1.4,5.7-5.1,12.8,0.2,17.5c1.4,1.3,3.6-0.8,2.1-2.1c-3.6-3.2-1.2-8.6,0-12.5c1.3-4.2,1.8-8.6,1.3-13c-1-9-4.9-17.1-8.6-25.2
			c-4.3-9-6.6-18.7-6.8-28.6c-0.2-7.9-0.6-15.9-5.4-22.5c-0.4-0.6-1-0.8-1.7-0.7l-56.5,7.9C151.5,17.4,152.3,20.3,154.1,20L154.1,20
			z"/>
	</g>
	<g id="Afro">
		<path class="st6" d="M71.5,290.3c-4.5,6.9-13.3,9.4-20.7,6c-7.2-3.8-10.6-12.4-7.9-20.1c-8.2-1.1-16.8-2.4-23.3-7.6
			s-9.4-15.7-3.9-21.8c-7.4-6.3-15.6-14.4-14.2-24c1.9-12.8,20.1-22.2,14.9-34.1c-2.2-5-8.6-8.9-7.4-14.2c0.6-2.5,2.7-4.3,4.1-6.4
			c6-9-1-22.8,5.6-31.3c1.9-2.4,4.6-4.1,6.4-6.5c2.4-3.3,2.8-7.6,3.7-11.5c3.8-16.2,19.7-28.7,36.3-28.7c3.3,0,7.2,0.2,9.4-2.2
			c1.7-1.9,1.8-4.8,2.1-7.3c1-6.4,4.8-12.1,10.4-15.5c2.7-1.6,5.8-2.7,8-5c2.8-2.9,3.5-7.1,4.9-10.9c6-15.7,27.6-23.1,41.9-14.2
			c4.3-11.7,17-19.6,29.4-18.5c8.8,0.8,16.9,5.6,25.6,6.6c8.4,0.9,16.7-1.9,25-3.2s17.9-0.8,23.8,5.2c3.9,3.9,5.8,9.7,10.4,12.6
			c8.2,5.1,19.5-1.8,28.5,1.9c5.8,2.4,9,8.7,14.1,12.5s11.6,4.7,17.2,7.6c9.7,5.1,15.7,15.3,15.4,26.2c13.3,0.2,24.4,14.7,21,27.6
			c-0.8,3-2.2,6-1.8,9.1c0.4,2.8,2.2,5.1,4,7.2c5.4,6.5,11.5,12.7,14.6,20.5s2.1,18.1-4.7,23.1c8.9,4.7,11.4,18.1,4.9,25.7
			c-2.4,2.8-5.9,5.1-6.6,8.8c-1.6,9.2,16.2,15,12.1,23.4c-1.1,2.3-3.7,3.6-5.2,5.8c-3.8,5.7,2.1,13.9-0.9,20.1
			c-1.3,2.7-4,4.3-6.2,6.3c-4.2,3.8-7,9-11.2,12.7s-11.3,5.5-15.3,1.5c-3.3-3.3-2.9-8.6-2.2-13.2c1-6.5,2.1-13.7-1.2-19.5
			s-12.8-8.1-16.3-2.4c0.3-7.2-0.6-16.4-7.5-18.8c-5.3-1.8-12.2,1.5-16.2-2.4c-4.5-4.4,0-12.4-2.6-18.1c-2.9-6.1-11.8-5.7-17.3-9.7
			c-2.1-1.5-3.7-3.7-5.4-5.7c-5.9-6.7-13.6-11.5-22.3-13.7c-16.7-4.2-37.1,1-49.4-11c-2.8-2.7-5.8-6.4-9.5-5.4
			c-2.1,0.6-3.5,2.5-5,4.1c-6.3,6.6-18.1,6.7-24.6,0.3c-5.2,10.8-15.7,18.1-27.7,19.2c-6.4,15-13.7,29.7-22,43.8
			c-4.2,7.1-11.2,15.1-19,12.4c2.7,3.7,2,8.9-1.7,11.6c-3.7,2.7-8.9,2-11.6-1.7c-0.3-0.4-0.5-0.7-0.7-1.1c-6,6.4-3.5,16.5-1.2,24.9
			s2.9,19.4-4.6,23.8"/>
		<path d="M70.2,289.6c-4.1,6.1-12.6,8.8-19.2,5.2c-6.4-3.5-8.8-11.4-6.6-18.1c0.2-0.8-0.2-1.6-1-1.8c-7.2-1-14.9-2-21.1-6.1
			c-6.5-4.3-10.9-13.9-5.4-20.8c0.6-0.6,0.6-1.5,0-2.1c-9-7.7-18.1-17.7-11-29.8c3.9-6.6,10.8-12.1,12.7-19.8
			c0.7-2.7,0.4-5.6-0.8-8.2c-2.3-5.1-9.8-9.2-6.1-15.4c2.4-4.1,4.9-6.5,5.5-11.5c0.6-4.8-0.2-9.5,0.1-14.3c0.4-7.1,3.8-9.4,8.1-14.2
			c3.2-3.6,3.8-8,4.9-12.6c2.5-10.6,9.6-19.6,19.4-24.5c4.9-2.5,10.2-3.8,15.6-3.9c3.7-0.1,8.1,0.2,10.7-3s1.9-8.2,3.4-12
			c2.7-7.1,8.3-9.5,14.2-13.3c4.3-2.8,5.8-6.9,7.3-11.6c1.7-5.4,5.1-10.1,9.7-13.5c8.9-6.4,21.1-7.7,30.7-2.1
			c0.7,0.4,1.7,0.1,2.1-0.6c0.1-0.1,0.1-0.2,0.1-0.3c3.1-7.6,9.3-13.4,17.1-16.1c7.7-2.6,15.1-0.9,22.5,1.6c7,2.4,13.7,4.3,21.2,3.6
			c8-0.7,15.8-3.6,23.9-3.8c8.7-0.2,15.4,2.6,20.2,9.9c3.1,4.7,6.3,8.9,12.1,10c6.2,1.2,12.5-1.2,18.7-0.9
			c8.9,0.4,12.3,8.4,18.6,13.2c6,4.5,13.8,5.2,20,9.3c7.8,5.3,12.4,14.1,12.2,23.5c0,0.8,0.7,1.5,1.5,1.5c8.9,0.4,16.7,7,19.2,15.5
			c1.2,4.1,1,8.4-0.3,12.4c-1,3.2-1.8,6.3-0.6,9.6c1.4,3.8,4.6,6.8,7.1,9.8c3.3,3.6,6.3,7.6,8.9,11.8c4.6,8.1,5.7,19.4-2.3,25.8
			c-0.6,0.6-0.6,1.6,0,2.1c0.1,0.1,0.2,0.2,0.3,0.2c6.2,3.8,9.2,11.3,7.2,18.3c-1.7,5.9-8.8,8.7-9.6,14.9c-0.6,4,2,7.4,4.6,10.2
			s9.4,7.3,7.9,12c-0.9,2.9-4.6,4.5-6,7.3c-0.9,2.3-1.2,4.7-0.8,7.1c0.4,3.3,1.6,6.8,0.9,10c-1,4.5-5.7,6.8-8.6,10
			c-4.9,5.3-9.9,15.4-18.7,13.7c-9.9-1.9-4.3-17.1-4.3-23.8c0-6.2-2.2-12.6-8.2-15.4c-4.7-2.2-10-1.6-13.1,2.7l2.8,0.8
			c0.2-5.4,0-11.6-3.2-16.2c-3.7-5.3-9.3-4.5-15-4.5c-11.9,0-4.9-12.3-8.2-19.1c-2.4-5-8-6.2-12.8-7.9c-7.5-2.7-11.2-9.9-17.4-14.6
			c-5.9-4.3-12.8-7.2-20-8.3c-14.3-2.4-32.3,1.2-44-9.3c-4.4-4-9.1-9.4-14.9-4.2c-3.4,3-5.9,5.9-10.6,6.7c-5.1,0.9-10.3-0.5-14.1-4
			c-0.6-0.6-1.6-0.6-2.1,0c-0.1,0.1-0.2,0.2-0.2,0.3c-5,10.3-15,17.3-26.4,18.4c-0.5,0-1,0.3-1.3,0.7c-4.7,11-9.8,21.8-15.5,32.3
			c-4.4,8.1-11.9,26.4-23.8,23.2c-0.8-0.2-1.6,0.3-1.9,1.1c-0.1,0.4-0.1,0.8,0.2,1.2c4.7,7.8-6.2,15.1-11.4,7.3
			c-0.4-0.7-1.4-0.9-2.1-0.5c-0.1,0.1-0.2,0.1-0.3,0.2c-5.3,6.4-4.5,14.5-2.7,22.1c1.9,8.2,6,20.7-2.8,26.5c-1.6,1-0.1,3.6,1.5,2.6
			c17.8-11.7-5.4-35.3,6.1-49l-2.4-0.3c7.2,10.9,23.4,1,16.6-10.3l-1.7,2.2c7.5,2,13.5-3,17.8-8.7c6.8-9,11.8-20,16.7-30.1
			c2.5-5.1,4.4-10.5,7.1-15.4c1.8-3.3,7.1-3,10.5-4.5c8-3.4,14.5-9.5,18.3-17.3l-2.4,0.3c4,3.7,9.3,5.5,14.7,5.1
			c6.3-0.4,9.2-3.6,13.8-7.3c5.4-4.4,9,2.1,12.8,5.1c2.4,1.8,5,3.3,7.8,4.3c6.1,2.3,12.8,2.7,19.3,3.1c7.5,0.4,15.1,0.5,22.3,2.6
			c8.1,2.4,15.2,7.1,20.6,13.5c4.5,5.2,8.3,7.1,14.6,9.3c4.1,1.5,7.7,3.5,8,8.3c0.2,3.4-0.7,6.7-0.2,10c1,6.7,6.7,7.8,12.5,7.5
			c5.4-0.2,9.9,0.7,11.9,6.4c1.3,3.6,1.3,7.6,1.2,11.4c-0.1,1.6,2,1.9,2.8,0.8c3-4,9-2.6,12.1,0.4c4,3.9,3.8,10.5,3.2,15.7
			c-0.6,6-3,13.6,1.5,18.7c3.6,4.1,9.7,3.8,14.3,1.5c6.9-3.5,10.2-11.3,16-16.1c5.3-4.5,7-8.1,6-15c-0.7-4.7-1.7-8.5,1.8-12.4
			c1.8-1.9,3.8-3.4,4.4-6.1c2.1-10.8-19.9-15.5-9.9-26.4c4.6-5.1,8.1-9.5,7.5-16.8c-0.4-6.1-3.9-11.7-9.2-14.8l0.3,2.4
			c6.6-5.2,8-14.1,6-21.9c-1.3-4.9-4-9.2-7-13.2c-3.4-4.5-9.4-9.1-11.5-14.4c-2.2-5.6,1.7-11,1.6-16.7c-0.1-4-1.2-7.9-3.2-11.3
			c-4-7.3-11.5-12-19.9-12.5l1.5,1.5c0.1-7.1-2.3-14-6.8-19.6c-4.5-5.7-10.5-8.5-17.2-10.9c-4.5-1.6-8.5-3.3-12-6.7
			c-2.7-2.7-5-5.8-8-8.1c-5.9-4.6-12.7-3.6-19.7-2.8c-4.1,0.5-8.8,1-12.5-1.3s-5.6-6.7-8.2-10.1c-4-5.2-9.8-7.7-16.2-8.3
			c-8.6-0.8-16.8,1.9-25.2,3.2c-10.7,1.6-19.1-2.1-29.1-4.8c-15.6-4.2-31.6,3.1-37.7,18.3l2.2-0.9c-14.9-8.7-36.3-2.3-43.5,13.7
			c-1.1,2.3-1.6,4.9-2.6,7.3c-1.5,3.9-4,5.8-7.5,7.7c-4.8,2.6-8.8,5.7-11.4,10.5c-1.2,2.3-2,4.8-2.5,7.3c-0.7,3.6-0.2,6.9-4.7,8.2
			c-3,0.9-6.6,0.2-9.7,0.5c-2.5,0.3-4.9,0.8-7.3,1.6c-9.5,3.2-17.4,9.7-22.4,18.3c-2.5,4.5-3.6,9.1-4.8,14.1
			c-0.8,3.7-2.7,7.1-5.5,9.6c-2,1.6-3.6,3.6-4.9,5.8c-1.9,3.9-2,8.4-1.9,12.6c0.1,7.1,0.4,12.6-4,18.6c-2.2,2.9-3.5,5.7-2.2,9.3
			c1.8,5.2,7.7,8.2,7.9,14.1c0.2,5.4-4.4,10.4-7.5,14.4c-2.8,3.7-5.8,7.4-7.4,11.9c-4.2,11.9,5.4,21.7,13.7,28.8v-2.1
			c-5,6.3-3.8,14.8,1,21c6.3,8,17.4,9.6,26.8,11l-1-1.9c-2.8,8.4,0.9,18.3,9.2,22c8,3.6,17.4,0.2,22.2-6.8
			C73.9,289.5,71.3,288,70.2,289.6L70.2,289.6z"/>
	</g>
	<g id="cigarette">
		<path class="st11" d="M196.7,424.9l0.4,3.6c2.4,1.2,5.8-0.6,5.7-3.2s-4.4-3.9-5.5-1.5"/>
		<path d="M195.2,424.9l0.3,2.7c-0.1,0.7,0.1,1.4,0.5,2c1,0.7,2.2,1,3.3,0.8c2.4-0.2,4.4-1.9,4.9-4.3c0.7-4.4-6.1-7.1-8.3-3
			c-0.9,1.7,1.7,3.2,2.6,1.5c0.5-1,2.4-0.4,2.7,0.5c0.5,1.7-2.2,2.6-3.4,2.1l0.7,1.3l-0.4-3.6C198,423.1,195,423,195.2,424.9
			L195.2,424.9z"/>
		<path class="st11" d="M196.6,424.8c-2.1-18.8-3.3-37.7-3.7-56.7c-0.1-0.7,0.1-1.4,0.4-2c0.8-1,2.5-0.7,3.4,0.3
			c0.7,1.1,1.1,2.4,1,3.7c1.2,18,1.2,36.2,5.8,53.6"/>
		<path d="M198.1,424.8c-1.1-9.7-1.9-19.5-2.5-29.3c-0.3-5.2-0.6-10.4-0.8-15.6c-0.1-2-0.2-3.9-0.2-5.9c0-1.3-1-9.6,1.6-3.9
			c0.8,1.8,0.3,5.5,0.4,7.5l0.3,5.6c0.3,5,0.5,9.9,0.9,14.9c0.6,8.8,2,17.5,4.1,26.1c0.5,1.9,3.4,1.1,2.9-0.8
			c-3.1-12.2-4.1-24.8-4.8-37.4c-0.3-5.6-0.1-11.6-1-17.2c-0.4-2.2-1.5-4.7-4.1-4.8c-2.3-0.1-3.3,1.6-3.5,3.6
			c-0.7,5.8,0.3,12.3,0.6,18.1c0.7,13.1,1.7,26.1,3.1,39C195.3,426.7,198.3,426.7,198.1,424.8L198.1,424.8z"/>
	</g>
	<g id="Chapeau_noir">
		<path class="st12" d="M74,234.1c-14.7,2.3-29.7,1-43.8-3.5c29.6-14.5,63.8-14.5,96.5-17.7c72.3-7,145.5-30.4,216-13.1
			c3.7,0.9,7.6,2,10.4,4.6s4.2,7.2,2.1,10.4s-6.7,3.8-10.6,4l-26.6,1.3"/>
		<path d="M73.6,232.6c-14.4,2.1-29.1,0.9-43-3.6l0.4,2.8c21.6-10.4,45.6-13.3,69.2-15.3c22.8-1.9,45.5-4.1,68.1-7.6
			c47.9-7.4,96.4-17.6,145.1-12.7c7.3,0.7,14.5,1.8,21.6,3.3c5.9,1.2,15,2.1,18.5,7.6c6.2,9.9-8.9,10.1-14.5,10.4l-21,1
			c-1.9,0.1-1.9,3.1,0,3l21-1c4.5-0.2,10.1,0.2,14.2-2c7.5-4,4.6-13.4-1.5-17.1c-4.6-2.8-10.6-3.7-15.8-4.8
			c-6.2-1.3-12.5-2.3-18.7-3c-13.5-1.5-27.1-2-40.7-1.5c-55.1,1.9-108.9,16-163.8,20.4c-28.3,2.3-57.2,4.2-83.1,16.7
			c-1.2,0.6-0.8,2.4,0.4,2.8c14.4,4.5,29.7,5.7,44.6,3.5C76.3,235.3,75.5,232.4,73.6,232.6L73.6,232.6z"/>
		<path class="st12" d="M68.1,218.9l12.4-86.4c1.7-11.6,3.7-24,11.7-32.8c5.2-5.6,12.3-9.1,19.7-11.6c15.7-5.3,32.5-6.3,49.1-7.1
			c19.1-0.9,38.3-1.7,57.5-2.2c14-0.4,28.2-0.6,42.1,1.8c3.7,0.6,7.5,1.6,10.3,4.1c2.4,2.1,3.6,5.1,4.9,8l46.7,111.8"/>
		<path d="M69.6,219.3c4.1-28.8,8.3-57.6,12.4-86.5c1.7-11.4,3.5-24,11.9-32.7c9.2-9.5,23.7-12.9,36.3-15
			c14.1-2.3,28.5-2.7,42.8-3.3s28.4-1.1,42.6-1.5s28.6-0.9,42.8,1.3c3.1,0.5,6.4,1,9.2,2.4c4.2,2.2,5.8,6.6,7.5,10.7l8.4,20.2
			c12.5,30,25,59.9,37.5,89.8c0.7,1.8,3.6,1,2.9-0.8c-12.2-29.3-24.5-58.7-36.7-88L278.7,96c-2-4.9-3.8-10.4-8.3-13.6
			c-4.9-3.3-11.7-3.7-17.4-4.3c-7.6-0.8-15.3-1.1-23-1c-15.7,0.1-31.5,0.8-47.2,1.4c-14.6,0.6-29.4,0.9-43.9,2.5
			c-13,1.4-26.8,3.8-38.4,10.4c-10.4,5.9-16.2,15.5-19,26.9c-3.8,15.3-5,31.5-7.3,47.1l-7.6,53.1C66.3,220.4,69.2,221.2,69.6,219.3
			L69.6,219.3z"/>
		<path class="st13" d="M273.1,153.8c1.6-6.2,5.7-11.3,9.9-16.1c34.3-39.2,77.6-69.6,126.2-88.5"/>
		<path d="M274.5,154.2c2.2-7.6,7.6-13.4,12.8-19.2c4.6-5.1,9.4-10.1,14.3-14.9c10.4-10.1,21.4-19.5,33.1-28.1
			c23-17,48.1-30.9,74.8-41.4c1.8-0.7,1-3.6-0.8-2.9c-41.5,16.2-79.3,40.7-111,72c-5.5,5.4-10.8,11.1-15.9,16.9
			c-4.4,5.1-8.4,10.2-10.3,16.8c-0.2,0.8,0.3,1.6,1.1,1.8C273.5,155.4,274.3,154.9,274.5,154.2L274.5,154.2z"/>
		<path class="st13" d="M411.3,48.6l-25.9,18.3c-5,3.7-10.2,7.1-15.6,10.2c-10.8,6.1-22.7,10.1-34.4,14"/>
		<path d="M410.6,47.3C398.4,55.9,386.4,65,373.9,73c-12,7.6-25.4,12.2-38.9,16.7c-1.8,0.6-1,3.5,0.8,2.9c13.1-4.3,26.2-8.8,38-16
			c13.2-8.1,25.6-17.7,38.3-26.6C413.6,48.9,412.1,46.3,410.6,47.3L410.6,47.3z"/>
	</g>
	<g id="boucle_d_oreille_droite">
		<path class="st14" d="M313.9,317.7c1.5,4.2,2.4,8.6,2.8,13c0.2,2.4,0.2,5,1.5,7.1c0.1,0.3,0.4,0.5,0.7,0.6c0.5,0,0.9-0.2,1.2-0.5
			c1.4-1.7,2.1-3.9,2-6.1c-0.1-2.2-0.6-4.4-1.3-6.5l-3.3-11.4c-0.5-1.7-1.4-3.7-3.1-3.8c-1.6-0.1-2.7,1.6-2.7,3.2
			c0.2,1.6,0.8,3,1.8,4.3"/>
		<path d="M312.4,318.1c1.5,4.8,2.5,9.8,2.9,14.8c0.2,2,0.5,5.6,2.6,6.6c4.7,2.4,5.8-7.1,5.5-9.7c-0.6-4.6-2.4-9.1-3.6-13.6
			c-0.7-2.4-1.2-6-3.8-7.3c-1.7-0.8-3.7-0.3-4.8,1.3c-1.9,2.6-0.4,5.6,1.1,8c1,1.6,3.6,0.1,2.6-1.5c-1.5-1.3-1-2.1,1.2-2.5l0.5,1.9
			c1,1.3,1.2,4,1.6,5.7c0.8,3,4.1,10.6,1.7,13.1c-0.3,1.5-0.7,1.4-1.4-0.3c-0.2-1.1-0.3-2.2-0.4-3.3c-0.1-1.4-0.2-2.8-0.4-4.3
			c-0.5-3.4-1.3-6.7-2.4-9.9C314.7,315.5,311.8,316.3,312.4,318.1L312.4,318.1z"/>
		<path class="st14" d="M320.9,303.8"/>
		<path d="M320.9,305.3c0.8,0,1.5-0.7,1.5-1.5s-0.7-1.5-1.5-1.5s-1.5,0.7-1.5,1.5S320,305.3,320.9,305.3z"/>
	</g>
	<g id="Moustache_italiano">
		<path class="st6" d="M138.4,338.5c-4.4,5.1-2.2,14.1,3.1,18.1s12.4,4.1,18.7,2.7s12.4-4.2,18.8-5.3c5-0.7,10-1,15-0.7h1.7
			c7.9,0.1,15.9,0.3,23.5,2.4c8.3,2.3,17.1,6.8,24.9,3.1c5.1-2.5,8.5-8.6,8.1-14.6s-4.7-11.5-10.1-13.1c-1.9-0.5-4.1-0.6-5.6,0.7
			s-1.8,4.3,0,5.4c0.9,0.3,1.7,0.6,2.6,0.7c2.9,1,3.4,5.6,1.3,8s-5.6,2.6-8.4,1.5s-5.2-3.2-7.6-5.1c-4.7-3.7-10.1-6.8-15.9-7.7
			s-12.1,0.8-16.2,5.4c-1.7-4.1-6.2-6.1-10.4-5.8s-8,2.4-11.7,4.4l-11.4,6.2c-2.7,1.5-5.4,2.9-8.4,3.2s-6.3-1.2-7.5-4.1
			c-1.4-3.2,0.5-7.4,3.7-8.3c-1.9-3.3-7.4-2.5-8.5,1.2"/>
		<path d="M137.1,337.7c-3.8,5.1-3,12.2,0.7,17.2c4.5,6.1,12.6,7.3,19.6,6.4c10.6-1.4,19.9-6.5,30.9-6.6c11.3-0.2,22.9,0,33.7,3.4
			c8,2.5,17.6,6.2,25.1,0.4c5.4-4.3,7.7-11.5,5.7-18.2c-1.8-5.6-7.4-11.7-13.9-11.1c-5.1,0.5-7,5.8-3.5,9.2c0.2,0.2,2.1,0.9,1.6,0.6
			c3.2,1.8,4.4,5.8-0.6,7.3c-3.6,1.1-7.5-2.1-10.1-4.2c-3.5-3-7.4-5.4-11.6-7.3c-8.2-3.4-17.4-2.5-23.8,4l2.4,0.3
			c-3.7-7.4-12.1-7.5-18.9-4.6c-4.6,2-8.9,4.7-13.3,7.1c-2.9,1.6-6.2,3.9-9.5,4.5c-1.7,0.3-4.1,0.3-5.6-0.8
			c-3.8-2.7-2.1-7.2,1.1-8.6c0.7-0.4,1-1.3,0.5-2c-3.2-4.3-9.2-3.3-11.2,1.6c-0.7,1.8,2.2,2.6,2.9,0.8c1.5-2.5,3.4-2.8,5.7-0.8
			l0.5-2.1c-9,3.8-4.2,15.5,4.6,15.2c10.6-0.5,32.8-24.2,40.6-8.7c0.4,0.7,1.4,0.9,2.1,0.5c0.1-0.1,0.2-0.1,0.3-0.2
			c6.7-6.9,16.3-6,24.1-1.6c5.3,3,10.2,9.3,16.6,10c3.9,0.4,7.9-1.5,8.8-5.5c0.4-1.6,0.2-3.3-0.5-4.8c-0.3-0.7-0.8-1.3-1.4-1.8
			c-0.2-0.2-3-1.4-2.9-1.1l1.8-1.8c0.7-1.8,1.6-2.3,2.8-1.4c0.8,0.2,1.5,0.6,2.1,1.1c1.6,1.1,3,2.6,4,4.4c2.4,4.2,2.5,9.4,0.1,13.6
			c-5.5,9.9-16.6,6.3-25.1,3.5c-7.3-2.3-14.9-3.5-22.6-3.6c-7.8-0.2-15.8-0.7-23.4,0.8c-8.6,1.7-16.8,6.5-25.8,5.9
			c-9.3-0.5-19.1-10.1-12.3-19.4C140.9,337.7,138.3,336.2,137.1,337.7L137.1,337.7z"/>
	</g>
	<g id="Piercing_nez">
		<path class="st14" d="M177.2,322.9c-2.2,3.9-2.9,8.5-1.9,12.9c0.3,1.9,1.3,3.6,2.8,4.9c1.1,0.7,2.2,1.2,3.5,1.5
			c2.5,0.7,5,1.2,7.6,1.5c2.5,0.5,5.1,0.5,7.7,0c2.5-0.5,4.8-2,6.2-4.2c0.9-1.8,1.4-3.7,1.4-5.7c0.2-2.5,0.1-5-0.1-7.5
			c-0.2-1.9-0.8-4.1-2.6-4.7c-1-0.2-2.1-0.2-3.1,0.2c-0.5,0.1-1.1,0.4-1.3,0.9c-0.2,0.8,0.6,1.4,1.3,1.8c2.1,1.7,2.2,4.8,2.1,7.5
			c0,1-0.1,2-0.5,3c-0.4,0.8-0.9,1.5-1.6,2c-2.3,1.8-5.2,2.7-8.1,2.4c-2.9-0.4-5.6-1.5-7.9-3.3c-1.9-1.4-3.6-3.2-3.9-5.6
			s1-4.7,2.6-6.5"/>
		<path d="M175.9,322.1c-4.1,8.1-3.9,19.1,6.2,21.7c8.8,2.2,21.8,3.5,23.7-8.2c0.6-3.7,1.2-10.1-1.1-13.5c-1.7-2.4-5.1-3-7.6-1.4
			c-3.3,2.4,1.3,5.2,1.9,7.5c1.8,6.3-3.9,10.7-9.7,9.4s-11.7-6.5-6.9-12.5c1.2-1.5-0.9-3.6-2.1-2.1c-4.9,6.2-2.9,12.1,3.9,15.8
			c5.3,2.9,14.8,3.4,17.5-3.4c1-3.1,0.9-6.5-0.3-9.5c-0.8-1.7-4.2-3.8-0.5-1.5c2.5,1.5,2.1,2.8,2.2,5.6c0,1.3,0,2.5-0.1,3.8
			c-0.9,10-10.7,9.2-18.2,7.6c-3.6-0.8-7-1.9-8-5.9c-0.9-4-0.3-8.2,1.7-11.7C179.4,321.9,176.8,320.4,175.9,322.1L175.9,322.1z"/>
	</g>
	<g id="Fraicheur">
		<path class="st15" d="M89.9,194.5c7.7,3,16.5,0.1,20.8-7c2.2-3.8,4.3-9.3,8.6-8.5c1.3,0.4,2.6,1,3.7,1.8
			c4.8,2.5,11.6-0.6,12.9-5.9c0.5-2,0.4-4.4,1.8-5.9c2.4-2.4,6.2-0.5,9.3,0.8s8.2,0.2,7.6-3c1.9,2.2-0.2,5.4-0.4,8.3
			c-0.2,3.2,2.2,6.2,5.1,7.7s6.3,1.7,9.5,1.9c10,0.7,21.3,1,28.8-5.7c2.7-2.4,4.6-5.6,7.4-7.8s7.1-3.3,9.9-1.1
			c2.6,2.1,3.5,6.7,6.9,7c3.6,0.4,5.6-4.6,9.2-5c1.2-0.1,2.3,0.2,3.4,0.7c8.5,3.3,15.9,9.2,21,16.7c1.6,2.4,3.9,5.4,6.7,4.6
			c2-0.6,3.1-2.9,5.1-3.5c1.5-0.4,3,0.2,4.5,0c5.8-0.8,4.7-11.4,10.3-13.3c3.4-1.2,7.3,1.8,10.7,0.6c5-1.8,4.2-10.7,9.2-12.3
			c1.3-0.4,2.7-0.2,3.9-0.8c1.5-0.8,2.2-2.6,2.6-4.2c0.7-2.5,1.3-5,1.8-7.6c1.2-6.9,1.4-14.2-1.3-20.6s-9.1-11.6-16.1-11.3
			c-3.7,0.2-8,1.7-10.8-0.7c-1.6-1.3-2.2-3.5-2.4-5.5c-0.5-4.6,0.3-10.1-3.1-13.3c-2.1-2-5.2-2.4-7.9-3.3c-4.7-1.6-8.6-5-10.8-9.5
			c-1.9-3.7-2.6-8.3-5.8-10.9c-2.8-2.3-6.9-2.5-10.5-1.6s-6.8,2.7-10.2,4c-14.1,5.2-30,2.3-41.3-7.6c-1.2-1.3-2.7-2.4-4.2-3.2
			c-1.6-0.6-3.3-0.9-5.1-0.8L166.3,68c-4.7-0.2-9.6-0.3-14.1,0.9s-8.9,4.2-10.6,8.6c-2.2,5.6-0.2,13-4.6,17c-2,1.8-4.7,2.3-7.2,3
			c-11.5,3.1-21.6,10.1-28.5,19.8c-0.9,1.4-2,2.8-3.1,4c-1.6,1.4-3.4,2.6-5.2,3.7c-7.2,5.3-10.7,14.2-9,22.9c0.5,1.9,1,3.9,1.2,5.9
			c0.7,9-8.8,15.6-10.4,24.5c-0.3,1-0.2,2,0.3,2.9c0.8,1.3,2.6,1.6,3.8,2.4c2.7,1.9,2.1,5.9,1.7,9.1s0.2,7.6,3.5,8.1l5.2-6.2"/>
		<path d="M89.5,196c6.7,2.5,14.1,1,19.4-3.8c2.9-2.7,3.9-6.4,6.3-9.4s5.1-1.4,8.1-0.3c1.5,0.6,3.2,0.8,4.8,0.6
			c2.9-0.3,5.5-1.8,7.4-4c3-3.7,1.2-10.8,8.5-8.9c3.1,0.8,5.5,2.4,8.8,1.3c2.2-0.8,3.6-2.3,3.5-4.7l-2.8,0.8c1.5,2.7-0.9,6-0.5,8.9
			c0.2,1.6,0.9,3.2,1.9,4.4c2.8,3.6,7.3,4.6,11.6,5.1c9.9,1,21.7,1.7,30.2-4.4c4.4-3.1,7.1-9.4,12.5-10.9c7-2.1,6.7,7,12.4,7.9
			c3,0.5,4.7-1.8,6.9-3.4c6.1-4.3,16.7,4.9,20.9,9.1c3,3.1,5.1,8,8.8,10.3c5,3.1,6.2-2.1,10.7-2.7c3-0.4,4.9,0.5,7.2-2.2
			c2.5-2.9,2.5-8.9,6-10.8c3.8-2.1,8.4,2.2,12.4-0.2c3.4-2,3.6-6.2,5.5-9.2c2.3-3.7,7.1-2.1,9.3-6.4c2.5-4.9,3.2-11.7,3.4-17.2
			c0.4-9.8-2.9-20.4-12.3-24.8c-4.7-2.2-8.3-0.6-13.2-0.9c-8.7-0.6-5-11.3-7.5-16.8c-1.9-3.9-5.4-4.8-9.2-6.1
			c-7.3-2.5-10.4-7.3-13.2-14.1c-4-9.6-12.3-10.2-21.2-6.5c-12.1,5-24.2,6.6-36.4,0.6c-4.8-2.4-8.2-7-13-9.1
			c-5-2.3-12.2-1.3-17.6-1.5c-9.5-0.4-22-1.1-27.8,8.3c-2.5,4.2-1.9,8.8-2.9,13.4c-1.6,7.8-10.6,7.8-16.7,10.5
			c-5.3,2.3-10.2,5.5-14.4,9.4c-5,4.6-8.2,10.7-13.8,14.7c-9,6.4-13.1,16.1-10.7,27c1.6,7.4-0.9,11.8-4.8,17.9
			c-2.1,3.3-6.5,9.7-4.4,13.9c0.8,1.6,2.2,1.8,3.5,2.8c3.5,2.7,2,6,1.9,9.5s0.9,7.2,4.7,8.5c0.5,0.2,1.1,0,1.5-0.4l5.2-6.2
			c1.2-1.5-0.9-3.6-2.1-2.1c-1.4,1.7-4,7.1-5.9,3.3c-0.9-1.8,0-4.8,0.1-6.7c0.2-3-0.2-6-2.8-7.9c-0.5-0.3-1.7-0.6-2.1-1.1
			c-2.2-2.2-0.8-5.2,0.3-7.3c0.9-1.9,2-3.6,3.2-5.4c2.3-3.6,4.9-7.4,5.6-11.8c0.6-4.1-1.2-7.8-1.5-11.8c-0.4-5.9,1.7-11.8,5.7-16.2
			c3.4-3.6,7.8-5.4,10.8-9.5c3.4-4.9,7.6-9.2,12.3-12.8c4.3-3.1,9-5.5,14-7.1c4-1.3,8.6-1.8,11.3-5.3c2.1-2.8,2.3-6.4,2.6-9.8
			c0.8-7.4,4-12.5,11.6-14.3c5.9-1.4,12.3-0.7,18.3-0.5c2.7,0.1,5.4,0.2,8.1,0.3c4.7,0.2,6.9,1.8,10.3,4.6c7,5.8,15.7,9.1,24.8,9.6
			c4.2,0.2,8.4-0.2,12.5-1.2c5.9-1.5,11.4-5.6,17.6-5.8c7.3-0.2,8.6,5.6,11,11c1.7,3.8,4.4,7.1,7.9,9.4c4.8,3,12,2.5,13.6,9
			c1.1,4.3-0.5,9.4,2.2,13.3c1.7,2.6,4.5,3.2,7.4,3.2c6.5-0.2,11.3-1.2,16.4,3.9c4.6,4.5,6.1,10.9,6.1,17.1c0,5.5-0.4,17.5-6.3,19.6
			c-2.8,1-4.4,1.4-6,4.2c-2.7,4.8-2.3,9.4-9.5,8.1c-2.9-0.5-5.5-1.2-8.1,0.7s-3.2,4.9-4.4,7.6c-0.6,1.4-1.3,3.5-2.8,4.3
			c-1.9,1-4.2-0.2-6.1,0.5c-2.9,1-3.5,4.5-7.6,2.2c-1.8-1-3.1-4-4.4-5.7c-3.4-4.3-7.5-8-12.2-10.8c-3.3-2-8.6-5.4-12.7-4.1
			c-1.8,0.6-2.7,2-4.2,3c-1.4,0.9-3.4,1.8-5.2,0.7c-1-0.6-1.7-2.5-2.4-3.5c-2.2-2.9-5.1-4.2-8.9-3.4c-4.8,1.1-7.6,5.2-10.8,8.6
			c-4.7,5-11.1,6.8-17.8,7.2c-5.9,0.3-13.4,0.6-18.9-1.5s-5.6-5.9-4.7-10.9c0.4-1.7,0.1-3.5-0.8-5c-0.4-0.7-1.4-0.9-2.1-0.5
			c-0.4,0.3-0.7,0.7-0.7,1.2c0.1,4.8-9.5-0.1-11.3-0.3c-1.9-0.3-3.8,0.2-5.1,1.5c-2.3,2.3-1.4,5.8-3,8.4c-1.6,2.4-4.2,3.8-7.1,3.8
			c-2.2-0.1-3.5-1.4-5.4-2.1c-5.2-1.8-7.9,1.8-10.3,5.9c-4.4,7.7-11.5,12.5-20.6,9.1C88.5,192.5,87.7,195.4,89.5,196L89.5,196z"/>
	</g>
	<g id="Mi-long">
		<path class="st16" d="M83.1,241.4c3.5-14.8,15.2-27.1,16.2-42.2c0.2-3.1-0.1-6.5,1.3-9.3c1-2,2.8-3.6,3.8-5.6
			c2.7-5.2-0.3-11.8,1.3-17.4c1.2-4.1,4.6-7.1,8.4-9c13-6.7,28.7-2.2,43.3-1.1c5.9,0.4,11.8,0.4,17.6,0.1
			c24.9-0.9,49.8-3.4,74.5-7.2c6.9-1.1,14.8-2,20.1,2.6c6.1,5.3,5.2,14.7,6.4,22.8c2.8,19.7,19.5,33.9,32,49.3
			c4.9,6.1,9.4,12.9,10.2,20.7c7-29.3,2.4-60.1-12.9-86c-3.9-6.4-8.2-12.6-12.9-18.5c-3.3-4.5-7-8.7-11-12.6
			c-10-9.4-23.1-14.8-36-19.4c-13.8-4.9-27.9-9.1-42.5-10c-9.4-0.5-18.8,0.3-28.1,1.2c-7.8,0.7-15.8,1.5-22.8,5
			c-6,3-10.9,7.8-16,12.2c-19.3,16.7-43.6,30.5-52.1,54.5c-3,8.4-3.7,17.5-4.4,26.4L76.1,239c-0.4,4.8-0.3,10.5,3.7,13.1
			c0.7-3.7,0.9-7.5,0.7-11.2"/>
		<path d="M84.5,241.7c2.7-10.3,8.7-19,12.8-28.8c1.9-4.4,3.1-9.1,3.5-13.8c0.2-3.6,0-6.8,2-10c1.2-2,2.9-3.6,3.7-5.9
			c1.7-5.2-0.8-10.8,0.8-16c2-6.6,9.8-9.7,15.9-10.9c11.7-2.2,23.6,1.2,35.3,1.9c13,0.9,26.3-0.3,39.3-1.2s25.6-2.3,38.4-4
			c10-1.3,28.9-7.9,35.2,3.6c2.5,4.6,2.4,10.3,2.9,15.4c0.5,5.1,1.7,10.1,3.7,14.8c4.1,9.6,11,17.8,17.9,25.6
			c8.5,9.7,19.2,19.6,21,33c0.2,1.5,2.6,1.4,2.9,0c6.9-28.8,2.6-59.1-11.8-85c-7.4-13.1-17.3-27.4-29.1-36.8
			c-11.1-8.8-24.8-13.9-38.1-18.4c-15.6-5.3-31.5-8.8-48.1-8.3c-8.2,0.3-16.4,1-24.5,2c-6.9,0.9-13.8,2.4-19.8,6.1
			s-10.9,8.7-16.2,13.2c-5.2,4.3-10.5,8.4-15.8,12.6c-10.2,8.1-20.4,16.6-27.6,27.6c-9.3,14.2-10.1,30.8-11.4,47.2L75,235.1
			c-0.5,6.2-1.7,13.7,3.8,18.1c0.8,0.6,2.3,0.6,2.5-0.7c0.7-3.8,0.9-7.7,0.7-11.6c-0.1-1.9-3.1-1.9-3,0c0.2,3.6,0,7.3-0.6,10.8
			l2.5-0.7c-5.5-4.4-3.1-13.9-2.6-19.9l2-25.5c1.1-14.6,1.5-29.6,9-42.6c6-10.5,15.1-18.7,24.4-26.3c9.5-7.7,19.1-15.2,28.4-23.2
			c5.9-5.1,12-8.8,19.7-10.5c7.3-1.6,14.9-2,22.3-2.6c15.2-1.2,30.5,0.3,45.2,4.4c13.5,3.8,27.3,8.5,39.4,15.6
			c12.8,7.6,21.8,19.4,30.1,31.4c18.8,27,25.3,60.7,17.9,92.7h2.9c-1.5-11.4-9.3-20.1-16.6-28.5c-7.7-8.7-16-17.3-21.2-27.8
			c-2.7-5.6-4.4-11.6-4.8-17.8c-0.4-4.5-0.6-9.3-2.3-13.6c-3.8-9.5-13.5-10.5-22.6-9.3c-28.9,3.7-57.7,7.9-86.9,7.8
			c-12.8,0-25.6-3.7-38.5-2.6c-8.5,0.7-19.8,4.3-22.5,13.6c-0.8,2.8-0.6,5.6-0.4,8.4c0.2,1.6,0.2,3.2,0.1,4.9
			c-0.3,3.4-2.1,5.2-3.8,7.9c-3.3,5.1-1.9,11.5-3.3,17.2c-3.2,12.8-12,23.3-15.3,36.2c-0.2,0.8,0.3,1.6,1.1,1.8
			C83.5,243,84.3,242.5,84.5,241.7L84.5,241.7z"/>
		<path class="st16" d="M310.8,333c-3.6,27.6,1.3,55.6,14.1,80.3c5.9,11.4,13.5,22.2,15.7,34.8c-20.2,3.2-40.6-8.2-60.9-5.6
			c-4.8,0.6-10.6,1.6-13.5-2.2c-2-2.5-1.6-6.2-0.1-9s4-4.9,6.4-7c9.4-8.2,17.3-18,23.4-28.9c9.4-17.4,13.2-37.4,10.7-57.1"/>
		<path d="M309.3,333c-2.6,20.3-0.6,40.9,5.7,60.4c3.1,9.2,7,18.1,11.8,26.5c5.1,9.1,10.4,18.2,12.4,28.6l1-1.9
			c-16,2.2-31.3-3.9-47-5.6c-3.9-0.5-7.9-0.5-11.9-0.2c-3.4,0.3-7.2,1.4-10.6,0.5c-13.2-3.1,4.9-17.7,8.3-21.2
			c21.5-21.7,32.6-51.3,28.9-81.8c-0.2-1.9-3.2-1.9-3,0c2.4,18.8-1,37.9-9.6,54.8c-4.2,7.9-9.3,15.3-15.4,21.9
			c-4.9,5.3-13.1,10.2-15.8,17c-1.8,4.7-0.4,10,4.6,11.9c2.6,1,5.6,0.7,8.3,0.4c4.3-0.6,8.6-0.8,12.9-0.6
			c17.3,1.1,33.6,8.3,51.2,5.8c0.8-0.2,1.3-1.1,1-1.9c-1.7-9-5.8-17-10.2-24.9c-5.1-9.2-10-18.5-13.5-28.5
			c-6.7-19.7-8.7-40.6-6.1-61.3C312.6,331.1,309.6,331.1,309.3,333z"/>
		<path class="st16" d="M86.6,321.6l-1.5,36.2c-0.5,11.7-1.2,24.1-8,33.6c-2,2.8-4.4,5.2-6.5,7.9c-7,9-9.6,20.6-12,31.8
			c-0.3,1.5-0.6,3.2,0.5,4.3c1.2,1.2,3.2,0.8,4.9,0.4c19.6-5,40.7,8.6,60,2.7c3.7-1.1,7.9-4.6,6.3-8.2c-0.8-1.7-2.7-2.6-4.3-3.6
			c-8.6-5-13.2-14.6-16.7-23.9c-7.2-19-12.2-38.8-14.9-59c-0.8-6.3-2.4-13.9-8.4-15.8"/>
		<path d="M85.1,321.6c-0.6,13.1-1,26.3-1.7,39.4c-0.7,12.8-2.7,24-11.2,34c-7,8.1-10.7,17.4-13.3,27.7c-1.6,6.6-5,16.5,5.4,14.5
			c12-2.3,23.2,0.7,34.9,2.8c8.6,1.5,19.9,3.3,28-1.4c2.5-1.5,5.1-4,4.9-7.2c-0.3-4.4-5.8-6-8.7-8.4c-8.6-7.2-12.4-19.2-15.8-29.4
			c-4.6-13.4-8-27.2-10.4-41.1c-1.5-8.8-1-22-10.8-26c-1.8-0.7-2.6,2.2-0.8,2.9c4.7,1.9,6,7.1,6.9,11.6c1,5.3,1.5,10.7,2.5,16
			c1.9,10.3,4.4,20.5,7.4,30.5c2.8,9.1,5.8,18.6,10.5,27.1c1.7,3.2,3.8,6.1,6.3,8.7c1.1,1.1,2.3,2.2,3.6,3.1c1,0.7,2.2,1.2,3.1,2
			c3,2.6,2.9,6-0.1,7.7c-8.9,5.1-21.9,1.8-31.2,0c-8.5-1.7-17.2-3.6-25.8-2.6c-1.8,0.2-4.5,1.3-6.2,1.1l-1.1,0.2
			c-1.2-1-1.6-2.6-1.1-4c0.2-1.4,0.5-2.7,0.9-4c1-4.8,2.4-9.6,4.1-14.2c1.7-4.9,4.3-9.5,7.5-13.6c2.9-3.5,6-6.8,8.1-10.9
			c4.5-8.8,5.3-19,5.7-28.7c0.6-12.6,1.1-25.2,1.6-37.8C88.2,319.6,85.2,319.6,85.1,321.6L85.1,321.6z"/>
	</g>
	<g id="lunette_ingenieur">
		<rect x="101.6" y="251.6" class="st3" width="77" height="25"/>
		<rect x="202.6" y="251.6" class="st3" width="77" height="25"/>
		<line class="st2" x1="101.6" y1="264.6" x2="82.6" y2="254.6"/>
		<line class="st2" x1="178.1" y1="259.6" x2="202.1" y2="259.6"/>
		<line class="st2" x1="279.6" y1="266.6" x2="318.6" y2="247.6"/>
	</g>
	<g id="Bonnet">
		<path class="st17" d="M70.8,240.8c0.1-5,4.3-8.9,8.2-12c27.2-21.1,61.4-31.9,95.8-34.8s68.9,2,102.4,9.8
			c15.4,3.6,31.1,8,43.6,17.7c-0.5-14.7-1-29.5-4.3-43.8s-9.4-28.3-19.8-38.7c-4.1-3.9-8.5-7.4-13.1-10.7
			c-25.3-18.6-53.2-36.9-84.6-37.9c-13.6-0.4-27.1,2.6-40.1,6.5c-32.9,9.9-65.8,27.9-80.9,58.8c-2.8,6-5.2,12.2-7.1,18.6
			c-3.9,12.2-7.3,24.8-7.6,37.6s2.8,26.1,10.8,36.2"/>
		<path d="M72.3,240.8c0.9-8.5,12-14.3,18.5-18.4c6.7-4.2,13.6-8,20.8-11.1c15.2-6.7,31.2-11.3,47.5-13.8c36-5.7,72.9-1.8,108.3,5.8
			c18.3,3.9,37.3,8.2,52.6,19.6c0.7,0.4,1.6,0.2,2-0.5c0.1-0.2,0.2-0.5,0.2-0.7c-1-29.2-2.7-62.4-25.1-84.2
			c-10.6-10.3-23.8-18.7-36.3-26.5s-25.6-14.6-39.8-18.5c-28.9-8-59.2-0.1-86,11.7c-23.7,10.4-46.2,26.6-58.1,50.2
			c-7.6,15.5-12.5,32.2-14.6,49.4c-1.8,15.8,0.6,32.3,10.4,45.1c1.2,1.5,3.8,0,2.6-1.5c-18.4-24.2-9.2-57.9,0.8-83.7
			c9.7-24.8,30-42.2,53.5-53.7c24.7-12.2,54.8-21.6,82.4-16.5s51.6,21.8,73.5,38.3c13.1,9.5,22.7,23.1,27.4,38.6
			c5.1,16.6,5.7,34.1,6.3,51.3l2.3-1.3c-14.2-10.6-31.6-15.1-48.6-18.9c-19.1-4.4-38.5-7.4-58.1-8.9c-35.9-2.5-72.6,1.6-105.5,16.5
			c-9,4-17.6,8.9-25.6,14.6c-6.2,4.4-13.5,9.1-14.4,17.3C69.1,242.7,72.1,242.6,72.3,240.8z"/>
		<path class="st17" d="M69.5,192.8c56.1-39.3,131.1-50.1,196-28.4"/>
		<path d="M70.2,194.1c56.2-39,129.9-49.7,194.8-28.2c1.8,0.6,2.6-2.3,0.8-2.9c-51.1-16.9-107.7-14.2-157.2,6.6
			c-14,5.9-27.4,13.3-39.9,21.9C67.2,192.6,68.7,195.2,70.2,194.1z"/>
		<path class="st17" d="M175.6,91.8c0.2-2,1.1-4,2.5-5.4c1.5-1.5,3.6-2,5.6-1.5c2,0.7,3.2,2.7,2.9,4.8c-3.3,0.9-6.7,1.4-10.1,1.5"/>
		<path d="M177,92.2c0.3-2.1,1-4.2,2.9-5.4s5.6-0.6,5.2,2.4l1-1c-3.2,0.8-6.5,1.3-9.7,1.4c-1.9,0.1-1.9,3.1,0,3
			c3.6-0.2,7.2-0.7,10.6-1.6c0.5-0.1,0.9-0.5,1-1.1c0.6-3.2-1.6-6.3-4.8-6.8c-0.5-0.1-1-0.1-1.5-0.1c-4.4,0.3-7,4.3-7.6,8.2
			C173.8,93.3,176.7,94.1,177,92.2z"/>
	</g>
	<g id="casquette">
		<path class="st18" d="M318.1,198.8"/>
		<path d="M318.1,200.3c0.8,0,1.5-0.7,1.5-1.5s-0.7-1.5-1.5-1.5s-1.5,0.7-1.5,1.5S317.2,200.3,318.1,200.3z"/>
		<path class="st18" d="M73.5,213.1c-4.1,0.8-0.6,3-3.9,5.6s-12.9,6.1-10.9,9.9c2.2,4.1,7.7,4.7,12.2,4.7
			c71.6,0.5,143.4-1.5,214.7-8.5c13.5-1.3,47.4-1.4,48-11c0.5-8.2-17.3-14.6-16-15"/>
		<path d="M73.1,211.6c-4.1,1.2-3.2,5.2-6.7,7.3c-2.9,1.7-7.5,3.4-9.1,6.8c-1.2,2.8,0.8,5.3,3,6.8c4.1,2.7,9.8,2.3,14.5,2.3
			c31.6,0.2,63.1-0.1,94.6-1.2c30.9-1,61.7-2.7,92.5-5.2c11.8-1,23.5-2.2,35.2-3c8.9-0.6,18-1.1,26.7-3.3c5.2-1.3,13-4.3,10.7-11.1
			c-1.1-3.4-4.2-5.8-6.9-7.8c-1.8-1.3-3.7-2.4-5.7-3.4c-1.1-0.5-2.2-1-3.2-1.7l-0.2,1.8l0.1-0.1c1.4-1.4-0.7-3.5-2.1-2.1l-0.1,0.1
			c-0.5,0.5-0.6,1.2-0.2,1.8c0.6,1.2,2.5,1.8,3.6,2.4c3.2,1.7,6.6,3.5,9.2,6.1c6.8,6.7-0.6,9.9-6.9,11.4c-7.8,1.9-15.8,2.4-23.8,2.9
			c-9.5,0.6-19,1.5-28.5,2.4c-53,4.7-106.3,6.7-159.5,7.1c-7.2,0-14.5,0.1-21.7,0.1c-7.3,0-15.3,0.9-22.5-0.4
			c-3.4-0.6-8-3.5-3.7-6.6c1.7-1.2,3.7-2.2,5.5-3.3c1.5-0.7,2.8-1.7,3.9-3c0.9-1.3,0.4-3.5,2.1-3.9C75.7,214,75,211.1,73.1,211.6
			L73.1,211.6z"/>
		<path class="st19" d="M69.5,218.1c-2.3-13.4-3.6-26.9-3.9-40.5c-0.2-8.2,0-16.8,3.4-24.2c4.5-9.9,13.8-16.5,22.6-22.6
			c18.5-12.8,37.1-25.6,57.5-34.8c10.4-4.7,21.5-8.4,32.9-9.1c8.8-0.5,17.6,0.7,26.2,2.5c31.5,6.4,61.5,19.1,88,37.4
			c2.6,1.6,5,3.7,6.9,6.1c2.7,3.6,3.6,8.3,4.5,12.8c3.4,17.5,6.8,34.9,10.2,52.4L98.1,212.6c-10.1,0.7-20.5,1.4-29.9,5.2"/>
		<path d="M71,217.8c-2.3-13.8-3.6-27.8-3.9-41.9c-0.2-13.1,2.3-24.4,12.1-33.6c8.8-8.3,19.7-14.8,29.8-21.5c10.3-7,21-13.4,32-19.1
			c11.8-6,24.3-11.3,37.6-12.9c13-1.5,26.2,1.1,38.8,4.2c23.7,5.8,46.4,15.3,67.2,28c5.5,3.4,12.4,6.9,16.7,11.8
			c4.6,5.3,5.1,13.5,6.4,20.1c2.9,15.2,5.9,30.4,8.9,45.6l1.5-1.9l-199.2,13.1c-16.8,1.1-35.1,0.5-51.1,6.6c-1.8,0.7-1,3.6,0.8,2.9
			c9.5-3.6,19.5-4.5,29.5-5.1l31.7-2.1l62.4-4.1l125.8-8.3c0.8,0,1.5-0.7,1.5-1.6c0-0.1,0-0.2,0-0.3l-8.7-44.6
			c-1.1-5.6-1.7-11.6-4-17s-6.5-8.4-11.1-11.5c-21.9-14.8-46.1-25.9-71.6-32.9c-12.9-3.5-26.6-6.7-40-6.3
			c-13,0.4-25.5,4.8-37.2,10.2c-12.1,5.7-23.7,12.3-34.8,19.7c-10.6,6.9-21.6,13.8-31.4,21.9c-10.8,8.8-16,19.6-16.4,33.5
			c-0.5,16,1.4,32.3,4,48C68.5,220.4,71.3,219.6,71,217.8L71,217.8z"/>
		<path class="st19" d="M174.9,86.4c-0.1-2.1,1.6-3.8,3.6-3.9c1.9-0.1,3.6,1.3,3.9,3.2"/>
		<path d="M176.4,86.4c0-1.3,1-2.3,2.2-2.3c1.2,0,2.2,0.8,2.3,2c0.4,1.9,3.3,1.1,2.9-0.8c-0.5-2.9-3.2-4.8-6.1-4.3
			c-2.6,0.4-4.5,2.8-4.4,5.4c0,0.8,0.7,1.5,1.5,1.5S176.4,87.3,176.4,86.4L176.4,86.4z"/>
	</g>
</g>
</svg>
