<svg xmlns="http://www.w3.org/2000/svg" viewBox="0 0 221.23 278.9"><defs><style>.cls-1{fill:none;}.cls-1,.cls-2{stroke:#000;stroke-miterlimit:10;stroke-width:3px;}.cls-3{fill:#e8a828;}.cls-4{fill:#f2dae9;}</style></defs><title>Fichier 1</title><g id="Calque_2" data-name="Calque 2"><g id="charles"><path class="cls-1" d="M69.15,155.78c1.26-1.34,2.85-.39,6.32-1.15,3.82-.84,3.69-2.4,8.61-4.6,2.44-1.08,6.29-2.8,10.92-2.29.8.08.2.08,6.32,1.72,5.94,1.59,6.33,1.55,7.47,2.3,2.69,1.77,2.81,3.54,5.17,4,1.88.38,2.49-.6,4,0,1.32.52,1.59,1.53,3.45,4.6,2.64,4.35,3.26,4.22,3.45,5.74.25,2.08-.73,3.71-2.3,6.32-1.78,2.95-2.91,4.82-5.17,5.75-3.86,1.57-9-.44-9.19-2.3-.11-.95,1.11-1.24,2.87-3.45,1.09-1.37,3.42-4.3,2.87-6.89-.67-3.14-5.27-4.52-7.47-5.17a21.14,21.14,0,0,0-8.62-.58c-3.16.36-3.38,1-6.32,1.15-3.16.14-3.47-.59-6.89-.57s-5.69,0-7.47,1.72A6.81,6.81,0,0,0,75.47,169c1.11,3,4.44,3,4.59,5.17.13,1.78-1.93,3.88-4,4-2.66.19-4.47-2.85-5.17-4-1.34-2.24-1-3.44-1.72-10.34C68.55,158.23,68.1,156.89,69.15,155.78Z"/><path class="cls-1" d="M77.77,154.06a12.23,12.23,0,0,0,2.29,1.72,15.69,15.69,0,0,0,5.17,1.72,34.74,34.74,0,0,0,4,.58,40.53,40.53,0,0,0,12.64-.58,41.67,41.67,0,0,0,5.74-1.72c1.62-.6,3-1.22,4-1.72"/><path class="cls-1" d="M84.66,151.18a9.34,9.34,0,0,0,2.3.58,11.73,11.73,0,0,0,2.3,0,35.72,35.72,0,0,1,4,0c2.81.08,3.54.37,5.17,0a9.38,9.38,0,0,0,1.72-.58"/><path class="cls-1" d="M33,86.26c-.8,1.5,1.12,4.09.58,5.75,0,.1-.14.4,0,.57.28.35,1.14-.31,1.72,0,.89.47.58,2.87.57,2.87a3.62,3.62,0,0,1,0-.57c.06,0,.3,1.41.58,2.87,0,0,.21,1.13.57,2.87a28,28,0,0,0,2.3,7.47,12.44,12.44,0,0,0,2.87,4,12.08,12.08,0,0,0,4,2.3c2,.73,3.88,1,8,1.15A94.84,94.84,0,0,0,66.85,115c4.2-.45,5.38-.8,6.32-1.15a19.26,19.26,0,0,0,6.32-4,22.11,22.11,0,0,0,2.87-3.45,34.76,34.76,0,0,0,4-7.47,22.87,22.87,0,0,0,1.73-5.17c.28-1.71.09-2.16.57-2.87,1.41-2.09,5.9-2.36,7.47-.58.32.37.25.51,1.15,2.88,0,0,.33.86,1.15,2.87a28.36,28.36,0,0,0,4.59,8,22.22,22.22,0,0,0,5.75,4.6c3.71,2.07,7,2.48,10.34,2.87,5.65.66,9.7-.08,15.51-1.15,4.62-.84,6.43-1.6,8.05-2.87a14.84,14.84,0,0,0,4-5.17,23.09,23.09,0,0,0,2.3-9.19c.05-2.15-.16-6.5,1.15-7.47a4.78,4.78,0,0,0,1.14-1.15,4.85,4.85,0,0,0,.58-1.15,10,10,0,0,0,.57-3.45c0-1.46,0-2.28-.57-2.87a2.24,2.24,0,0,0-1.15-.58,65.1,65.1,0,0,0-12.06-1.15c-3,0-2.18,0-4,0a124.56,124.56,0,0,0-19.53,1.73c-4.91.84-7.37,1.27-9.77,2.3a44.65,44.65,0,0,1-5.74,2.29,28.17,28.17,0,0,1-5.17,1.15,27.07,27.07,0,0,1-6.32,0c-4.84-.46-7.53-1.14-10.92-1.72a85.48,85.48,0,0,0-12.64-1.15,75.74,75.74,0,0,0-12.64.58c-10,1.33-10.22,3.53-16.66,4.59C34.63,85.21,33.42,85.39,33,86.26Z"/><path class="cls-1" d="M151.88,84.54a7.84,7.84,0,0,0,3.45,0c1.34-.33,2-.9,2.87-.58s.78.85,1.72,1.15a2.56,2.56,0,0,0,1.73,0c1-.41.83-1.32,1.72-1.72s1.66.43,2.3,0,.81-2.32,0-3.45a3.44,3.44,0,0,0-1.73-1.15c-2.43-.9-4.44-.62-8.61-.57-1,0-1.86,0-2.3,0"/><path class="cls-1" d="M82.36,115a14.92,14.92,0,0,0-2.3,1.72,11.71,11.71,0,0,0-4,6.9,4.33,4.33,0,0,0,.58,3.44,3.18,3.18,0,0,0,2.29,1.15c1.81,0,2-2.12,4-2.87,2.3-.85,5.62.55,6.89,2.87a5.08,5.08,0,0,1,.57,1.73"/><path class="cls-1" d="M96.15,129.35a3.91,3.91,0,0,1,.57-2.3,4.51,4.51,0,0,1,2.88-1.72,6.73,6.73,0,0,1,3.44,0,3.59,3.59,0,0,1,2.3,1.15,3,3,0,0,1,.58,1.72"/><path class="cls-1" d="M109.94,129.35a6.2,6.2,0,0,0,2.3-3.45c.34-1.59-.19-2.88-1.15-5.17a28.53,28.53,0,0,0-2.87-5.17"/><path class="cls-1" d="M99.6,81.09a19.61,19.61,0,0,1,8-7.47c1.49-.71,1.8-.59,12.07-2.3,5.05-.84,6.8-1.17,9.76-1.15a19.91,19.91,0,0,1,7.47,1.15,16.08,16.08,0,0,1,5.75,4"/><path class="cls-1" d="M83.51,81.66a17.47,17.47,0,0,0-6.32-4c-1.53-.54-2.65-.69-8.62-1.15-5.06-.39-7.61-.58-8.62-.57-4.57,0-7.37.11-10.34,1.72a14.43,14.43,0,0,0-4.59,4"/><path class="cls-1" d="M163.37,101.2c2.38,1.93,2.85,3.52,2.87,4.59,0,2.63-2.6,4-2.3,6.32.22,1.64,1.74,2.78,2.88,3.45"/><path class="cls-1" d="M166.82,95.45a38.62,38.62,0,0,1,5.74-9.76c1.63-2,2.38-2.47,2.88-2.3,1.09.37.93,3.81.57,6.89"/><path class="cls-1" d="M34.1,98.9a10.88,10.88,0,0,0,0,5.17c.66,2.52,1.81,2.8,2.3,5.17.32,1.55-.1,1.82-.58,6.32-.39,3.69-.29,5.14-.57,5.17s-.91-1.54-2.3-9.19"/><path class="cls-1" d="M39.85,90.28a12,12,0,0,0-.58,6.9A23.78,23.78,0,0,0,41,102.92c1.4,3.71,2.1,5.56,3.44,6.9,1.79,1.78,3.86,2.24,6.9,2.87,6,1.24,10.89.39,16.08-.58,3.7-.68,5.58-1,7.47-2.29a18.27,18.27,0,0,0,5.75-6.9,30,30,0,0,0,2.3-5.74c1-3.07,1.48-4.64,1.14-6.32a8.41,8.41,0,0,0-2.87-4.6c-2.09-1.84-4.49-2.21-9.19-2.87a68.88,68.88,0,0,0-8-.58c-.76,0-3.63-.11-7.47,0a36.1,36.1,0,0,0-6.9.58,14.89,14.89,0,0,0-5.74,2.3A11,11,0,0,0,39.85,90.28Z"/><path class="cls-1" d="M101.32,86.84c.8-1.53,2.13-2.3,4.6-3.45a48.49,48.49,0,0,1,8.62-3.45,52.36,52.36,0,0,1,15.51-1.72,39.4,39.4,0,0,1,10.34,1.72,7.92,7.92,0,0,1,4,2.3c1.16,1.36,1.39,2.87,1.72,5.17a25.49,25.49,0,0,1,0,6.89c-.33,2.8-.56,4.67-1.72,6.9a12.47,12.47,0,0,1-4.6,5.17c-.63.38-1.65.9-5.74,1.72a51.47,51.47,0,0,1-7.47,1.15c-2.81.17-11.86.71-17.81-4a25.66,25.66,0,0,1-3.45-3.45,22.91,22.91,0,0,1-2.87-4.59,15.57,15.57,0,0,1-1.72-5.75A8,8,0,0,1,101.32,86.84Z"/><path class="cls-1" d="M24.91,88.56a3.74,3.74,0,0,1,2.87-2.3c1.93-.17,3.22,2.13,4,1.72s.2-3,0-4c-.82-3.94-.36-8-.57-12.06a61,61,0,0,1,1.15-14.37,63.33,63.33,0,0,1,6.32-20.1c3.92-7.45,8.48-12,12.64-16.09S61.37,11.49,70.87,7A50.45,50.45,0,0,1,87.53,1.8a49.81,49.81,0,0,1,23,2.88c2.65,1,1.6.9,12.07,5.74,5.42,2.51,7.27,3.27,10.91,5.17a66.85,66.85,0,0,1,9.77,5.75A39,39,0,0,1,153,31.11c1.57,2.36,3,6.77,5.74,15.51,4,12.71,3,11.71,4.6,14.94a22.21,22.21,0,0,1,2.87,8.61c.14,1.52,0,1.75,0,5.17,0,4.63.1,8.38,1.15,8.62.8.19,1.18-1.86,3.45-2.87a5.23,5.23,0,0,1,4.6,0c1.53,1,1.86,3.24,1.72,7.47a93.82,93.82,0,0,1-2.87,19c-1.29,5.42-1.7,6.16-1.73,8.62s.35,4-.57,6.32a14.15,14.15,0,0,1-2.87,4,33.69,33.69,0,0,1-5.18,4.59c-5.83,4.23-2.31,18.92-6.89,32.75a44.37,44.37,0,0,1-9.19,15.51c-5.65,6.49-12.46,10.54-25.86,18.39-5.35,3.13-8,4.7-9.19,5.17-17.24,6.94-40.21-.85-54-14.36A54.29,54.29,0,0,1,45,167.27c-.19-.56-1.66-6.89-4.6-19.53a141.23,141.23,0,0,0-4.6-16.09c-.68-1.8-1-2.73-1.72-4.6-1.31-3.51-2-5.29-2.3-6.32a57.34,57.34,0,0,1-1.72-7.47c-.91-4.77-.77-5.58-1.72-10.34-.81-4-1.16-4.62-1.15-5.17,0-.06-.1-.32-.2-.64-.45-1.38-1.2-3.08-1.53-4C24.86,91.47,24.31,90,24.91,88.56Z"/><path class="cls-1" d="M108.79,116.14c1,1.59,1.75,3,2.3,4,1.56,3,1.72,3.82,1.72,4.59a5,5,0,0,1-1.15,3.45,3.81,3.81,0,0,1-1.72,1.15,4,4,0,0,1-3.45-.57c-1-.76-.65-1.38-1.72-2.3a5.22,5.22,0,0,0-2.87-1.15,6.49,6.49,0,0,0-3.45.57,3.47,3.47,0,0,0-1.73,1.15c-.58.89-.06,1.49-.57,2.3-.73,1.16-2.59,1.15-2.87,1.15a4.5,4.5,0,0,1-2.88-1.15c-.65-.61-.47-.86-1.14-1.72a6.51,6.51,0,0,0-3.45-2.3,4.75,4.75,0,0,0-2.87,0c-1.93.71-1.86,2.54-3.45,2.87a3.12,3.12,0,0,1-2.87-1.15,4.26,4.26,0,0,1-.58-3.44c.6-4.18,4.29-7.44,5.75-8.62"/><path class="cls-1" d="M163.94,101.77a4.56,4.56,0,0,1,2.3,2.88c.3,1.37-.33,2.76-1.15,4.59s-1.21,2-1.15,2.87c.1,1.3,1.31,2.27,2.3,2.88"/><path class="cls-2" d="M35.25,92.58c2,2.43,1.1,4.36,1.72,9.19.08.59.85,6.08,4.6,9.77,2.71,2.67,5.89,3.33,9.19,4,4.12.86,7.92.38,15.51-.57,5.69-.72,7.51-1.35,9.2-2.3a19.67,19.67,0,0,0,5.74-5.17c1.89-2.29,5.44-6.61,6.32-12.64.26-1.78.17-2.94,1.15-4,1.78-2,5.78-2.28,7.47-.58.47.48.34.69,1.15,2.88a46.05,46.05,0,0,0,2.3,5.17,32.17,32.17,0,0,0,2.3,4,28.5,28.5,0,0,0,4,4.59c4.66,4.19,12.71,4.88,16.08,5.17,1,.09,9.6.76,17.24-2.29a12.81,12.81,0,0,0,4.6-2.88c1.71-1.73,2.4-3.55,3.44-6.32s1.7-4.48,1.73-6.89c0-3.09-1-4.32,0-6.32.67-1.39,1.28-1,2.29-2.87a8.94,8.94,0,0,0,1.15-5.17,4.48,4.48,0,0,0-.57-2.3c-.77-1.15-2.31-1.62-8.62-1.73-3.46,0-4.59,0-4.59,0-10.56.56-9.52.06-15.52.58-6.53.56-10.33.89-14.36,2.3-4.57,1.59-6.32,2.3-6.32,2.3a30.85,30.85,0,0,1-4.6,1.72,27.67,27.67,0,0,1-5.74.57,42.14,42.14,0,0,1-6.32,0c-3.57-.45-3.89-1.42-8.62-2.29a40.69,40.69,0,0,0-4.6-.58,45.53,45.53,0,0,0-6.32,0c-9.51.57-9.22-.13-14.36.58-5.4.74-8.1,1.11-9.77,2.29-1.21.87-3.08,2.62-5.17,2.3a4.75,4.75,0,0,0-2.29,0A2.73,2.73,0,0,0,33,86.26a2.9,2.9,0,0,0,0,2.3A11.33,11.33,0,0,0,35.25,92.58Z"/><path class="cls-2" d="M39.85,90.28a8.15,8.15,0,0,0-1.15,4,8.77,8.77,0,0,0,.57,2.88c1.29,4,.91,4.1,1.73,6.32s2,5.4,4.59,7.47c2.13,1.69,4.29,1.89,8.62,2.29,6,.57,10.3-.4,16.09-1.72a14.34,14.34,0,0,0,5.74-2.3,14.52,14.52,0,0,0,4-4.59c.33-.57.79-1.72,1.73-4A45,45,0,0,0,83.51,96a12.18,12.18,0,0,0,.57-5.17c-.65-3.56-4.37-5.58-5.74-6.32-2.67-1.45-5-1.76-13.79-1.73-12.46,0-15.79.71-19,2.3A13.2,13.2,0,0,0,39.85,90.28Z"/><path class="cls-2" d="M130.05,78.22a53.59,53.59,0,0,0-10.34.57c-5,.8-16.24,2.58-18.39,8.62a10.91,10.91,0,0,0-.57,3.45,13.65,13.65,0,0,0,1.72,6.32,20.7,20.7,0,0,0,13.79,11.49c4.12,1.2,7.35.92,11.49.57a29.36,29.36,0,0,0,9.77-2.3,15.29,15.29,0,0,0,5.17-3.44,13.55,13.55,0,0,0,2.87-5.17c.81-2.53.73-4.47.57-8s-.23-5.45-1.14-6.89c-1.5-2.36-4-3.22-6.32-4C137.39,78.93,135.21,78.31,130.05,78.22Z"/><path class="cls-1" d="M153,78.22c3.25-.13,6-.08,8,0,1.85.07,3.14.17,4,1.15s1.23,2.77.58,3.44c-.35.37-.7.12-1.73.58a12.16,12.16,0,0,0-1.72,1.15c-1.41,1-1.45,1.14-1.72,1.15-.94,0-1.43-1.09-2.3-1.73s-2.71-1-6.32.58"/><path class="cls-3" d="M157.2,129.07l4.16,1.93a1.85,1.85,0,0,1,1,.82,2.18,2.18,0,0,1,0,1.29c-.63,3-1.27,6-1.68,9.06-.9,6.6-.76,13.38-2.16,19.88s-4.74,13-10.35,15.62a1.52,1.52,0,0,1-1,.2c-.55-.15-.81-.84-1-1.43a70,70,0,0,1-2-9.33,7.54,7.54,0,0,1,0-2.84,9.07,9.07,0,0,1,2.07-3.32c5.53-6.95,5.91-17,9.11-25.55.8-2.16,1.83-4.46,1.3-6.73"/><path d="M156.44,130.36c3.12,1.45,3.86,2.41,3.74,6-.06,1.9-.74,4-1,5.85-.56,4.22-.69,8.47-1.12,12.7-.47,4.69-1.21,9.43-3.33,13.7a18.51,18.51,0,0,1-4.09,5.66c-2.76,2.46-3,2.09-3.75-1-.53-2.2-1.6-5.34-1.35-7.59s2.5-4.46,3.65-6.4a37.49,37.49,0,0,0,3.51-8.64c1-3.46,1.7-7,2.68-10.48,1.09-3.84,3.07-7.42,2.76-11.49-.15-1.91-3.15-1.93-3,0,.27,3.55-1.47,6.65-2.44,10-.79,2.72-1.4,5.49-2.1,8.24a46.08,46.08,0,0,1-6.49,14.35c-2.69,4.16-1.12,9.26.12,13.78.71,2.6,1.41,5,4.52,4.05,8.79-2.72,11.42-15.65,12.22-23.28.72-6.88,1.11-13.65,2.46-20.46,1-5.06-1-5.46-5.48-7.54-1.74-.81-3.27,1.78-1.52,2.59Z"/><path class="cls-3" d="M34.68,128.24l3.74-3.77A28.46,28.46,0,0,0,41,136.36c1.24,2.72,2.91,5.18,3.92,8s1.31,5.84,2.47,8.53c2.15,5,7,8.51,7.45,14a13.09,13.09,0,0,1,0,1.88,15.65,15.65,0,0,1-3.83,9c-8.3-9.11-12.44-22-16.33-34.36-1.58-5.06-3.15-10.76-1.19-15.64"/><path d="M35.75,129.3l3.73-3.77-2.56-1.06a32.3,32.3,0,0,0,2.66,12.47c1,2.18,2.23,4.2,3.19,6.38,1.18,2.71,1.6,5.54,2.51,8.34,1.1,3.34,3.18,6,5.15,8.82,3.66,5.32,3.62,11.21-.56,16.32H52c-5.89-6.73-9.54-14.81-12.5-23.18-2.66-7.54-7.25-17.38-4.63-25.36.6-1.84-2.29-2.63-2.89-.8-2.88,8.77,1.73,18.73,4.63,27,3.13,8.86,7,17.38,13.27,24.5a1.5,1.5,0,0,0,2.12,0c5.55-6.79,5.18-14.13.24-21-3.37-4.72-4.17-9.48-6.26-14.72-2.58-6.52-5.86-11.39-6-18.68a1.51,1.51,0,0,0-2.56-1.06l-3.74,3.77a1.5,1.5,0,0,0,2.13,2.12Z"/><path class="cls-1" d="M22.61,231.62c3.26-.73,8-.67,15.51-3.45a45,45,0,0,0,9.77-4.6c6.41-4.16,8.15-8,10.92-7.47,2.55.51,3.25,4.22,4.59,6.9,6.7,13.33,35,12.26,40.22,12.06,0,0,19.6-.74,33.9-11.49,1.85-1.39,5.48-4.12,5.74-8,.18-2.63-1.25-4.65-.57-5.17,1-.77,5,3,6.89,4.6,6.77,5.73,12,5.36,24.13,9.19a140.08,140.08,0,0,1,25.86,11.49c9.48,5.5,21,12.2,20.1,17.23-1.16,6.31-21.17,6.38-45.38,8.62-54,5-54,13.88-94.23,15.51-12.72.52-72.76,3-78.13-15.51C-.9,251.79,10.77,234.28,22.61,231.62Z"/><path class="cls-3" d="M33.55,125.79"/><path d="M33.55,127.29a1.5,1.5,0,0,0,0-3,1.5,1.5,0,0,0,0,3Z"/><path class="cls-3" d="M33.15,126c2.89-1.87,6.45,1,8.64,3.71A69,69,0,0,1,50,141.29c1.08,2.06,2,4.3,3.79,5.78s4.8,1.82,6.23,0A15.87,15.87,0,0,0,61.15,145c2-3.41,6.83-3.52,10-5.79,2.83-2,4.21-5.66,7.13-7.54,4.53-2.91,10.45-.47,15.82-.67,3.2-.12,6.28-1.2,9.44-1.69s6.71-.24,9.1,1.9c1.33,1.18,2.18,2.86,3.59,4s3.28,1.52,4.79,2.51c2.36,1.54,3.6,4.27,5.51,6.33s5.44,3.34,7.42,1.34c1.33-1.33,1.34-3.55,2.56-5s3.31-1.8,4.42-3.28.82-3.8,1.71-5.54c1.47-2.9,5.43-3.15,8.34-4.6,2.26-1.14,4-3.15,6.38-4.12s5.79-.19,6.18,2.32c.24,1.5-.74,2.95-.76,4.48-.05,5.16,9.41,5.36,10.45,10.42a7.87,7.87,0,0,1-.27,3.33q-2.72,12.09-5.44,24.19a24.2,24.2,0,0,1-2.13,6.52c-2.15,3.87-6.23,6.27-8.85,9.83-3,4-3.95,9.36-7.31,13.08a26.23,26.23,0,0,1-6.11,4.59l-12.83,7.78c-4.29,2.6-8.83,5.28-13.84,5.44-1.5.05-3.24-.05-4.24,1.08-.72.82-.78,2-1.24,3-1.22,2.65-4.72,3.13-7.63,3.24l-25.45,1a4.55,4.55,0,0,1-2.74-.48,9.9,9.9,0,0,1-1.7-2.09c-1.46-1.7-4-1.9-5.85-3.18-2.43-1.68-3.2-4.89-4.92-7.3-5.78-8.08-20.61-5.67-25.17-14.5-1-2-1.32-4.21-2-6.31-2.56-7.47-10.28-12.63-11.66-20.41a26.92,26.92,0,0,1,.17-8q.79-6.69,1.6-13.39a8.23,8.23,0,0,1,.91-3.39A8.42,8.42,0,0,1,29,141.81l7.76-5.39c.87-.6,1.84-1.4,1.8-2.46a3.22,3.22,0,0,0-.94-1.8l-4.39-5.25"/><path d="M33.55,127.49c10.84-4.47,17.22,33.19,28.37,19.32,2.72-3.39,5.94-3.8,9.45-6,2.63-1.62,4-4.26,6-6.42,3.9-4,9.34-2.31,14.26-2,4.18.26,7.9-1,12-1.58,2.37-.33,5-.47,7.15.85,1.62,1,2.53,2.81,3.89,4.07a14.16,14.16,0,0,0,3.16,2,16.16,16.16,0,0,1,6.07,5.35c2.42,3.11,7.13,6.84,10.95,3.41a8.23,8.23,0,0,0,1.33-1.92,39.14,39.14,0,0,1,4.66-5.41c2.64-2.86,2.47-7.15,6-9.1,1.15-.63,2.52-.84,3.72-1.37a37.78,37.78,0,0,0,4.91-3.08c3.26-2,5.51-2.58,6,2.82a11.92,11.92,0,0,0,.09,2.79c1.54,5,8.95,4.48,9.67,9.64.67,4.73-1.58,10.42-2.63,15.09s-1.81,9.22-3.13,13.68c-1.47,5-4.67,7.38-8.05,10.95a32,32,0,0,0-5.68,9.19c-4.07,8.81-12.63,12.46-20.6,17.28-3.7,2.25-7.52,4.85-11.81,5.81-2.53.57-6.16-.21-8.17,1.92-.57.61-.67,1.45-1.09,2.11-1.71,2.65-3.69,3.45-6.72,3.71-5.19.44-10.46.4-15.66.6l-6.86.26c-2.83.11-4-.38-6.31-2-3.15-2.24-6.6-3.3-8.64-6.82-2.86-4.93-5.8-7.61-11.25-9.57-3.29-1.18-6.75-1.89-9.95-3.33-5.19-2.33-6-5.85-7.75-10.91-2.76-7.72-11.07-13.12-11.8-21.59-.4-4.59.73-9.49,1.27-14,.39-3.25.23-7.09,2.6-9.53,1.68-1.74,4.17-3,6.16-4.36,1.79-1.24,4.9-2.75,4.87-5.37,0-2.85-4.19-6.23-5.77-8.11-1.24-1.49-3.35.65-2.12,2.12,1.09,1.3,5,4.9,4.39,6.72-.45,1.35-5.52,3.88-6.76,4.75-2.62,1.82-4.71,3.23-5.46,6.46-1,4.2-1.09,8.78-1.59,13.06s-1.14,8.7.39,12.91c2.7,7.48,9.36,12.39,11.62,20.17,1.78,6.13,5.16,9.25,11.11,11.39,3,1.09,6.15,1.76,9.11,3,4.72,1.9,6.38,4.77,9,8.9,1.59,2.55,3.28,3.3,5.75,4.69,2.89,1.63,2.62,2.6,4.75,3.93,1.57,1,3.74.66,5.46.61,5.22-.15,10.44-.4,15.66-.6,4.07-.16,8.74.29,12.67-1,2.47-.85,3.05-2.18,4.42-4.13,2.36-3.34,7.36-2.63,11-4.15,4.31-1.79,8.25-4.47,12.23-6.88s8.46-4.68,12.17-7.63c3-2.38,4.71-5.36,6.29-8.79a37.65,37.65,0,0,1,8.42-11.66c6.41-6.33,7-15.37,8.95-23.8,1.28-5.68,6-15.23.55-19.89-1.92-1.65-4.78-2.24-6.54-4-2.59-2.65.55-6-1.44-8.83-4.28-6.16-11.82,1.75-16,3.31-2.23.83-4.72,1.43-6.25,3.4-1,1.32-.91,2.7-1.57,4.16-1.2,2.64-3.43,3.46-5.11,5.47s-.67,2.73-3.79,3.91c-3.75,1.43-4.38-1.15-6.54-3.77-2.64-3.22-6.37-4-9.11-6.91-2.51-2.68-4.32-4.56-8.19-5-4.65-.52-9,1.62-13.6,1.81s-9.45-1.62-14.08-.22c-3.89,1.18-5.44,4.33-8,7.1-3,3.2-7.58,3.24-10.7,6.13-1.49,1.37-2.52,4.42-5,4.19-2.85-.27-4.63-5.63-5.84-7.71-3.06-5.25-10.15-17.49-17.7-14.38-1.76.72-1,3.63.8,2.89Z"/><path class="cls-4" d="M80,152.62a47.26,47.26,0,0,0,4.58-1.94,27,27,0,0,1,20.91,0,9.28,9.28,0,0,1,2.77,1.66c.15.13.29.33.19.5a.51.51,0,0,1-.24.16c-8.23,3-17.25,4.77-25.8,2.82A7.41,7.41,0,0,1,78.56,154a84.17,84.17,0,0,1,21.19-1.53"/><path d="M80.42,154.07c4.36-1.63,8.24-3.62,13-3.92,2.53-.16,12.48,0,13.62,3.11l.69-1.7c-3.27,2.12-9.33,2.92-13.13,3.35-4.59.51-11.13,1-15-2l-.66,2.5A90.58,90.58,0,0,1,99.75,154c1.93.08,1.93-2.92,0-3a94.17,94.17,0,0,0-21.59,1.58,1.51,1.51,0,0,0-.66,2.51c4.18,3.23,10.25,3.35,15.34,3s12.1-1.14,16.39-3.91a1.54,1.54,0,0,0,.69-1.7c-1.38-3.72-8.24-4.77-11.57-5.16-7-.82-12.36,1.5-18.72,3.88-1.8.66-1,3.57.79,2.89Z"/></g></g></svg>