<svg xmlns="http://www.w3.org/2000/svg" viewBox="0 0 268.5 358.03"><defs><style>.cls-1{fill:none;}.cls-1,.cls-2{stroke:#000;stroke-miterlimit:10;stroke-width:3px;}</style></defs><title>sun+face</title><g id="Calque_2" data-name="Calque 2"><g id="face"><path class="cls-1" d="M2,153a6.53,6.53,0,0,1,5-4c3.36-.29,5.61,3.71,7,3s.35-5.32,0-7c-1.44-6.86-.63-14-1-21-.53-10,.78-17.77,2-25,1.33-7.91,3.49-20.74,11-35,6.82-13,14.76-20.82,22-28S65.42,18.9,82,11c6.56-3.12,15.89-7.46,29-9a86.63,86.63,0,0,1,40,5c4.61,1.77,2.78,1.57,21,10,9.43,4.36,12.66,5.69,19,9,7.7,4,11.91,6.23,17,10,4,2.94,11.21,8.31,17,17,2.74,4.11,5.2,11.8,10,27,7,22.13,5.19,20.38,8,26,1.68,3.36,4.37,8.09,5,15,.24,2.63,0,3,0,9,.07,8.05.17,14.58,2,15,1.38.32,2-3.24,6-5,2.36-1.05,5.77-1.41,8,0,2.68,1.69,3.24,5.65,3,13-.33,10.24-2,20.36-5,33-2.24,9.43-3,10.73-3,15s.61,7.05-1,11c-.27.66-1.23,2.9-5,7a58.14,58.14,0,0,1-9,8c-10.16,7.35-4,32.93-12,57a77.39,77.39,0,0,1-16,27c-9.83,11.28-21.68,18.34-45,32-9.32,5.46-14,8.18-16,9-30,12.07-70-1.47-94-25-4.62-4.52-17.31-17.23-24-37-.33-1-2.89-12-8-34-.82-3.53-4.11-17.73-8-28-1.19-3.13-1.79-4.75-3-8-2.28-6.12-3.43-9.21-4-11a101.26,101.26,0,0,1-3-13c-1.58-8.31-1.34-9.72-3-18-1.4-7-2-8-2-9a9.43,9.43,0,0,0-.34-1.11c-.78-2.41-2.1-5.37-2.66-6.89C1.86,158.09.91,155.53,2,153Z"/></g><g id="glasses"><path class="cls-2" d="M20,160c3.42,4.23,1.92,7.59,3,16,.13,1,1.47,10.57,8,17,4.72,4.64,10.26,5.8,16,7,7.17,1.5,13.78.67,27-1,9.9-1.25,13.06-2.35,16-4,4.82-2.71,7.58-6.07,10-9,3.28-4,9.47-11.5,11-22,.45-3.1.3-5.11,2-7,3.1-3.45,10.06-4,13-1,.82.83.59,1.19,2,5a79.47,79.47,0,0,0,4,9,55.88,55.88,0,0,0,4,7,50.88,50.88,0,0,0,7,8c8.12,7.28,22.12,8.49,28,9,1.68.15,16.7,1.31,30-4a22.18,22.18,0,0,0,8-5c3-3,4.18-6.19,6-11s2.94-7.8,3-12c.07-5.38-1.69-7.52,0-11,1.17-2.43,2.23-1.82,4-5a15.59,15.59,0,0,0,2-9c-.18-1.9-.28-2.94-1-4-1.35-2-4-2.81-15-3-6-.1-8,0-8,0-18.37,1-16.56.1-27,1-11.38,1-18,1.55-25,4-8,2.77-11,4-11,4-4.2,1.69-5.29,2.33-8,3-1,.25-3.32.76-10,1-5.74.2-8.6.3-11,0-6.22-.79-6.76-2.48-15-4a74.19,74.19,0,0,0-8-1,78.78,78.78,0,0,0-11,0c-16.57,1-16.06-.23-25,1-9.4,1.29-14.1,1.94-17,4-2.12,1.5-5.37,4.55-9,4a8.42,8.42,0,0,0-4,0,4.7,4.7,0,0,0-3,2c-.54,1-.55,2.18,0,4A19.67,19.67,0,0,0,20,160Z"/><path class="cls-2" d="M28,156a14.16,14.16,0,0,0-2,7,15.06,15.06,0,0,0,1,5c2.25,7,1.57,7.14,3,11s3.46,9.4,8,13c3.7,2.94,7.47,3.3,15,4,10.51,1,17.92-.7,28-3,3.92-.89,6.9-1.76,10-4a25.42,25.42,0,0,0,7-8c.57-1,1.38-3,3-7a78.16,78.16,0,0,0,3-8c.73-2.81,1.56-6,1-9-1.14-6.18-7.61-9.7-10-11-4.64-2.52-8.71-3.06-24-3-21.68.09-27.49,1.23-33,4C35.15,148.44,30.64,151.17,28,156Z"/><path class="cls-2" d="M185,135a94.11,94.11,0,0,0-18,1c-8.71,1.38-28.27,4.49-32,15a19.08,19.08,0,0,0-1,6c0,4.52,1.53,7.86,3,11a38.06,38.06,0,0,0,5,8c6.91,8.34,16.07,11.15,19,12,7.16,2.09,12.8,1.61,20,1,9.49-.81,15-3.1,17-4,5.82-2.61,8.33-5.26,9-6a23.38,23.38,0,0,0,5-9c1.42-4.39,1.27-7.78,1-14s-.42-9.5-2-12c-2.6-4.1-6.93-5.59-11-7C197.74,136.27,193.93,135.19,185,135Z"/><path class="cls-1" d="M225,135c5.66-.22,10.4-.14,14,0,3.22.13,5.46.31,7,2s2.13,4.82,1,6c-.62.64-1.21.2-3,1a20.67,20.67,0,0,0-3,2c-2.45,1.79-2.52,2-3,2-1.63.05-2.49-1.9-4-3s-4.71-1.78-11,1"/></g></g></svg>