<svg xmlns="http://www.w3.org/2000/svg" viewBox="0 0 377 284.39"><defs><style>.cls-1{fill:#e8a828;}</style></defs><title>hair2</title><g id="Calque_2" data-name="Calque 2"><g id="Afro"><path class="cls-1" d="M71.49,275.33a16.55,16.55,0,0,1-20.71,6,16.55,16.55,0,0,1-7.86-20.09c-8.2-1.12-16.84-2.42-23.29-7.6S10.24,238,15.77,231.86C8.34,225.55.19,217.44,1.62,207.81,3.51,195,21.73,185.56,16.48,173.75c-2.24-5.05-8.62-8.86-7.39-14.25.57-2.48,2.69-4.26,4.11-6.38,6-9-1-22.75,5.59-31.31,1.87-2.41,4.62-4,6.41-6.52,2.38-3.28,2.75-7.55,3.68-11.5,3.84-16.2,19.68-28.73,36.34-28.73,3.33,0,7.19.25,9.41-2.24,1.73-1.93,1.75-4.78,2.14-7.35A22.12,22.12,0,0,1,87.16,50c2.71-1.62,5.84-2.69,8-5,2.79-2.89,3.52-7.12,4.93-10.88C106.07,18.39,127.66,11,142,19.87,146.33,8.2,159,.23,171.38,1.37,180.19,2.18,188.23,7,197,7.93c8.39.87,16.67-1.89,25-3.22s17.86-.83,23.8,5.16c3.86,3.89,5.75,9.69,10.4,12.57,8.23,5.11,19.55-1.83,28.49,1.9,5.83,2.43,9,8.72,14.1,12.48s11.61,4.72,17.21,7.57a28.89,28.89,0,0,1,15.44,26.23c13.3.16,24.37,14.7,21,27.56-.79,3-2.24,6-1.83,9.08.37,2.77,2.17,5.11,4,7.24,5.43,6.47,11.54,12.68,14.61,20.55s2.12,18.11-4.74,23c8.85,4.69,11.38,18.13,4.85,25.72-2.42,2.81-5.93,5.11-6.56,8.77-1.59,9.25,16.23,15,12.1,23.44-1.15,2.34-3.74,3.62-5.18,5.79-3.79,5.72,2.07,13.93-.94,20.1-1.3,2.67-4,4.32-6.21,6.29-4.22,3.76-6.95,9-11.2,12.72S340,266.42,336,262.44c-3.29-3.27-2.9-8.61-2.2-13.2,1-6.56,2.06-13.69-1.18-19.48s-12.83-8.08-16.3-2.43c.32-7.25-.59-16.43-7.45-18.8-5.29-1.84-12.21,1.49-16.22-2.43-4.48-4.37,0-12.41-2.64-18.06-2.9-6.12-11.8-5.74-17.3-9.69-2.14-1.54-3.71-3.72-5.44-5.71a43.67,43.67,0,0,0-22.3-13.7c-16.7-4.16-37.06,1-49.41-11-2.76-2.68-5.83-6.4-9.54-5.4-2.12.57-3.49,2.53-5,4.1-6.34,6.56-18.11,6.69-24.59.27a34.18,34.18,0,0,1-27.7,19.19,378.28,378.28,0,0,1-22,43.76c-4.16,7.1-11.22,15.11-19,12.4a8.3,8.3,0,1,1-14,8.82c-6,6.36-3.48,16.51-1.22,24.94s2.93,19.43-4.61,23.82"/><path d="M70.19,274.57c-4.1,6.09-12.57,8.82-19.23,5.19-6.39-3.48-8.82-11.41-6.6-18.08a1.5,1.5,0,0,0-1-1.85c-7.19-1-14.89-2-21.06-6.1-6.49-4.33-10.91-13.95-5.43-20.81a1.53,1.53,0,0,0,0-2.12c-9-7.71-18.15-17.67-11-29.76,3.9-6.62,10.84-12.15,12.72-19.84a12.54,12.54,0,0,0-.75-8.21c-2.31-5.11-9.79-9.24-6.11-15.44,2.43-4.09,4.85-6.53,5.46-11.51.59-4.76-.16-9.54.11-14.3.38-7.08,3.75-9.35,8.06-14.21,3.2-3.62,3.82-8,4.86-12.59A37,37,0,0,1,49.58,80.42a35.6,35.6,0,0,1,15.64-3.86c3.73-.08,8.08.23,10.71-3s1.95-8.19,3.4-12c2.71-7.08,8.31-9.47,14.16-13.3,4.31-2.83,5.77-6.87,7.34-11.57a26.36,26.36,0,0,1,9.7-13.47c8.91-6.4,21.13-7.66,30.72-2.08a1.52,1.52,0,0,0,2.2-.9A28.25,28.25,0,0,1,160.52,4.19c7.67-2.61,15.06-.89,22.5,1.6,7,2.35,13.69,4.3,21.19,3.62,8-.74,15.77-3.56,23.86-3.79,8.74-.24,15.37,2.61,20.24,9.94,3.11,4.67,6.27,8.92,12.12,10,6.24,1.16,12.45-1.16,18.7-.87,8.87.41,12.32,8.41,18.65,13.18,6,4.52,13.82,5.19,20,9.27A27.71,27.71,0,0,1,330,70.62a1.54,1.54,0,0,0,1.5,1.5c8.92.43,16.66,7,19.21,15.49a20.69,20.69,0,0,1-.34,12.43c-1,3.2-1.81,6.31-.62,9.59,1.37,3.77,4.57,6.82,7.13,9.8a74.09,74.09,0,0,1,8.88,11.84c4.57,8.14,5.73,19.37-2.32,25.76a1.52,1.52,0,0,0,.3,2.36,16.24,16.24,0,0,1,7.18,18.31c-1.71,6-8.77,8.71-9.63,14.88-.57,4,2,7.44,4.57,10.23s9.41,7.33,7.91,12c-.94,3-4.62,4.48-5.95,7.33a13,13,0,0,0-.75,7.1c.36,3.26,1.65,6.77.9,10-1,4.52-5.69,6.81-8.64,10-4.88,5.32-9.9,15.36-18.67,13.72-9.89-1.86-4.27-17.15-4.32-23.83-.05-6.24-2.16-12.6-8.18-15.37-4.71-2.17-9.95-1.56-13.1,2.73l2.8.76c.18-5.37,0-11.63-3.21-16.2-3.73-5.26-9.32-4.51-15.05-4.52-11.91,0-4.94-12.29-8.18-19.15-2.37-5-8-6.18-12.78-7.92-7.48-2.75-11.2-9.94-17.44-14.56a46.06,46.06,0,0,0-20-8.35c-14.3-2.35-32.3,1.18-44-9.29-4.43-4-9.15-9.35-14.91-4.19-3.39,3-5.87,5.87-10.64,6.71a16.57,16.57,0,0,1-14.12-4,1.51,1.51,0,0,0-2.35.3,33.2,33.2,0,0,1-26.41,18.45,1.5,1.5,0,0,0-1.29.74c-4.69,11-9.83,21.76-15.51,32.26-4.37,8.09-11.87,26.44-23.78,23.21a1.51,1.51,0,0,0-1.69,2.2c4.67,7.83-6.25,15.16-11.44,7.31a1.5,1.5,0,0,0-2.35-.3c-5.35,6.37-4.5,14.44-2.71,22.06,1.93,8.26,6,20.66-2.82,26.46-1.6,1.06-.1,3.66,1.52,2.59,17.76-11.66-5.38-35.27,6.13-49l-2.36-.31c7.23,10.94,23.4,1,16.62-10.33l-1.69,2.2c7.49,2,13.48-3,17.76-8.69,6.79-9.05,11.78-20,16.71-30.14,2.46-5,4.42-10.49,7.08-15.42,1.8-3.32,7.08-3,10.52-4.48a36.21,36.21,0,0,0,18.3-17.3l-2.36.3a19.46,19.46,0,0,0,14.71,5.1c6.31-.45,9.25-3.64,13.81-7.33,5.38-4.34,9,2.13,12.75,5.1a28.94,28.94,0,0,0,7.82,4.29c6.15,2.27,12.83,2.74,19.32,3.1,7.46.41,15.08.49,22.31,2.58a43,43,0,0,1,20.64,13.52c4.46,5.18,8.34,7.05,14.63,9.31,4.15,1.5,7.68,3.48,8.05,8.32.25,3.35-.7,6.71-.21,10.06,1,6.72,6.74,7.75,12.55,7.52,5.43-.21,9.92.73,11.91,6.41,1.27,3.63,1.29,7.6,1.17,11.4-.06,1.62,2,1.86,2.79.75,3-4,9-2.63,12.13.44,4.05,3.95,3.81,10.53,3.25,15.72-.65,6-3,13.6,1.51,18.74,3.63,4.15,9.68,3.78,14.26,1.46,6.87-3.49,10.24-11.26,16-16.14,5.26-4.48,7.05-8.06,6-15-.72-4.66-1.74-8.48,1.77-12.36,1.77-1.95,3.84-3.35,4.37-6.1,2.08-10.81-19.85-15.49-9.92-26.39,4.63-5.09,8.14-9.46,7.49-16.79a18.84,18.84,0,0,0-9.18-14.84l.3,2.35c6.56-5.21,8-14.13,5.95-22-1.29-4.84-4-9.22-7-13.19-3.41-4.52-9.44-9.13-11.52-14.38-2.19-5.54,1.71-11,1.61-16.65a23.88,23.88,0,0,0-3.24-11.34,24.26,24.26,0,0,0-19.86-12.52l1.5,1.5A30.79,30.79,0,0,0,326.31,51c-4.55-5.7-10.47-8.53-17.18-10.93-4.47-1.59-8.55-3.29-12-6.67-2.7-2.66-5-5.77-8-8.09-5.94-4.55-12.71-3.58-19.69-2.76-4.13.49-8.76,1-12.47-1.35s-5.58-6.73-8.19-10.11c-4-5.17-9.77-7.7-16.2-8.29C224,2,215.8,4.72,207.38,6,196.7,7.62,188.3,3.85,178.26,1.16,162.69-3,146.68,4.29,140.56,19.47l2.2-.9c-14.92-8.68-36.35-2.29-43.47,13.69-1.05,2.36-1.61,4.88-2.57,7.26-1.54,3.87-4,5.82-7.52,7.69-4.77,2.57-8.77,5.68-11.39,10.53a25.21,25.21,0,0,0-2.49,7.33c-.68,3.61-.18,6.92-4.67,8.23-3,.86-6.6.16-9.69.53a37.25,37.25,0,0,0-7.3,1.64A41.06,41.06,0,0,0,31.24,93.82c-2.54,4.47-3.6,9.14-4.75,14.08A17.7,17.7,0,0,1,21,117.51a20.74,20.74,0,0,0-4.85,5.79c-1.94,3.87-2,8.37-1.88,12.6.15,7.14.42,12.64-4,18.6-2.17,2.94-3.51,5.67-2.23,9.27,1.82,5.16,7.71,8.2,7.9,14.06.18,5.45-4.4,10.41-7.5,14.42C5.58,195.92,2.6,199.66,1,204.1-3.19,216,6.44,225.82,14.71,232.92V230.8c-5,6.3-3.85,14.83,1,21,6.29,8,17.41,9.65,26.84,11l-1.05-1.84c-2.79,8.39.89,18.31,9.15,22.05,8,3.61,17.41.22,22.16-6.84,1.09-1.61-1.51-3.11-2.59-1.52Z"/></g></g></svg>