<svg xmlns="http://www.w3.org/2000/svg" viewBox="0 0 249.91 160.17"><defs><style>.cls-1{fill:#e8a828;}</style></defs><title>hair4</title><g id="Calque_2" data-name="Calque 2"><g id="Calque_17" data-name="Calque 17"><path class="cls-1" d="M57.63,52.2c4.59,12,18.07,18.28,30.82,20.09s25.86.43,38.46,3.06c8.71,1.82,17.24,5.56,26.12,5,6-.4,11.85-2.76,17.75-1.84,6.39,1,11.53,5.61,16.26,10L219,118.3a62.08,62.08,0,0,0,7.84,6.56c2.76,1.85,5.84,3.28,8.19,5.63a28.14,28.14,0,0,1,4.72,7.16l8,15.39a183.59,183.59,0,0,0-15.36-91c-1.7-3.77-4.16-8-8.26-8.51-1.71-.23-3.63.2-5-.79-1.83-1.3-1.56-4-2.09-6.18-.85-3.51-4-5.91-7-8A325.38,325.38,0,0,0,160,10.32c-10.46-4.73-21.45-9-32.93-9.16a77,77,0,0,0-14,1.31A184.49,184.49,0,0,0,59.65,20.23c-4.33,2.23-8.83,4.9-10.87,9.32C45.14,37.46,51,46.27,56.48,53a15.1,15.1,0,0,1-9.07-7.83,16.07,16.07,0,0,0,2.75,16.38c1.47,1.67,3.33,3.07,4.27,5.07,2.24,4.75-1.46,10-4.73,14.11C40,92.88,32.4,106.48,24.8,120c-2.94,5.24-5.9,10.53-7.56,16.31-2.27,8-2.56,17.55-9.27,22.38A157.43,157.43,0,0,1,2.33,98C3,91.6,4.12,85,7.53,79.59c2.71-4.34,6.71-7.72,9.66-11.9,5.49-7.79,7-17.88,12.8-25.49,2-2.57,4.54-4.9,7.73-5.42s6.89,1.4,7.37,4.59L44,35.89"/><path d="M56.18,52.6c11.39,27.44,46.48,19.57,69.43,24,7.15,1.39,14,4.1,21.25,5,8.35,1,17-3.44,25.09-1.37S186,89.58,191.79,95l18.87,17.62a154.07,154.07,0,0,0,19.65,16.19c8.09,5.41,11.78,16.64,16.15,25,.74,1.42,2.68.61,2.79-.76a186.71,186.71,0,0,0-7.77-71.32q-2.55-8.13-5.86-16c-1.68-4-3.33-8.84-6.84-11.68a11.6,11.6,0,0,0-4.25-2c-.54-.17-1.2.06-1.71-.13-5-1.89-3.49-2.63-4.37-5.79-1-3.57-3.66-5.94-6.55-8.07-10-7.38-21.06-13.72-32-19.59-10.61-5.66-21.57-11.19-33-15C124.53-4.11,100.68,2,79.23,10a186.08,186.08,0,0,0-17.9,7.73C56.89,19.91,52,22.26,49,26.34c-6.92,9.3.4,20.23,6.43,27.73l1.46-2.5a14.48,14.48,0,0,1-8.18-7.15,1.52,1.52,0,0,0-2.74.36A18.22,18.22,0,0,0,45.79,57c1.55,4.41,7.53,8,7.82,12.56.36,5.62-5.92,11.22-9,15.44-3.52,4.81-6.79,9.81-9.9,14.89-6,9.84-12.45,20-17,30.62-3.69,8.71-2.94,20.85-10.84,27.16l2.51.66a158.42,158.42,0,0,1-6.15-35.24c-.66-11.4-.77-23.91,2.29-35,2.9-10.49,12.3-16.8,16.76-26.54,2-4.34,3.49-8.91,5.66-13.17a27.65,27.65,0,0,1,4.9-7.19c2.85-2.83,9.17-4.95,10.77.61a1.5,1.5,0,0,0,2.89-.8l-1.09-5.48c-.37-1.89-3.27-1.09-2.89.8l1.09,5.48,2.89-.8a7.88,7.88,0,0,0-8.22-5.74c-4.62.25-8.1,3.92-10.54,7.51-3.6,5.28-5.42,11.5-8,17.27-3,6.52-7.84,11.08-12,16.73C0,87.15,0,102.31,0,114.7a161.58,161.58,0,0,0,6.52,44.4,1.52,1.52,0,0,0,2.51.66c7.57-6.06,7.33-16.26,10.18-24.76,4-11.77,11.63-23.08,18.08-33.62,3.12-5.09,6.38-10.09,9.9-14.9,3.09-4.22,7.44-8.44,8.92-13.61A9.77,9.77,0,0,0,54,63.4c-4.68-5.53-7.79-10.34-5.15-17.82l-2.74.36a17.65,17.65,0,0,0,10,8.52C57.64,55,58.38,53,57.54,52c-3.52-4.38-7.26-9.32-8.15-15-1.06-6.87,3.54-11.29,9.07-14.37A163,163,0,0,1,88.64,9.91,156.62,156.62,0,0,1,120,3c11.16-1.12,21.73,1.41,32.05,5.55a277.05,277.05,0,0,1,57.22,31.32c1.95,1.39,4.15,2.87,5.41,5s.82,4.18,1.67,6.33c1.15,2.93,2.93,3.32,5.81,3.72,6.73,1,8.57,6.81,10.92,12.45q3.09,7.45,5.51,15.18A184.36,184.36,0,0,1,246.25,153l2.8-.76c-3.64-7-6.72-15.07-11.6-21.27-4.19-5.32-11.18-8-16.16-12.6C209,107.09,197.21,95,184.46,84.13c-4.22-3.6-8.92-6.69-14.57-7.26-8-.82-15.6,2.75-23.7,1.6-7.94-1.13-15.45-4.22-23.4-5.34-7.43-1-14.94-1-22.43-1.36-15.34-.64-34.62-3.9-41.29-20-.73-1.75-3.63-1-2.89.8Z"/></g></g></svg>