<svg xmlns="http://www.w3.org/2000/svg" viewBox="0 0 96.39 163.44"><defs><style>.cls-1{fill:#e8a828;}</style></defs><title>hair3</title><g id="Calque_2" data-name="Calque 2"><g id="punk"><path class="cls-1" d="M9,143.16A284.31,284.31,0,0,1,2.16,58.24l4.29,7.15L12.55,19c6.34,5.17,15.51.52,23.14-2.42,9.36-3.62,19.55-4.34,29.56-5a6.71,6.71,0,0,1,3.51.39c3.63,1.86,2.11,8.89,6,10,2.94.87,6.7-2.67,8.76-.39A4.49,4.49,0,0,1,84.39,24c6,44.37,2.75,89.42-.55,134.07,1.06-1.41-1.06-3.3-2.8-3s-3.1,1.65-4.75,2.28c-3.94,1.5-8.21-1.43-12.42-1.22-3.13.15-5.89,2-8.91,2.84s-7.06,0-7.88-3c-.4-1.5.11-3.21-.64-4.57-1.42-2.57-5.32-1.35-7.83.19l-16.74,10.3c-3.2-5.13-11.53-5.93-15.64-1.49a90.93,90.93,0,0,1-1-20.78"/><path d="M10.4,142.77A288.44,288.44,0,0,1,3.66,58.24L.87,59l4.28,7.16A1.52,1.52,0,0,0,8,65.39L14.05,19l-2.26,1.3c6.22,4.36,13.38,2,19.88-.52a93.37,93.37,0,0,1,26.5-6.19c4.68-.41,10.22-2.1,11.92,3.55.59,2,1,4.26,2.82,5.55,2,1.44,3.64.38,5.79.41,4.15.07,4.52,3.32,4.93,6.74q.39,3.38.73,6.77c4,40.44,1,81.12-2,121.51-.13,1.75,2.46,1.95,3,.4a3.42,3.42,0,0,0-1.45-4.18c-2.12-1.44-3.91-.3-6,.49-3.48,1.34-5.27,1.32-8.86.58a30.65,30.65,0,0,0-3.56-.69c-4.09-.32-7.07,2-10.89,2.85-4.43,1-5.21-1-6.21-4.66a7.51,7.51,0,0,0-.85-2.52,4.79,4.79,0,0,0-4.57-1.89c-3.11.21-5.89,2.35-8.42,3.91l-13.4,8.24,2.05.54a12,12,0,0,0-18-1.8l2.51.66a97.19,97.19,0,0,1-.9-20.38c.11-1.93-2.89-1.92-3,0a101.42,101.42,0,0,0,1,21.18c.18,1.18,1.77,1.35,2.51.66a8.91,8.91,0,0,1,13.28,1.19,1.54,1.54,0,0,0,2.06.54l10-6.18c1.77-1.09,7.41-5.91,9.55-5.39,3.24.8,2.73,4.17,4.13,6.29a6.53,6.53,0,0,0,4,2.58c5.76,1.42,10.45-3.62,16.25-2.61,2.73.47,5.34,1.67,8.17,1.33a9.77,9.77,0,0,0,2.07-.5c.15-.05,6.21-3.19,5.53-1l2.94.4c2.49-33.65,5-67.41,3.46-101.17-.37-8.09-1-16.16-1.85-24.21-.38-3.48.33-12.1-4.35-13.27-2.35-.59-4.46,1.49-6.68,1.16-2.76-.4-2.77-4.36-3.59-6.39-1.83-4.52-5.42-4.3-9.73-4-8.06.58-16.22,1.31-24,3.73S21.07,23.15,13.3,17.7c-1-.74-2.12.29-2.25,1.29L5,65.39l2.79-.76L3.46,57.48a1.52,1.52,0,0,0-2.8.76,291.05,291.05,0,0,0,6.85,85.32c.43,1.88,3.32,1.09,2.89-.79Z"/><path class="cls-1" d="M94.91,121.65,91.36,105a17.61,17.61,0,0,1-.54-7,37.73,37.73,0,0,1,1.92-5.3c1.8-5.09,1-10.69.28-16a464.21,464.21,0,0,1-4.09-71L60.32,1.92a25.66,25.66,0,0,0-7.26-.27,45.43,45.43,0,0,0-7.14,2.24c-6.12,2-12.71,2-19,3.43s-12.74,5-14.78,11.07"/><path d="M96.35,121.26c-1-4.93-2.11-9.86-3.15-14.78-.67-3.17-1.49-6.2-.57-9.43.38-1.36,1.11-2.6,1.55-3.94,2.85-8.6,0-18.51-1-27.23a472.92,472.92,0,0,1-2.76-60.2,1.53,1.53,0,0,0-1.5-1.5C80,3,71.13,1.82,62.23.67c-3.17-.41-6.37-1-9.57-.46-3.61.58-6.95,2.34-10.52,3.14C30.72,5.91,15.85,5,10.71,18c-.71,1.8,2.19,2.58,2.89.8C18.72,5.87,36.93,8.55,47.73,4.84c7-2.41,13-1.37,20.22-.42l21,2.76-1.5-1.5a472.84,472.84,0,0,0,3,62.16c.55,4.74,1.38,9.48,1.76,14.24.42,5.32-1,9.24-2.44,14.17-1.09,3.74-.21,7.31.57,11,1,4.93,2.11,9.86,3.16,14.78.4,1.89,3.29,1.09,2.89-.79Z"/><path class="cls-1" d="M10.37,18.6l56.48-7.93c7,8.79,4.23,21.52,5.93,32.64,1.43,9.39,6.22,17.87,10,26.59s6.59,18.54,3.88,27.65c-1.56,5.23-4.4,12,0,15.19"/><path d="M10.77,20.05l56.48-7.94-1.7-.68c5.85,8,4.62,17.93,5.25,27.25.61,9.11,4,17.26,7.72,25.47,4.59,10,9.62,20.92,6.9,32.14-1.36,5.65-5.13,12.81.22,17.51,1.45,1.27,3.58-.84,2.12-2.12-3.64-3.2-1.21-8.61,0-12.5a32.29,32.29,0,0,0,1.29-13c-1-9-5-17.1-8.64-25.22a70.37,70.37,0,0,1-6.81-28.62c-.22-7.91-.57-15.87-5.42-22.47a1.59,1.59,0,0,0-1.69-.69L10,17.15c-1.9.27-1.09,3.16.8,2.9Z"/></g></g></svg>