<svg xmlns="http://www.w3.org/2000/svg" viewBox="0 0 285.02 353.22"><defs><style>.cls-1{fill:#d39b0d;}</style></defs><title>hair5</title><g id="Calque_2" data-name="Calque 2"><g id="Mi-long"><path class="cls-1" d="M26,144.5c3.51-14.75,15.23-27.09,16.18-42.23.19-3.15-.06-6.47,1.35-9.3,1-2,2.75-3.56,3.78-5.55C50,82.18,47,75.64,48.62,70c1.18-4,4.62-7.1,8.37-9,13-6.73,28.67-2.18,43.29-1.07a157.45,157.45,0,0,0,17.65.08,636.82,636.82,0,0,0,74.48-7.21c6.89-1.08,14.79-2,20.06,2.57,6.1,5.3,5.23,14.74,6.36,22.74,2.76,19.71,19.51,33.87,32,49.35,4.91,6.07,9.43,13,10.22,20.72a116.08,116.08,0,0,0-12.9-86,187.63,187.63,0,0,0-12.9-18.45,103.41,103.41,0,0,0-11-12.64c-10-9.37-23.07-14.8-36-19.41-13.76-4.9-27.93-9.13-42.52-10C136.38,1.1,127,2,117.62,2.85c-7.8.73-15.8,1.52-22.81,5-6,3-10.91,7.76-16,12.16C59.56,36.71,35.21,50.5,26.68,74.52,23.69,83,23,92,22.27,100.92l-3.22,41.23c-.37,4.76-.3,10.48,3.69,13.1A42.44,42.44,0,0,0,23.38,144"/><path d="M27.41,144.9c2.65-10.3,8.73-19.05,12.75-28.79a44.79,44.79,0,0,0,3.48-13.84c.25-3.55,0-6.77,2-10,1.25-2,2.91-3.62,3.66-5.93,1.71-5.21-.82-10.77.76-16,2-6.6,9.75-9.73,15.91-10.88,11.67-2.19,23.63,1.17,35.28,1.93,13,.85,26.3-.29,39.29-1.24q19.26-1.41,38.41-4c10-1.34,28.93-7.86,35.16,3.63,2.51,4.62,2.38,10.26,2.88,15.35A48.93,48.93,0,0,0,220.69,90c4.15,9.64,11.05,17.77,17.91,25.58,8.51,9.68,19.21,19.63,21,33,.2,1.5,2.57,1.36,2.89,0a118.35,118.35,0,0,0-11.79-85c-7.39-13.08-17.28-27.35-29.13-36.79C210.5,17.9,196.82,12.87,183.5,8.36,167.89,3.09,152-.48,135.44.05c-8.18.27-16.41,1-24.53,2C104,2.92,97.14,4.48,91.13,8.18S80.27,16.9,75,21.34s-10.52,8.4-15.8,12.58C48.94,42,38.73,50.56,31.52,61.55,22.18,75.78,21.45,92.3,20.16,108.77l-2.3,29.45c-.48,6.16-1.66,13.74,3.82,18.09.78.62,2.3.57,2.51-.67A51.52,51.52,0,0,0,24.88,144c-.1-1.92-3.1-1.93-3,0a48.13,48.13,0,0,1-.59,10.85l2.51-.67c-5.48-4.34-3.1-13.87-2.63-19.88l2-25.53c1.14-14.61,1.56-29.64,9.07-42.67,6-10.46,15.1-18.74,24.36-26.3C66.05,32.06,75.67,24.59,85,16.62c5.93-5.08,12-8.83,19.73-10.52,7.27-1.6,14.9-2,22.31-2.57A127.25,127.25,0,0,1,172.23,8c13.46,3.84,27.33,8.48,39.44,15.61,12.82,7.55,21.78,19.35,30.12,31.41a116,116,0,0,1,17.85,92.74h2.89c-1.55-11.35-9.33-20.15-16.62-28.46C238.24,110.54,230,102,224.7,91.49a48.09,48.09,0,0,1-4.83-17.77c-.41-4.55-.57-9.27-2.3-13.55C213.73,50.67,204,49.7,195,50.86c-28.85,3.72-57.71,7.94-86.89,7.81C95.28,58.61,82.49,54.94,69.65,56c-8.5.71-19.8,4.34-22.48,13.58-.79,2.76-.54,5.62-.39,8.45a34.17,34.17,0,0,1,.13,4.85c-.32,3.4-2.13,5.21-3.85,7.89-3.28,5.11-1.94,11.52-3.33,17.21-3.11,12.8-11.92,23.33-15.22,36.11a1.51,1.51,0,0,0,2.9.8Z"/><path class="cls-1" d="M253.73,236.19a136.61,136.61,0,0,0,14.1,80.26c5.9,11.36,13.53,22.21,15.71,34.82-20.26,3.23-40.59-8.22-60.94-5.6-4.76.61-10.56,1.61-13.52-2.17-2-2.5-1.63-6.2-.1-9s4-4.88,6.39-7a109.1,109.1,0,0,0,23.37-28.93,94.78,94.78,0,0,0,10.67-57.07"/><path d="M252.23,236.19a139.28,139.28,0,0,0,5.66,60.38,150.7,150.7,0,0,0,11.84,26.53c5.09,9.14,10.36,18.17,12.36,28.57l1.05-1.84c-16,2.22-31.29-3.94-47-5.64A60.27,60.27,0,0,0,224.3,344c-3.42.3-7.23,1.35-10.65.55-13.19-3.09,4.87-17.71,8.33-21.21,21.49-21.71,32.6-51.27,28.93-81.79-.22-1.89-3.23-1.92-3,0a94.33,94.33,0,0,1-9.65,54.78,101.75,101.75,0,0,1-15.46,21.82c-4.88,5.3-13.12,10.16-15.77,17.05-1.81,4.7-.37,10.05,4.63,11.9,2.61,1,5.56.72,8.27.43a75.48,75.48,0,0,1,12.84-.61c17.29,1.05,33.64,8.27,51.17,5.82.85-.12,1.18-1.14,1.05-1.84-1.73-9-5.8-17-10.2-24.89-5.15-9.26-10-18.48-13.45-28.55a137.15,137.15,0,0,1-6.11-61.25c.24-1.91-2.76-1.89-3,0Z"/><path class="cls-1" d="M29.54,224.73,28,260.93c-.49,11.69-1.23,24.11-8,33.62-2,2.76-4.41,5.18-6.48,7.87-7,9.05-9.58,20.63-12,31.8-.32,1.47-.57,3.21.48,4.29,1.2,1.24,3.23.77,4.91.35,19.61-4.95,40.68,8.62,60,2.67,3.73-1.15,7.89-4.62,6.28-8.18-.79-1.73-2.68-2.62-4.33-3.58-8.58-5-13.16-14.66-16.7-23.93A259.82,259.82,0,0,1,37.29,246.9c-.82-6.29-2.41-13.9-8.43-15.85"/><path d="M28,224.73c-.56,13.13-1,26.28-1.69,39.4-.66,12.77-2.7,24-11.22,34-7,8.14-10.74,17.39-13.29,27.72-1.62,6.57-5,16.52,5.43,14.5,12-2.32,23.17.68,34.91,2.78,8.63,1.55,19.91,3.29,27.95-1.35,2.54-1.47,5.11-4,4.87-7.21-.34-4.43-5.86-6-8.7-8.37C57.68,319,53.94,307,50.45,296.76a260.15,260.15,0,0,1-10.36-41.13c-1.47-8.78-1-22-10.84-26-1.79-.72-2.56,2.18-.79,2.9,4.71,1.9,6,7.05,6.89,11.57,1,5.3,1.52,10.69,2.48,16a257.48,257.48,0,0,0,7.45,30.48c2.83,9.14,5.84,18.64,10.5,27a40.69,40.69,0,0,0,6.27,8.7,29.6,29.6,0,0,0,3.57,3.14c1,.71,2.19,1.23,3.09,2,3.05,2.58,2.86,6-.1,7.73-8.86,5.11-21.91,1.82-31.23,0-8.46-1.68-17.16-3.59-25.84-2.6-1.79.2-4.46,1.29-6.19,1.09l-1.12.2a3.75,3.75,0,0,1-1.13-4,24,24,0,0,1,.88-4,110.55,110.55,0,0,1,4-14.2,47.51,47.51,0,0,1,7.57-13.46c2.89-3.56,6-6.78,8.12-10.9,4.54-8.82,5.26-19,5.71-28.73.59-12.6,1.08-25.2,1.62-37.8.08-1.93-2.92-1.93-3,0Z"/></g></g></svg>