<svg xmlns="http://www.w3.org/2000/svg" viewBox="0 0 239.66 136.07"><defs><style>.cls-1{fill:#efb920;}</style></defs><title>hair1</title><g id="Calque_2" data-name="Calque 2"><g id="Fraicheur"><path class="cls-1" d="M16.91,128.08a17.1,17.1,0,0,0,20.79-7c2.16-3.79,4.32-9.34,8.6-8.54,1.37.26,2.49,1.2,3.73,1.84,4.85,2.5,11.65-.61,12.93-5.91.49-2,.37-4.39,1.83-5.87,2.35-2.37,6.25-.47,9.34.81s8.18.24,7.54-3c1.9,2.17-.16,5.43-.37,8.3-.24,3.24,2.16,6.21,5.07,7.67s6.25,1.7,9.49,1.92c10,.7,21.3,1,28.77-5.74,2.67-2.4,4.62-5.54,7.43-7.77s7.1-3.32,9.91-1.08c2.65,2.1,3.53,6.68,6.89,7,3.58.37,5.64-4.64,9.22-5a7.2,7.2,0,0,1,3.36.67,45.32,45.32,0,0,1,21,16.72c1.64,2.42,3.93,5.38,6.75,4.59,2-.56,3.13-2.92,5.14-3.49,1.45-.41,3,.21,4.49,0,5.84-.76,4.75-11.38,10.31-13.33,3.42-1.2,7.29,1.82,10.69.56,5-1.84,4.15-10.68,9.21-12.28,1.27-.41,2.71-.23,3.9-.84,1.53-.77,2.18-2.57,2.65-4.21a77.06,77.06,0,0,0,1.75-7.62c1.22-6.87,1.44-14.18-1.33-20.58s-9.15-11.6-16.11-11.28c-3.73.17-8,1.7-10.84-.68-1.58-1.3-2.17-3.45-2.39-5.49-.47-4.64.33-10.08-3.07-13.26-2.11-2-5.2-2.36-7.94-3.3a19.12,19.12,0,0,1-10.79-9.48c-1.85-3.73-2.6-8.27-5.83-10.9-2.83-2.32-6.9-2.51-10.46-1.63s-6.8,2.67-10.22,4a41,41,0,0,1-41.27-7.64A16.47,16.47,0,0,0,112.85,3a13.72,13.72,0,0,0-5.06-.83L93.33,1.58c-4.73-.18-9.54-.35-14.1.92s-8.9,4.23-10.62,8.63c-2.18,5.58-.17,13-4.61,17-2,1.77-4.7,2.32-7.26,3a51.41,51.41,0,0,0-28.5,19.81,27.62,27.62,0,0,1-3.12,4,43.83,43.83,0,0,1-5.21,3.71,23,23,0,0,0-9,22.92,45.73,45.73,0,0,1,1.24,5.87c.7,9-8.81,15.64-10.4,24.51A4.15,4.15,0,0,0,2,114.84c.8,1.3,2.57,1.55,3.81,2.44,2.66,1.91,2.15,5.9,1.71,9.14S7.77,134,11,134.56l5.16-6.21"/><path d="M16.51,129.52a18.86,18.86,0,0,0,19.37-3.82c2.87-2.69,3.91-6.36,6.26-9.4s5.09-1.41,8.07-.28a9.93,9.93,0,0,0,4.83.6,11.41,11.41,0,0,0,7.42-4c3-3.71,1.17-10.82,8.48-8.94,3.06.79,5.48,2.44,8.75,1.32,2.25-.76,3.55-2.28,3.48-4.67l-2.79.76c1.52,2.74-.9,6-.53,8.91a9.23,9.23,0,0,0,1.93,4.45c2.8,3.61,7.32,4.63,11.64,5.07,9.86,1,21.71,1.67,30.22-4.35,4.36-3.09,7.12-9.35,12.45-10.92,7-2.07,6.71,7,12.37,7.86,3,.46,4.71-1.83,6.92-3.37,6.08-4.27,16.73,4.85,20.92,9.14,3,3.08,5.09,8,8.79,10.3,4.95,3.07,6.21-2.06,10.7-2.7,3-.44,4.9.5,7.2-2.21,2.5-2.94,2.52-8.88,6-10.8,3.78-2,8.34,2.19,12.38-.24,3.37-2,3.62-6.16,5.51-9.21,2.32-3.73,7.14-2.14,9.26-6.4,2.46-4.92,3.19-11.69,3.43-17.18.44-9.74-2.9-20.4-12.34-24.83-4.7-2.2-8.28-.63-13.15-.94-8.71-.56-5-11.33-7.53-16.79-1.85-3.93-5.36-4.8-9.18-6.08-7.3-2.42-10.44-7.26-13.26-14.07-4-9.63-12.29-10.24-21.17-6.54-12.09,5-24.18,6.6-36.39.61-4.81-2.37-8.24-7-13-9.14C108.59-.64,101.39.38,96,.18,86.53-.18,74-.93,68.27,8.5c-2.52,4.15-1.94,8.81-2.85,13.38-1.56,7.77-10.61,7.78-16.69,10.47A53.29,53.29,0,0,0,34.3,41.79c-5,4.61-8.26,10.7-13.82,14.65-9,6.4-13.1,16.06-10.7,27,1.64,7.45-.92,11.75-4.8,17.89C2.89,104.6-1.56,111,.56,115.24c.79,1.58,2.18,1.77,3.49,2.76,3.51,2.67,2,6,1.87,9.53s.93,7.23,4.67,8.48a1.47,1.47,0,0,0,1.46-.39l5.16-6.21c1.22-1.48-.89-3.61-2.12-2.12-1.4,1.68-4,7.08-5.91,3.27-.9-1.82,0-4.8.13-6.67.18-3-.19-6-2.74-7.9-.46-.35-1.65-.64-2.07-1.07-2.18-2.25-.76-5.18.28-7.33A50.63,50.63,0,0,1,8,102.23c2.33-3.64,4.91-7.4,5.54-11.78.59-4.09-1.2-7.75-1.5-11.76a21.74,21.74,0,0,1,5.72-16.16c3.39-3.62,7.85-5.4,10.85-9.47A55.71,55.71,0,0,1,40.9,40.27a49.93,49.93,0,0,1,14-7.08c4-1.26,8.57-1.74,11.28-5.31,2.13-2.81,2.3-6.44,2.64-9.8.75-7.45,4-12.5,11.64-14.34,5.9-1.43,12.25-.68,18.26-.46,2.71.11,5.43.17,8.13.31,4.73.25,6.88,1.81,10.27,4.63a42.6,42.6,0,0,0,24.78,9.58,41.43,41.43,0,0,0,12.45-1.18c5.91-1.49,11.43-5.64,17.6-5.77,7.29-.16,8.56,5.57,11,11a21.15,21.15,0,0,0,7.94,9.36c4.8,3,12,2.46,13.64,9,1.07,4.3-.45,9.36,2.19,13.28,1.72,2.55,4.47,3.22,7.4,3.16,6.45-.15,11.27-1.17,16.42,3.89,4.58,4.49,6.14,10.89,6.12,17.13,0,5.5-.38,17.52-6.35,19.63-2.78,1-4.43,1.41-6,4.19-2.67,4.78-2.31,9.36-9.48,8.15-2.86-.49-5.53-1.19-8.06.73s-3.26,4.92-4.37,7.59c-.59,1.43-1.27,3.53-2.76,4.31-1.84,1-4.17-.18-6.12.53-2.84,1-3.55,4.45-7.61,2.2-1.82-1-3.06-4-4.35-5.66a47,47,0,0,0-12.23-10.81c-3.32-2-8.6-5.43-12.71-4.13-1.81.58-2.74,2-4.24,3s-3.43,1.84-5.18.72c-1-.65-1.65-2.53-2.41-3.52-2.24-2.95-5.16-4.23-8.86-3.37-4.84,1.13-7.56,5.16-10.76,8.59-4.73,5-11,6.84-17.79,7.2-5.85.31-13.45.58-19-1.52s-5.56-5.85-4.74-10.86a6.84,6.84,0,0,0-.75-5,1.51,1.51,0,0,0-2.8.75c.14,4.78-9.46-.08-11.29-.29a6,6,0,0,0-5.15,1.46c-2.3,2.28-1.42,5.84-3,8.45a8.31,8.31,0,0,1-7.1,3.76c-2.24-.06-3.47-1.45-5.43-2.13-5.17-1.79-7.89,1.78-10.27,5.94-4.4,7.71-11.53,12.47-20.6,9.11-1.81-.67-2.59,2.23-.8,2.89Z"/></g></g></svg>