<svg xmlns="http://www.w3.org/2000/svg" viewBox="0 0 32.89 25.48"><defs><style>.cls-1{fill:#fcee21;}</style></defs><title>piercing1</title><g id="Calque_2" data-name="Calque 2"><g id="Piercing_nez" data-name="Piercing nez"><path class="cls-1" d="M3.8,3.1A17.83,17.83,0,0,0,1.92,16a8.34,8.34,0,0,0,2.76,4.86,10,10,0,0,0,3.49,1.47,60.37,60.37,0,0,0,7.55,1.5,21.66,21.66,0,0,0,7.66-.06,9.61,9.61,0,0,0,6.22-4.15,12.69,12.69,0,0,0,1.46-5.7,42.72,42.72,0,0,0-.14-7.5c-.21-1.89-.81-4.1-2.61-4.7a5.29,5.29,0,0,0-3.11.23c-.54.15-1.15.37-1.31.91-.22.76.64,1.34,1.26,1.84,2.12,1.7,2.2,4.82,2.11,7.53a8.71,8.71,0,0,1-.46,3,5.83,5.83,0,0,1-1.57,2,10.71,10.71,0,0,1-8.06,2.35,16.44,16.44,0,0,1-7.89-3.26c-1.88-1.39-3.64-3.25-3.95-5.56s1-4.72,2.56-6.53"/><path d="M2.51,2.34C-1.63,10.4-1.35,21.45,8.7,24c8.77,2.22,21.82,3.54,23.66-8.2.58-3.74,1.18-10.06-1.12-13.48A5.54,5.54,0,0,0,23.64,1c-3.33,2.39,1.29,5.19,1.95,7.53,1.76,6.3-3.92,10.67-9.72,9.37S4.13,11.37,9,5.3C10.13,3.81,8,1.67,6.83,3.18,1.92,9.37,4,15.31,10.72,19c5.26,2.87,14.82,3.44,17.52-3.41A14.06,14.06,0,0,0,28,6c-.75-1.68-4.19-3.78-.5-1.52,2.46,1.51,2.14,2.84,2.2,5.64a36.11,36.11,0,0,1-.09,3.75c-.86,10-10.75,9.23-18.18,7.63-3.61-.77-7-1.85-8-5.95A16.77,16.77,0,0,1,5.1,3.86C6,2.14,3.39.62,2.51,2.34Z"/></g></g></svg>