<svg xmlns="http://www.w3.org/2000/svg" viewBox="0 0 13.18 31.31"><defs><style>.cls-1{fill:#fcee21;}</style></defs><title>piercing2</title><g id="Calque_2" data-name="Calque 2"><g id="boucle_d_oreille_droite" data-name="boucle d&apos;oreille droite"><path class="cls-1" d="M3.62,9a47.55,47.55,0,0,1,2.75,13c.17,2.44.19,5.05,1.54,7.09a1.24,1.24,0,0,0,.66.6,1.3,1.3,0,0,0,1.19-.54,8.67,8.67,0,0,0,2-6.12,25.59,25.59,0,0,0-1.27-6.46L7.24,5.22C6.76,3.54,5.89,1.54,4.15,1.44,2.59,1.35,1.41,3.06,1.46,4.63A8.49,8.49,0,0,0,3.29,8.89"/><path d="M2.17,9.44A63.87,63.87,0,0,1,5,24.28c.21,2,.52,5.57,2.63,6.65,4.7,2.38,5.78-7.13,5.47-9.68-.56-4.59-2.35-9.15-3.63-13.58-.69-2.42-1.25-6-3.8-7.28A3.77,3.77,0,0,0,.91,1.66C-1,4.29.48,7.27,2,9.65c1,1.63,3.63.12,2.59-1.51C3.13,6.84,3.54,6,5.79,5.61l.55,1.91c1,1.33,1.16,4.05,1.64,5.7.85,3,4.15,10.61,1.69,13.15-.26,1.5-.72,1.41-1.39-.29a30.17,30.17,0,0,1-.36-3.28C7.79,21.38,7.7,20,7.5,18.54a52.63,52.63,0,0,0-2.43-9.9c-.63-1.82-3.53-1-2.9.8Z"/></g></g></svg>