<svg xmlns="http://www.w3.org/2000/svg" viewBox="0 0 235.01 73.83"><defs><style>.cls-1,.cls-2{stroke:#000;stroke-miterlimit:10;stroke-width:3px;}.cls-2{fill:none;}</style></defs><title>sunglasses1</title><g id="Calque_2" data-name="Calque 2"><g id="glasses"><path class="cls-1" d="M5.91,31.55c3.42,4.22,1.92,7.59,3,16,.13,1,1.47,10.57,8,17,4.71,4.64,10.26,5.8,16,7,7.17,1.49,13.78.66,27-1,9.9-1.25,13.06-2.35,16-4,4.82-2.71,7.58-6.07,10-9,3.28-4,9.47-11.51,11-22,.45-3.11.3-5.11,2-7,3.1-3.45,10.06-4,13-1,.82.82.59,1.18,2,5a79.31,79.31,0,0,0,4,9,56.6,56.6,0,0,0,4,7,50.88,50.88,0,0,0,7,8c8.12,7.27,22.12,8.49,28,9,1.68.14,16.7,1.31,30-4a22.41,22.41,0,0,0,8-5c3-3,4.18-6.2,6-11s2.94-7.8,3-12c.07-5.39-1.69-7.52,0-11,1.17-2.43,2.23-1.82,4-5a15.64,15.64,0,0,0,2-9c-.18-1.91-.28-2.94-1-4-1.35-2-4-2.82-15-3-6-.11-8,0-8,0-18.37,1-16.56.09-27,1-11.38,1-18,1.55-25,4-8,2.77-11,4-11,4-4.2,1.69-5.29,2.33-8,3-1,.25-3.32.76-10,1-5.74.2-8.6.3-11,0-6.22-.79-6.76-2.49-15-4a74.58,74.58,0,0,0-8-1,77.21,77.21,0,0,0-11,0c-16.57,1-16.07-.23-25,1-9.4,1.29-14.1,1.94-17,4-2.12,1.5-5.38,4.55-9,4a8.29,8.29,0,0,0-4,0,4.66,4.66,0,0,0-3,2c-.54,1-.55,2.18,0,4A19.62,19.62,0,0,0,5.91,31.55Z"/><path class="cls-1" d="M13.91,27.55a14.12,14.12,0,0,0-2,7,14.81,14.81,0,0,0,1,5c2.25,7,1.57,7.13,3,11s3.46,9.39,8,13c3.7,2.94,7.47,3.29,15,4,10.5,1,17.92-.71,28-3,3.91-.9,6.9-1.77,10-4a25.53,25.53,0,0,0,7-8c.56-1,1.38-3,3-7a81.74,81.74,0,0,0,3-8c.73-2.81,1.55-6,1-9-1.14-6.19-7.62-9.71-10-11-4.64-2.52-8.71-3.06-24-3-21.68.08-27.49,1.22-33,4C21.11,20,16.6,22.68,13.91,27.55Z"/><path class="cls-1" d="M170.91,6.55a92.49,92.49,0,0,0-18,1c-8.71,1.38-28.27,4.49-32,15a19,19,0,0,0-1,6c0,4.52,1.53,7.86,3,11a38.37,38.37,0,0,0,5,8c6.91,8.33,16.07,11.14,19,12,7.16,2.09,12.8,1.61,20,1,9.49-.81,15-3.1,17-4,5.82-2.62,8.33-5.27,9-6a23.59,23.59,0,0,0,5-9c1.42-4.4,1.27-7.78,1-14s-.42-9.5-2-12c-2.6-4.1-6.93-5.6-11-7C183.69,7.78,179.89,6.71,170.91,6.55Z"/><path class="cls-2" d="M210.91,6.55c5.66-.22,10.4-.15,14,0,3.22.12,5.46.3,7,2s2.13,4.82,1,6c-.62.64-1.22.2-3,1a19,19,0,0,0-3,2c-2.45,1.78-2.52,2-3,2-1.64,0-2.49-1.9-4-3s-4.71-1.78-11,1"/></g></g></svg>