<svg xmlns="http://www.w3.org/2000/svg" viewBox="0 0 244.08 98.79"><defs><style>.cls-1{fill:#d4145a;stroke:#000;stroke-miterlimit:10;stroke-width:3px;}</style></defs><title>sunglasses2</title><g id="Calque_2" data-name="Calque 2"><g id="E.J"><path class="cls-1" d="M4.6,39.51c-4,2.09-3.5,11.69-2,18,4.26,17.79,21.11,27.82,28,32,4.34,2.63,9,5.54,16,7,7.18,1.49,13.79.66,27-1,9.9-1.25,13.06-2.35,16-4,4.82-2.71,7.59-6.07,10-9,3.28-4,9.48-11.51,11-22,.46-3.11.3-5.11,2-7,3.11-3.45,10.07-4,13-1,.83.82.6,1.18,2,5a83.09,83.09,0,0,0,4,9,59.29,59.29,0,0,0,4,7,51.51,51.51,0,0,0,7,8c8.13,7.27,22.13,8.49,28,9,1.69.14,16.7,1.31,30-4,3.21-1.29,5.82-3.48,8-5a81.15,81.15,0,0,0,15-13c7.69-8.69,11.15-17,14-24,2.64-6.49,6.91-16.95,4-19-2.55-1.81-7.35,5.17-17,6-8.92.76-16-4.25-17-5C196,18,195.26,1.16,193.6,1.51c-.88.18,0,4.92-1,12-.32,2.26-2,14.26-6,15-4.85.9-11.42-15.54-12-17-2.23-8.26-3.37-10.1-4-10-1.07.15-.41,6-2,14-.36,1.86-3.11,15.76-7,16-5.46.33-10.3-26.55-14-26s-.75,26-11,30h0c-4.19,1.69-5.28,2.33-8,3-1,.25-3.32.76-10,1-5.73.2-8.6.3-11,0-1-.14-2.95-.7-6.78-1.75C95.72,36.37,95,36,92.6,35.51c-5-1.07-6.18-.45-8-1-8.69-2.67-7.77-24.76-11-25-3.49-.27-6.54,25.4-11.15,25.42-4.43,0-7.66-23.7-9.85-23.42s.52,22.8-4,24-13.21-19.14-16-18c-1.79.73,2.13,9-2,18-.74,1.61-3.23,6.5-8,8C15,45.89,9,37.21,4.6,39.51Z"/></g></g></svg>