<svg xmlns="http://www.w3.org/2000/svg" viewBox="0 0 280.16 379.66"><defs><style>.cls-1{fill:none;stroke:#000;stroke-miterlimit:10;stroke-width:3px;}.cls-2{fill:#aaa;}.cls-3{fill:#1e1b89;}</style></defs><title>access1</title><g id="Calque_2" data-name="Calque 2"><g id="face"><path class="cls-1" d="M13.61,174.66a6.55,6.55,0,0,1,5-4c3.36-.29,5.61,3.71,7,3s.35-5.32,0-7c-1.44-6.86-.63-14-1-21-.53-10,.78-17.77,2-25,1.34-7.91,3.5-20.74,11-35,6.83-13,14.76-20.82,22-28s17.47-17.13,34-25c6.57-3.12,15.89-7.46,29-9a86.75,86.75,0,0,1,40,5c4.61,1.77,2.79,1.57,21,10,9.43,4.37,12.66,5.69,19,9,7.71,4,11.92,6.23,17,10,4,3,11.21,8.31,17,17,2.74,4.11,5.2,11.8,10,27,7,22.13,5.2,20.39,8,26,1.68,3.36,4.38,8.09,5,15,.24,2.64-.05,3,0,9,.08,8.06.17,14.58,2,15,1.39.32,2.05-3.23,6-5,2.37-1,5.77-1.41,8,0,2.68,1.69,3.24,5.65,3,13-.33,10.24-2,20.36-5,33-2.23,9.43-2.95,10.74-3,15s.61,7.05-1,11c-.27.67-1.23,2.9-5,7a58.14,58.14,0,0,1-9,8c-10.15,7.36-4,32.93-12,57a77.14,77.14,0,0,1-16,27c-9.82,11.29-21.68,18.34-45,32-9.31,5.46-14,8.19-16,9-30,12.07-70-1.47-94-25-4.61-4.52-17.31-17.22-24-37-.33-1-2.88-12-8-34-.82-3.53-4.11-17.72-8-28-1.18-3.13-1.79-4.75-3-8-2.28-6.11-3.43-9.21-4-11a101.26,101.26,0,0,1-3-13c-1.58-8.31-1.33-9.71-3-18-1.4-7-2-8-2-9a10.19,10.19,0,0,0-.33-1.1c-.79-2.42-2.1-5.37-2.67-6.9C13.52,179.73,12.57,177.16,13.61,174.66Z"/></g><g id="casquette"><path class="cls-2" d="M261.07,117.82"/><path d="M261.07,119.32a1.5,1.5,0,0,0,0-3,1.5,1.5,0,0,0,0,3Z"/><path class="cls-2" d="M16.53,132.08c-4.08.74-.63,3-3.92,5.58S-.31,143.78,1.7,147.51c2.23,4.11,7.66,4.66,12.24,4.69,71.6.48,143.4-1.51,214.67-8.54,13.52-1.33,47.37-1.38,48-11,.54-8.16-17.28-14.55-16-15"/><path d="M16.13,130.64c-4.06,1.16-3.15,5.19-6.67,7.28-2.88,1.71-7.56,3.45-9.07,6.76-1.26,2.75.76,5.27,3,6.75,4.13,2.73,9.81,2.27,14.48,2.3,31.55.17,63.11-.15,94.65-1.17,30.88-1,61.74-2.69,92.52-5.25,11.76-1,23.48-2.21,35.25-3,8.88-.59,18-1.06,26.67-3.31,5.2-1.35,13-4.28,10.74-11.15-1.11-3.35-4.16-5.83-6.93-7.78a61.4,61.4,0,0,0-5.71-3.45,26.1,26.1,0,0,1-3.23-1.67l-.23,1.82.06-.07c1.39-1.35-.73-3.47-2.12-2.12l-.06.07a1.53,1.53,0,0,0-.24,1.81c.61,1.2,2.5,1.78,3.6,2.37,3.21,1.74,6.61,3.54,9.24,6.12,6.85,6.69-.62,9.9-6.9,11.4-7.75,1.85-15.82,2.35-23.75,2.88-9.53.64-19,1.54-28.53,2.38-53,4.69-106.3,6.69-159.54,7.07q-10.84.08-21.69.07c-7.28,0-15.29.87-22.48-.4-3.36-.6-8-3.54-3.74-6.6,1.74-1.24,3.68-2.17,5.51-3.26a11.34,11.34,0,0,0,3.88-3c.88-1.33.42-3.47,2.08-3.94a1.5,1.5,0,0,0-.8-2.89Z"/><path class="cls-3" d="M12.55,137.16a290.85,290.85,0,0,1-3.89-40.5c-.21-8.23,0-16.76,3.37-24.25,4.46-9.89,13.75-16.5,22.62-22.62C53.13,37,71.74,24.22,92.19,15.06c10.46-4.69,21.49-8.42,32.9-9.12,8.79-.53,17.59.74,26.23,2.49a239.93,239.93,0,0,1,88,37.36,28.12,28.12,0,0,1,6.93,6.06c2.71,3.64,3.66,8.28,4.53,12.76Q255.86,90.82,261,117L41.08,131.57c-10.14.67-20.47,1.38-29.91,5.19"/><path d="M14,136.76a283.8,283.8,0,0,1-3.88-41.87c-.18-13.08,2.26-24.37,12.06-33.62C31,53,41.92,46.48,52,39.79A320.74,320.74,0,0,1,84,20.67c11.76-6,24.33-11.36,37.55-12.91,13-1.52,26.19,1.12,38.79,4.22a238.87,238.87,0,0,1,67.23,28c5.52,3.37,12.37,6.86,16.68,11.78,4.63,5.28,5.16,13.49,6.44,20.08q4.43,22.82,8.86,45.62l1.45-1.9L61.87,128.69c-16.84,1.12-35.12.51-51.1,6.62-1.79.68-1,3.59.79,2.9,9.49-3.63,19.47-4.47,29.52-5.14Q56.92,132,72.77,131l62.4-4.13L261,118.52a1.53,1.53,0,0,0,1.45-1.9Q258.05,94.3,253.72,72c-1.09-5.62-1.73-11.64-4-16.95s-6.52-8.41-11.1-11.51A241.05,241.05,0,0,0,167,10.62c-12.91-3.53-26.57-6.71-40-6.26-13,.43-25.46,4.76-37.19,10.15A272.79,272.79,0,0,0,55,34.19C44.39,41.12,33.39,48,23.56,56.09c-10.74,8.8-16,19.59-16.42,33.47-.52,16,1.38,32.25,4,48,.31,1.9,3.2,1.1,2.89-.8Z"/><path class="cls-3" d="M118,5.46a3.78,3.78,0,0,1,7.51-.74"/><path d="M119.46,5.46A2.29,2.29,0,0,1,124,5.12c.39,1.89,3.28,1.09,2.89-.8a5.27,5.27,0,0,0-10.45,1.14,1.5,1.5,0,0,0,3,0Z"/></g></g></svg>