<svg xmlns="http://www.w3.org/2000/svg" viewBox="0 0 384.06 189.55"><defs><style>.cls-1{fill:#1a1a1a;}.cls-2{fill:#754c24;}</style></defs><title>access3</title><g id="Calque_2" data-name="Calque 2"><g id="Chapeau_noir" data-name="Chapeau noir"><path class="cls-1" d="M45.32,187.05A95.35,95.35,0,0,1,1.49,183.5C31,169,65.22,168.94,98,165.77c72.27-7,145.5-30.37,216-13.09,3.75.92,7.62,2,10.44,4.66s4.21,7.2,2.09,10.42-6.66,3.78-10.57,4L289.28,173"/><path d="M44.92,185.6a96.79,96.79,0,0,1-43-3.54l.36,2.74c21.63-10.41,45.56-13.34,69.22-15.32,22.81-1.91,45.46-4.14,68.1-7.62,47.9-7.36,96.41-17.55,145.1-12.66a212.8,212.8,0,0,1,21.62,3.29c5.85,1.2,15,2.08,18.5,7.61,6.24,9.85-8.92,10.14-14.55,10.41l-21,1c-1.92.1-1.94,3.1,0,3l21-1c4.49-.22,10.09.19,14.21-2,7.53-4,4.6-13.45-1.55-17.16-4.64-2.8-10.6-3.68-15.81-4.75-6.2-1.27-12.46-2.25-18.74-3a272.3,272.3,0,0,0-40.68-1.46c-55.08,1.87-108.93,16-163.8,20.35-28.29,2.26-57.16,4.22-83.14,16.72-1.22.59-.78,2.38.36,2.74a100.22,100.22,0,0,0,44.63,3.54c1.9-.27,1.09-3.16-.8-2.89Z"/><path class="cls-1" d="M39.4,171.88,51.83,85.43c1.67-11.63,3.68-24,11.73-32.77,5.17-5.62,12.35-9.13,19.68-11.6,15.69-5.29,32.52-6.29,49.11-7.1q28.71-1.4,57.47-2.16c14.05-.37,28.22-.62,42.06,1.79,3.7.65,7.55,1.57,10.31,4,2.36,2.12,3.65,5.12,4.86,8q23.34,55.91,46.69,111.79"/><path d="M40.85,172.28q6.21-43.23,12.42-86.45c1.66-11.44,3.52-24,11.92-32.69,9.19-9.49,23.69-12.89,36.28-15,14.1-2.32,28.51-2.65,42.76-3.28s28.41-1.13,42.61-1.53,28.64-.88,42.76,1.35c3.08.48,6.42,1,9.23,2.43,4.25,2.24,5.8,6.58,7.54,10.73l8.42,20.16q18.75,44.91,37.51,89.8c.73,1.76,3.63,1,2.89-.79q-18.37-44-36.74-88L250,48.93c-2-4.88-3.75-10.44-8.33-13.56C236.8,32,230,31.65,224.3,31a197.82,197.82,0,0,0-23-.94c-15.73.12-31.47.78-47.19,1.41-14.64.59-29.36.94-43.93,2.52-13,1.42-26.82,3.84-38.38,10.37-10.42,5.89-16.19,15.47-19,26.91-3.76,15.34-5,31.53-7.26,47.14l-7.63,53c-.27,1.89,2.62,2.7,2.9.8Z"/><path class="cls-2" d="M244.4,106.77c1.57-6.18,5.74-11.32,9.93-16.12A324.44,324.44,0,0,1,380.5,2.13"/><path d="M245.85,107.16c2.22-7.59,7.65-13.41,12.84-19.16q6.93-7.69,14.34-14.91a320.66,320.66,0,0,1,33.09-28.17A325.67,325.67,0,0,1,380.9,3.57c1.78-.69,1-3.6-.8-2.89a326.79,326.79,0,0,0-111,72c-5.49,5.43-10.81,11.05-15.87,16.88-4.4,5.06-8.41,10.25-10.31,16.78-.55,1.85,2.35,2.65,2.89.79Z"/><path class="cls-2" d="M382.64,1.57,356.71,19.86c-5.08,3.58-10.17,7.17-15.58,10.24-10.79,6.12-22.66,10.07-34.44,14"/><path d="M381.88.27c-12.17,8.59-24.14,17.66-36.72,25.64-12,7.64-25.42,12.26-38.87,16.72-1.82.6-1,3.5.8,2.89,13.07-4.34,26.2-8.79,38-16,13.21-8.1,25.63-17.7,38.29-26.63,1.57-1.1.07-3.7-1.51-2.59Z"/></g></g></svg>