<svg xmlns="http://www.w3.org/2000/svg" viewBox="0 0 260.4 166.21"><defs><style>.cls-1{fill:#e52929;}</style></defs><title>access2</title><g id="Calque_2" data-name="Calque 2"><g id="Bonnet"><path class="cls-1" d="M9,157.58c.14-5,4.26-8.91,8.22-12,27.22-21.08,61.43-31.93,95.74-34.75s68.87,2,102.41,9.82c15.38,3.58,31.07,8,43.58,17.67-.51-14.69-1-29.48-4.27-43.81s-9.42-28.35-19.83-38.72a113.68,113.68,0,0,0-13.08-10.68C196.41,26.56,168.51,8.19,137.13,7.26,123.52,6.86,110,9.82,97,13.74,64.13,23.6,31.18,41.67,16.14,72.49A135.77,135.77,0,0,0,9.06,91c-3.9,12.23-7.3,24.78-7.58,37.61s2.84,26.1,10.8,36.17"/><path d="M10.45,157.58c.9-8.5,12-14.32,18.53-18.45A159.22,159.22,0,0,1,49.78,128a189.22,189.22,0,0,1,47.53-13.77c36-5.68,72.86-1.77,108.27,5.82,18.31,3.92,37.3,8.15,52.56,19.6a1.51,1.51,0,0,0,2.26-1.29c-1-29.24-2.74-62.44-25.15-84.17C224.67,43.9,211.42,35.45,199,27.64s-25.6-14.57-39.76-18.47c-28.88-8-59.19-.08-86,11.66C49.53,31.23,27,47.38,15.18,71.06A154.08,154.08,0,0,0,.57,120.44c-1.85,15.76.62,32.27,10.41,45.14,1.16,1.51,3.76,0,2.59-1.52-18.46-24.26-9.28-57.91.78-83.72C24,55.57,44.4,38.17,67.8,26.65c24.68-12.14,54.81-21.6,82.41-16.48S201.77,32,223.68,48.43A74.36,74.36,0,0,1,251.07,87c5.14,16.59,5.73,34.09,6.33,51.32l2.26-1.3c-14.21-10.65-31.56-15.07-48.61-18.88A392.79,392.79,0,0,0,153,109.25c-35.83-2.53-72.51,1.58-105.48,16.49a157.09,157.09,0,0,0-25.65,14.55c-6.21,4.37-13.53,9.12-14.4,17.29-.2,1.91,2.8,1.9,3,0Z"/><path class="cls-1" d="M7.61,109.65c56.08-39.27,131-50.13,196-28.39"/><path d="M8.37,111c56.18-39,129.85-49.71,194.8-28.25,1.84.61,2.63-2.29.8-2.89-51-16.87-107.71-14.19-157.22,6.61a217.2,217.2,0,0,0-39.9,21.94c-1.57,1.09-.07,3.69,1.52,2.59Z"/><path class="cls-1" d="M113.69,8.64a9.1,9.1,0,0,1,2.52-5.44,5.75,5.75,0,0,1,5.62-1.47,4.22,4.22,0,0,1,2.85,4.77A46.36,46.36,0,0,1,114.54,8"/><path d="M115.14,9c.33-2.06,1-4.21,2.91-5.37s5.65-.56,5.19,2.43l1.05-1a48,48,0,0,1-9.75,1.46c-1.92.09-1.93,3.09,0,3A52.09,52.09,0,0,0,125.08,8a1.47,1.47,0,0,0,1-1A5.9,5.9,0,0,0,119.84,0c-4.37.28-7,4.28-7.6,8.24-.3,1.88,2.59,2.7,2.9.79Z"/></g></g></svg>